<svg xmlns="http://www.w3.org/2000/svg" viewBox="0 0 180 244.69"><defs><style>.cls-1{fill:#fffbf5;}.cls-2{font-size:36px;font-family:Roboto-Bold, Roboto;font-weight:700;}.cls-2,.cls-3{fill:#231815;}.cls-3{font-size:12px;font-family:PingFangTC-Medium-B5pc-H, PingFang TC;letter-spacing:0.02em;}</style></defs><title>1-1</title><g id="圖層_2" data-name="圖層 2"><g id="圖層_1-2" data-name="圖層 1"><rect class="cls-1" width="180" height="244.69"/><text class="cls-2" transform="translate(37.09 226.73)">Greece</text><text class="cls-3" transform="translate(83.73 192.03)">希臘</text><path d="M55.38,69.34V63.56a6.62,6.62,0,0,1,1.44-1q16.82-5.9,33.64-11.76a5.35,5.35,0,0,1,3.78,0c7.48,2.64,15,5.23,22.48,7.85,3.83,1.33,7.65,2.68,11.48,4a1.45,1.45,0,0,1,1.14,1.53c0,1.52,0,3,0,4.55a1.25,1.25,0,0,1-1.3,1.4c-.36,0-.72,0-1.15,0,0,.85.06,1.64,0,2.42a3.51,3.51,0,0,1-.52,1.83,3.48,3.48,0,0,0-.67,2.62c0,.5,0,1,0,1.52a3.66,3.66,0,0,1-1.79,3.33.87.87,0,0,0-.47,1c.32,3.69.72,7.37.9,11.06a78.85,78.85,0,0,1-.71,13.9c-.07.58-.13,1.16-.19,1.73,2.36.46,3.47,1.79,3.47,4.08,0,.58,0,1.16,0,1.73a.76.76,0,0,0,.49.82,3.53,3.53,0,0,1,2,3.28c0,1.09,0,2.17,0,3.25a1.59,1.59,0,0,1-.88,1.66H55.38v-5.78c.43-.65.7-1.58,1.31-1.89,1.25-.66,1.24-1.63,1.15-2.73,0-.24,0-.48,0-.72a3.68,3.68,0,0,1,2.4-3.44,10.73,10.73,0,0,1,1-.28,4.42,4.42,0,0,0,0-.52c-.31-4-.76-8-.9-12A74.51,74.51,0,0,1,61.3,83a.93.93,0,0,0-.51-1.1,3.25,3.25,0,0,1-1.67-2.71c-.07-1.08,0-2.16-.09-3.24a1.68,1.68,0,0,0-.31-.9,4,4,0,0,1-.88-2.6c0-.73,0-1.47,0-2.19C56,70.05,56,70.05,55.38,69.34Zm9.1-6.79v.11h55.75a1.52,1.52,0,0,0-.55-.31Q106.4,57.72,93.1,53.1a2.44,2.44,0,0,0-1.51,0q-8.24,2.82-16.45,5.7Zm62.39,59.31v-1.72c0-1.61-.32-1.93-2-1.93H59.81a6.89,6.89,0,0,0-.79,0,1.13,1.13,0,0,0-1.14,1.1c-.07.83,0,1.66,0,2.53Zm-2.46-6.19v-1.75c0-1.53-.33-1.85-1.86-1.85h-61a1.16,1.16,0,0,0-1.25,1.13c-.06.81,0,1.62,0,2.47Zm0-45.47H60.31V72c0,1.52.34,1.86,1.87,1.86h60.36c.19,0,.39,0,.58,0a1.17,1.17,0,0,0,1.24-1.08C124.43,71.91,124.38,71.07,124.38,70.2Zm-8.74,12.29a89.46,89.46,0,0,0,0,27c1.63,0,3.22,0,4.8,0,.17,0,.47-.33.49-.52.32-3.28.72-6.55.87-9.84a83.06,83.06,0,0,0-.56-13.83c-.11-.94-.26-1.88-.4-2.83Zm-46.56,0c-1.63,0-3.2,0-4.76,0-.44,0-.52.24-.55.57-.3,3.6-.7,7.18-.86,10.78a81.19,81.19,0,0,0,.71,14.11c.2,1.61.19,1.62,1.81,1.62h3c.21,0,.42,0,.63,0A90.31,90.31,0,0,0,69.08,82.47Zm12,27.06c1.65,0,3.25,0,4.86,0,.15,0,.41-.31.43-.5.27-2.25.58-4.49.73-6.74a92.85,92.85,0,0,0-.42-17.08c-.11-.9-.26-1.79-.39-2.72H81.12A90.25,90.25,0,0,0,81.12,109.53Zm22.47,0a90.25,90.25,0,0,0,0-27.06c-1.64,0-3.23,0-4.81,0-.17,0-.46.33-.48.52-.32,3.71-.71,7.42-.88,11.14A78.23,78.23,0,0,0,98.3,109c0,.2.31.52.48.53C100.37,109.55,102,109.53,103.59,109.53Zm9.5,0a98.86,98.86,0,0,1-1-13.61,95.08,95.08,0,0,1,1-13.67A4,4,0,0,1,110.84,78c0-.54,0-1.08,0-1.62h-2.46c0,.73,0,1.43,0,2.12a3.8,3.8,0,0,1-2,3.59.69.69,0,0,0-.28.54c.28,3.14.69,6.26.87,9.4a80.45,80.45,0,0,1-.31,12.61c-.17,1.62-.35,3.24-.53,4.9Zm-34.61,0c-.25-3-.55-5.85-.72-8.75a87.29,87.29,0,0,1,.82-18.06.6.6,0,0,0-.36-.72,3.63,3.63,0,0,1-1.89-3.34V76.34H73.87c0,.78,0,1.5,0,2.22A3.75,3.75,0,0,1,71.93,82a.72.72,0,0,0-.31.52c.27,3,.65,5.92.83,8.89A82.86,82.86,0,0,1,72,106.13c-.13,1.11-.26,2.23-.39,3.37Zm10.44,0h6.87a1.7,1.7,0,0,0,0-.26c-.31-3.62-.77-7.23-.88-10.85-.1-3.43.12-6.87.3-10.3.09-1.77.39-3.53.57-5.3a.89.89,0,0,0-.24-.72,4,4,0,0,1-2-4c0-.59,0-1.18,0-1.78h-2.4c0,.77,0,1.48,0,2.2a3.7,3.7,0,0,1-1.84,3.38.82.82,0,0,0-.43.93c.33,3.71.79,7.42.91,11.13.1,3.29-.14,6.59-.31,9.88C89.39,105.71,89.12,107.57,88.92,109.49ZM57.86,67.56h69V65.28h-69Zm21,8.77c0,.86,0,1.67,0,2.48A1.18,1.18,0,0,0,80,80a2.17,2.17,0,0,0,.36,0h6.77c.87,0,1.42-.34,1.47-1,.06-.88,0-1.76,0-2.68Zm17.33,0c0,.17,0,.26,0,.36,0,.67,0,1.34,0,2A1.12,1.12,0,0,0,97.28,80c2.47,0,4.94,0,7.42,0a1.1,1.1,0,0,0,1.17-1c.07-.85,0-1.71,0-2.59Zm-34.53,0c0,.18,0,.27,0,.37,0,.64,0,1.29,0,1.94,0,.85.41,1.32,1.27,1.33,2.42,0,4.85,0,7.27,0a1.13,1.13,0,0,0,1.23-1c.08-.87,0-1.75,0-2.65Zm61.52,0h-9.79c0,.16,0,.25,0,.35,0,.6,0,1.2,0,1.8,0,1,.46,1.45,1.46,1.47s2.21,0,3.31,0,2.45,0,3.68,0c.82,0,1.33-.4,1.36-1.08C123.17,78.05,123.13,77.22,123.13,76.35Z"/></g></g></svg>