<svg xmlns="http://www.w3.org/2000/svg" viewBox="0 0 180 244.69"><defs><style>.cls-1{fill:#fffbf5;}.cls-2{font-size:36px;font-family:Roboto-Bold, Roboto;font-weight:700;}.cls-2,.cls-3{fill:#231815;}.cls-3{font-size:12px;font-family:PingFangTC-Medium-B5pc-H, PingFang TC;letter-spacing:0.02em;}</style></defs><title>10-2</title><g id="圖層_2" data-name="圖層 2"><g id="圖層_1-2" data-name="圖層 1"><rect class="cls-1" width="180" height="244.69"/><text class="cls-2" transform="translate(35.06 226.73)">Hawaii</text><text class="cls-3" transform="translate(71.55 192.03)">夏威夷</text><path d="M85.12,44.71H99.26a15.18,15.18,0,0,0,1.89.85c2.33.73,4.57,4.39,4.11,6.79a.24.24,0,0,1,0,.08c-.49,1.18-1,2.36-1.47,3.54a2.74,2.74,0,0,0-.3,1.09c.17,2.4.38,4.8.58,7.2l.3,3.49c2.13.15,4.17.26,6.21.46a4.08,4.08,0,0,0,2.42-.4,6.27,6.27,0,0,1,5.11-.6A5.6,5.6,0,0,1,122,72.46l.5,0a5.36,5.36,0,0,1,5,5.43c0,2.4-1.6,3.81-3.11,5.18l-2.17-2a21.18,21.18,0,0,0,1.85-1.64,2.36,2.36,0,0,0,.29-2.81,2.22,2.22,0,0,0-2.32-1.25,28.54,28.54,0,0,1-1.69,3.27,7.43,7.43,0,0,1-5,3.09,1.87,1.87,0,0,0-1.61,1.31,1.91,1.91,0,0,0,.56,2.07c.34.33.68.66,1,1A3.83,3.83,0,0,1,114,92.38c-.75.3-1.53.54-2.3.8A5,5,0,0,0,108.18,99c.32,2.06,2.34,4,4.18,3.94a.39.39,0,0,0,.08-.14c.44-1.62.86-3.24,1.31-4.86a4.18,4.18,0,1,1,8.09,2.09l-.77,3.11c1.42,0,2.68,0,3.94,0a2.48,2.48,0,0,0,2.33-1.64,2.46,2.46,0,0,0-.6-2.71c-.35-.37-.73-.71-1.06-1.09a3.7,3.7,0,0,1,1.56-6c.58-.2,1.21-.28,1.78-.5a2.32,2.32,0,0,0,1.17-.77c.32-.55-.22-1-.6-1.33a6.3,6.3,0,0,1-1.88-2.94c-.61-2.2.29-4,1.39-5.9l2.47,1.24c-.32.64-.59,1.18-.86,1.74a3,3,0,0,0,.6,3.62,28,28,0,0,1,1.78,2.49V91a4.36,4.36,0,0,1-3.77,3,8.86,8.86,0,0,0-.89.21c-1,.29-1.16,1-.49,1.71.37.41.8.78,1.15,1.22a5.08,5.08,0,0,1,.81,5.43,5,5,0,0,1-4.36,3.23c-1.5.12-3,.08-4.54.06-.56,0-.76.19-.9.71-.69,2.74-1.43,5.46-2.15,8.2-.51,1.93-1,3.87-1.5,5.77.49.33.93.58,1.33.88,1.21.92,1.78,2.15,1.27,3.27a4.4,4.4,0,0,1-1.7,2,24.3,24.3,0,0,1-5,2,80.41,80.41,0,0,1-19.91,2.19c-4.7,0-9.41-.22-14.11-.49a54.66,54.66,0,0,1-11.5-1.87A12.07,12.07,0,0,1,62,126.22a2.78,2.78,0,0,1-.11-4.45,18.65,18.65,0,0,1,1.7-1.25c-1.23-4.69-2.47-9.39-3.69-14.1-.11-.44-.36-.54-.78-.54-1.54,0-3.09.06-4.63-.07a4.92,4.92,0,0,1-4.35-3.22,5.09,5.09,0,0,1,.81-5.44c.35-.43.79-.8,1.16-1.22.66-.73.46-1.42-.5-1.7-.7-.2-1.42-.32-2.11-.55a3.66,3.66,0,0,1-2.55-3.56A4.22,4.22,0,0,1,48.49,87c1.35-1.32,1.5-2.37.66-4.08-.24-.47-.46-1-.71-1.46L51,80.18a27.81,27.81,0,0,1,1.28,3,5.22,5.22,0,0,1-.9,4.77,17.82,17.82,0,0,1-1.24,1.37c-.67.72-.5,1.43.43,1.71.62.19,1.25.3,1.87.48a3.73,3.73,0,0,1,1.73,6.27c-.33.34-.69.66-1,1A2.46,2.46,0,0,0,54.65,103a35.74,35.74,0,0,0,4.28,0c-.28-1.09-.56-2.14-.81-3.19a4.17,4.17,0,0,1,5.05-5,4.06,4.06,0,0,1,3.08,3c.48,1.69.9,3.39,1.36,5.1a5.09,5.09,0,0,0,.58-.08,5,5,0,0,0,3.69-4.59,4.93,4.93,0,0,0-3.24-5c-.86-.34-1.75-.59-2.61-.93a3.78,3.78,0,0,1-2.45-3.74,4.68,4.68,0,0,1,2-3.38,2,2,0,0,0,.7-2.19,2,2,0,0,0-1.76-1.35,7.81,7.81,0,0,1-3.8-1.86,8.33,8.33,0,0,1-2.56-4.49,2.42,2.42,0,0,0-2.59,1.38,2.38,2.38,0,0,0,.45,2.8A20.15,20.15,0,0,0,57.69,81l-2.08,2.22c-.71-.75-1.44-1.41-2-2.17a5.28,5.28,0,0,1,2.81-8.34,26.84,26.84,0,0,1,4.44-.31c0,.4,0,.62,0,.84,0,3.45,1.32,5,4.71,5.82a4.7,4.7,0,0,1,2.75,7.26,12.47,12.47,0,0,1-1.24,1.38c-1,1.05-.87,1.79.49,2.26.69.23,1.39.43,2.07.7a7.52,7.52,0,0,1,5,6.15,7.39,7.39,0,0,1-3,7.4,24.21,24.21,0,0,1-3.2,1.73.59.59,0,0,0,0,.2c1,3.9,2,7.8,3.07,11.68a.8.8,0,0,0,.65.41c2.58-.27,5.17-.58,7.75-.91a1.68,1.68,0,0,0,.75-.52,19.13,19.13,0,0,1,1.76-1.73,1,1,0,0,0,.52-1c-.08-1.31-.12-2.63-.19-4s-.17-2.83-.26-4.38l-.84.69a11.11,11.11,0,0,1-4-6.77,11.94,11.94,0,0,1,2.49-9.46A12.74,12.74,0,0,1,74.77,78c-1.61,0-3.15,0-4.68,0a6.86,6.86,0,0,1-6.5-6.68q0-6.43,0-12.88a5.56,5.56,0,0,1,10.9-1.42,7.18,7.18,0,0,1-.7,5.21,2.53,2.53,0,0,0-.25,1.35c.18,1.21.54,2.4.7,3.62.12,1,.57,1.07,1.38.78,0-.12.06-.25.07-.38.39-4.69.74-9.39,1.19-14.08a9.34,9.34,0,0,1,5.8-8A25,25,0,0,1,85.12,44.71ZM70.67,71.89c.34-.67.67-1.29,1-1.92a1.68,1.68,0,0,0,.13-.88c-.21-1.18-.43-2.37-.72-3.53-.46-1.79-.75-3.54.49-5.17a1.12,1.12,0,0,0,.22-.63,7.28,7.28,0,0,0-.06-2.14,2.64,2.64,0,0,0-2.92-1.75,2.69,2.69,0,0,0-2.34,2.66c0,4.07.07,8.14,0,12.2A4.31,4.31,0,0,0,71,75.28c2.55-.07,5.11-.07,7.65,0,1.27,0,2.21-.07,2.75-1.46a2.29,2.29,0,0,1,2.49-1.38c4.06.1,8.13.12,12.2,0a2.91,2.91,0,0,1,2.86,1.69,1.88,1.88,0,0,1,.22.45c.16.61.58.69,1.14.69,5.22,0,10.43,0,15.65,0a5.92,5.92,0,0,0,.84,0,2.68,2.68,0,0,0,2.39-2.93,2.57,2.57,0,0,0-2.73-2.48,7.53,7.53,0,0,0-2.69.8,4.83,4.83,0,0,1-2.74.46c-2-.18-3.91-.3-5.87-.44l-10.57-.74c-1.05-.07-2.09-.17-3.18-.26,0-1,0-1.91,0-2.8A1,1,0,0,1,92,65.74a3,3,0,0,0,2-2.27c.22-1.56.18-3.16.26-4.84-3,.17-5.76,0-7.82-2.59a3.66,3.66,0,0,0-.55,1.5c-.06,1.48,0,3,0,4.46a3.86,3.86,0,0,0,2.31,3.85c.2.09.47.32.47.49,0,1.08,0,2.16,0,3.27-4.58.46-9,.92-13.5,1.33-.62.06-1,.21-1.28.83s-.44.9-.68,1.38Zm26.38,45.18c.26.05.45.11.64.13,3.37.36,6.74.7,10.1,1.07.46,0,.63-.12.74-.55q1.48-5.68,3-11.36a2.65,2.65,0,0,0,0-.56,2.36,2.36,0,0,0-.24-.14,7.87,7.87,0,0,1-.37-15.2c.64-.22,1.28-.4,1.9-.66a1,1,0,0,0,.39-1.75c-.35-.4-.75-.75-1.11-1.15a4.56,4.56,0,0,1-1.07-4.68,4.76,4.76,0,0,1,4-3.31,12,12,0,0,0,1.76-.63l-.09-.16h-11.5a12.66,12.66,0,0,1-5.34,12.06c4,5.32,3.37,12.21-1.55,16.23l-.67-.52Zm-33.59,7c1.27.53,2.28,1.07,3.36,1.4,6.17,1.86,12.54,2.3,18.93,2.5a116.49,116.49,0,0,0,19.31-.82,40.49,40.49,0,0,0,9.15-2,23.44,23.44,0,0,0,2.13-1.06l0-.38c-5.2-2.74-11-2.93-16.67-3.61a1.91,1.91,0,0,0,0,.35,3.94,3.94,0,0,1-3.93,4.87c-2,0-3.93,0-5.89,0a3.55,3.55,0,0,1-3.34-1.88,1.51,1.51,0,0,0-1.65-.87,3.73,3.73,0,0,1-3.52-1.39,1.87,1.87,0,0,0-2.34-.92.86.86,0,0,1-.16,0,60.17,60.17,0,0,0-11.41,1.91A9,9,0,0,0,63.46,124.11Zm34.68-21.78c.16-.09.22-.11.25-.15a1.67,1.67,0,0,0,.18-.28,8.46,8.46,0,0,0,.64-7.13C98.5,92.5,96.78,91,95.15,89.4a1.2,1.2,0,0,0-.77-.19H85.63a1.23,1.23,0,0,0-.78.19c-1.74,1.67-3.53,3.31-4.18,5.77a8.37,8.37,0,0,0,1.06,7.19,6.61,6.61,0,0,1,.6-.54,2.56,2.56,0,0,0,1-3.26A18.81,18.81,0,0,1,83,94.77h2.83a15.66,15.66,0,0,0,1.4,6.74,15.91,15.91,0,0,0,1.41-6.74h2.75a15.54,15.54,0,0,0,1.4,6.74,16,16,0,0,0,1.42-6.74h2.91c-.24,1.67-.47,3.27-.69,4.86,0,.31-.12.72,0,.92C97,101.19,97.58,101.76,98.14,102.33ZM79.42,56.14c1.17-.11,2.21-.19,3.24-.34a1.21,1.21,0,0,0,.81-.48A4.45,4.45,0,0,1,87.4,53a.92.92,0,0,1,1,.58,3.78,3.78,0,0,0,4.34,2.17A16.48,16.48,0,0,0,92,53.82a4.28,4.28,0,0,1,0-4.32,16.37,16.37,0,0,0,.76-2c-2.21,0-4.28,0-6.35,0a6.74,6.74,0,0,0-6.48,5.13A30.81,30.81,0,0,0,79.42,56.14ZM90,75.32c-1.93,0-3.86,0-5.79,0a.81.81,0,0,0-.88.59,3.79,3.79,0,0,0,.76,4,2.35,2.35,0,0,0,2,.92c2.69-.07,5.38,0,8.06,0a1.84,1.84,0,0,0,.82-.1A4.11,4.11,0,0,0,96.67,76a.91.91,0,0,0-1-.65C93.79,75.34,91.92,75.32,90,75.32Zm.62,28.46c0,.44,0,.66,0,.88.22,4,.37,8,.71,12,.15,1.78,0,3.13-2,3.65a1,1,0,0,0-.67,1.36,1.11,1.11,0,0,0,1.2.84c1.93,0,3.87,0,5.8,0a1.1,1.1,0,0,0,1.19-.86,1.13,1.13,0,0,0-.69-1.37c-.45-.23-.89-.49-1.35-.67a1,1,0,0,1-.7-1.21c.28-4.58.51-9.17.75-13.76,0-.22,0-.44,0-.78L92.78,107Zm-21.8,15.09c-.31-1.18-.6-2.31-.9-3.43q-2.19-8.31-4.37-16.61c-.24-.91-.77-1.34-1.52-1.27-.94.09-1.4.91-1.11,2q1.83,7,3.68,14c.52,2,1,3.93,1.58,6Zm44.93.67,1.7-6.47L119,99.62a1.45,1.45,0,0,0-.59-1.89c-.86-.49-1.73,0-2,1.14q-2.53,9.6-5.06,19.2c-.06.26-.11.52-.17.81Zm-15.42-72c-1,.38-2.17.52-2.78,1.18a5.27,5.27,0,0,0-1.3,3.06,3.88,3.88,0,0,0,1.12,2.7,5.07,5.07,0,0,0,3,1.27,4.09,4.09,0,0,0,2.77-1.17,4.71,4.71,0,0,0,1.21-2.92,4.34,4.34,0,0,0-1.19-2.85A8.54,8.54,0,0,0,98.37,47.52Zm-13,56.64c0,.72,0,1.27,0,1.82.14,2.71.19,5.43.48,8.13.17,1.7-.09,2.92-1.94,3.34,0,0-.09.06-.14.09-.52.3-.84.8-.59,1.32a2.07,2.07,0,0,0,1.09.87,2.17,2.17,0,0,0,1.24,0,2.22,2.22,0,0,0,.92-.49,17.92,17.92,0,0,1,1.54-1.38,1,1,0,0,0,.57-1.06c-.16-2.46-.28-4.92-.41-7.38-.06-1-.13-2.09-.21-3.31l-.71.83ZM97,85.05h0c0,.62,0,1.24,0,1.85a.93.93,0,0,0,1.55.74,9.14,9.14,0,0,0,3.92-7.45c0-2.61.31-2.06-2.21-2.09-.21,0-.51.31-.63.55a14.89,14.89,0,0,1-1.58,3,3.45,3.45,0,0,0-1.07,3A2.94,2.94,0,0,1,97,85.05ZM83,85.05a10.67,10.67,0,0,0,0-1.6,2,2,0,0,0-.47-1.08,7.48,7.48,0,0,1-2.18-3.81.79.79,0,0,0-.61-.46,17.12,17.12,0,0,0-2.14.26s-.05.21-.06.32a9.55,9.55,0,0,0,3.85,8.9c.24.19.76.43.84.35a2.85,2.85,0,0,0,.76-1.2A7.84,7.84,0,0,0,83,85.05Zm2.87-1.37v2.65h8.2V83.68ZM78.5,67.8l6.31-.64c-.5-.92-.94-1.76-1.42-2.56a.86.86,0,0,0-.63-.37,5.54,5.54,0,0,1-3.88-1.07Zm23-.25-.37-4.41a5.37,5.37,0,0,1-3.88,1.08.79.79,0,0,0-.59.3c-.49.83-.93,1.68-1.41,2.58ZM83,61.36V58.67c-.88,0-1.86-.35-2.41.58a1.71,1.71,0,0,0-.06,1.4C81,61.65,82,61.35,83,61.36Zm14,0c1,0,2,.31,2.48-.69a1.7,1.7,0,0,0-.09-1.46c-.57-.89-1.52-.48-2.39-.53Z"/><path d="M98.36,53.08a1.48,1.48,0,0,1-1.43-1.38,1.42,1.42,0,0,1,1.35-1.43,1.41,1.41,0,0,1,1.47,1.39A1.48,1.48,0,0,1,98.36,53.08Z"/></g></g></svg>