<svg xmlns="http://www.w3.org/2000/svg" viewBox="0 0 180 244.69"><defs><style>.cls-1{fill:#fffbf5;}.cls-2{fill:#fff;}.cls-3{font-size:36px;font-family:Roboto-Bold, Roboto;font-weight:700;}.cls-3,.cls-4{fill:#231815;}.cls-4{font-size:12px;font-family:PingFangTC-Medium-B5pc-H, PingFang TC;letter-spacing:0.02em;}</style></defs><title>2-2</title><g id="圖層_2" data-name="圖層 2"><g id="圖層_1-2" data-name="圖層 1"><rect class="cls-1" width="180" height="244.69"/><path d="M86,130.25c-1.29-.75-2.62-1.43-3.84-2.29a3.82,3.82,0,0,0-3.75-.58,21.63,21.63,0,0,1-3.46.87,3.79,3.79,0,0,1-3.52-1.31,17.53,17.53,0,0,1-1.87-2.35,3.91,3.91,0,0,0-3.66-1.86,21.31,21.31,0,0,1-3-.14,4.13,4.13,0,0,1-3.45-2.68c-.39-.88-.65-1.83-1-2.73a8.84,8.84,0,0,0-.81-1.63c-.7-1-.51-1.8.65-2.3,3.52-1.5,7.08-2.93,10.55-4.55a83.45,83.45,0,0,0,17.1-10.29c.72-.58,1.39-1.21,2.09-1.8A4.41,4.41,0,0,0,89.62,93c0-.53,0-1.06,0-1.58a1.17,1.17,0,0,1,1.17-1.18,1.24,1.24,0,0,1,1.32,1.14c.23,2.81-.29,5.33-2.59,7.3a75.11,75.11,0,0,1-10.79,7.68,4.71,4.71,0,0,0-1.22.93c1.12.12,2.23.29,3.35.36a43.13,43.13,0,0,0,14.23-1.11,22.28,22.28,0,0,0,10.48-5.89c.21-.22.4-.46.67-.76-1.19-1-2.36-2.05-3.53-3.05A6.56,6.56,0,0,1,100.45,93a9.26,9.26,0,0,1-.11-1.66c0-3.51,0-7,0-10.52a9.71,9.71,0,0,0-1-4.43c-1.43-2.91-2.84-5.83-4.35-8.94l-.57,1.3a1.36,1.36,0,0,1-1.84.94l-2.28-.5a1.34,1.34,0,0,0-1.58.78c-.29.6-.49,1.13.17,1.74,1.81,1.7,3.53,3.49,5.28,5.24.78.79.83,1.12.33,2.14-.92,1.89-2,3.71-2.25,5.87,0,.42-.07.83-.09,1.25a1.33,1.33,0,0,1-1.33,1.4,1.26,1.26,0,0,1-1.19-1.43,12.81,12.81,0,0,1,1.48-6c.29-.57.57-1.15.82-1.65l-5-4.94c-.53.82-1.14,1.7-1.68,2.62a1.24,1.24,0,0,0,0,.85c.89,3.12,1.8,6.23,2.7,9.35a3,3,0,0,1-5.61,2.29c-1.47-3.5-2.82-7.06-4.09-10.64a6,6,0,0,1,.77-5.27l3.67-6c.16-.25.31-.52.41-.69L80.43,63a3.76,3.76,0,0,1-3.4-.17A5.4,5.4,0,0,1,75.29,61a3.78,3.78,0,0,1,1.06-4.73c1.56-1.26,3.38-1.14,5.39.35,2.18-1.65,2.18-1.65,6.15-1.8l-2.77-3.7c-.46-.62-1-1.23-1.39-1.88a2.89,2.89,0,0,1,4.52-3.58q3.42,3.9,6.74,7.86a5,5,0,0,1,1.17,3.32c0,1.22,0,2.45,0,3.67,0,.9-.5,1.43-1.28,1.42s-1.21-.5-1.23-1.37c0-1.14.09-2.3,0-3.42A4.46,4.46,0,0,0,92.82,55c-2-2.49-4.13-4.89-6.22-7.31-.15-.17-.45-.21-.67-.31,0,.26,0,.6.12.79,1.73,2.35,3.46,4.7,5.26,7a3.57,3.57,0,0,1,.85,2.59c-.1,1.41,0,2.86-.2,4.24a5.69,5.69,0,0,1-5.37,4.65,1.23,1.23,0,0,0-1.18.69c-1.33,2.22-2.69,4.41-4.07,6.6A4.39,4.39,0,0,0,81,78.05c1.18,3,2.34,6.06,3.54,9.07.12.29.54.7.75.66.6-.11.36-.61.25-1-.94-3.22-1.87-6.45-2.84-9.66a2.11,2.11,0,0,1,.29-2,24.72,24.72,0,0,0,1.64-2.52,28.11,28.11,0,0,0,1.62-3.25A4,4,0,0,1,91,66.74a2.37,2.37,0,0,1,.49.09c.66.28,1,.09,1.23-.6A2.23,2.23,0,0,1,95,64.55,2.15,2.15,0,0,1,97,65.84c1.68,3.45,3.42,6.86,5,10.37a11.07,11.07,0,0,1,.82,4c.11,3.7.06,7.41,0,11.11a4.66,4.66,0,0,0,1.77,3.77q8.66,7.41,17.28,14.86c1.2,1,1.25,1.92-.07,2.81a15.48,15.48,0,0,1-3.29,1.55c-1.17.45-2.35.78-3,2a1.07,1.07,0,0,1-1.61.32,1.16,1.16,0,0,1-.5-1.59,4.68,4.68,0,0,1,2.72-2.55c1.08-.42,2.18-.8,3.4-1.24l-11.24-9.69-3.35,3.13c.09.21.19.48.31.74,3.07,6.48,6.09,13,9.23,19.41,1,2.07,1.09,4-1.59,5.36H111.2a5.18,5.18,0,0,1-2.46-2.47c-.67-1.25-1.42-2.45-2.14-3.67l-.76-1.27c-.56.58-1,1-1.47,1.52-.62.75-1.16,1.56-1.79,2.3a4.42,4.42,0,0,1-4.74,1.47c-.94-.23-1.87-.51-2.79-.82a3.36,3.36,0,0,0-3.22.49c-1.3.87-2.68,1.64-4,2.45ZM60.41,115.18c.44,1.22.85,2.39,1.28,3.56a1.9,1.9,0,0,0,1.79,1.38c1.08,0,2.16.09,3.25.12a5.22,5.22,0,0,1,4.14,2c.71.9,1.39,1.81,2.1,2.7a2.05,2.05,0,0,0,2.38.73c1-.29,1.91-.58,2.87-.85a5.37,5.37,0,0,1,4.84.76c.79.57,1.6,1.1,2.4,1.65a2.25,2.25,0,0,0,2.78,0c.92-.63,1.83-1.27,2.76-1.88a4.88,4.88,0,0,1,4.07-.62c1.05.27,2.1.56,3.12.89a2.29,2.29,0,0,0,2.72-.87c1.13-1.42,2.31-2.8,3.54-4.29l-7-11.92c-.87.24-1.66.48-2.47.67a50.13,50.13,0,0,1-20.77.15,2.12,2.12,0,0,0-1.16.18c-3,1.34-5.89,2.73-8.84,4.07C63,114.16,61.7,114.64,60.41,115.18Zm39.46-7.57c.11.21.2.38.3.55q5.53,9.41,11.07,18.81c.22.38.41,1,1,.66s.23-.81.06-1.24c0-.1-.09-.2-.14-.3l-8.81-18.57-.64-1.37ZM86.22,64.12a3.44,3.44,0,0,0,3.39-3.4,3.49,3.49,0,0,0-3.46-3.43,3.43,3.43,0,0,0-3.36,3.5A3.37,3.37,0,0,0,86.22,64.12Zm-6-4.71a1.38,1.38,0,1,0-2.76-.06,1.38,1.38,0,1,0,2.76.06Z"/><path class="cls-2" d="M87.81,130.25c1.34-.81,2.72-1.58,4-2.45a3.36,3.36,0,0,1,3.22-.49c.92.31,1.85.59,2.79.82a4.42,4.42,0,0,0,4.74-1.47c.63-.74,1.17-1.55,1.79-2.3.42-.5.91-.94,1.47-1.52l.76,1.27c.72,1.22,1.47,2.42,2.14,3.67a5.18,5.18,0,0,0,2.46,2.47Z"/><text class="cls-3" transform="translate(43.79 226.73)">Spain</text><text class="cls-4" transform="translate(71.55 192.03)">西班牙</text></g></g></svg>