<svg xmlns="http://www.w3.org/2000/svg" viewBox="0 0 180 244.69"><defs><style>.cls-1{fill:#fffbf5;}.cls-2{font-size:36px;font-family:Roboto-Bold, Roboto;font-weight:700;}.cls-2,.cls-4{fill:#231815;}.cls-3{letter-spacing:-0.01em;}.cls-4{font-size:12px;font-family:PingFangTC-Medium-B5pc-H, PingFang TC;letter-spacing:0.02em;}</style></defs><title>3-2</title><g id="圖層_2" data-name="圖層 2"><g id="圖層_1-2" data-name="圖層 1"><rect class="cls-1" width="180" height="244.69"/><text class="cls-2" transform="translate(34.9 226.73)"><tspan class="cls-3">F</tspan><tspan x="20.25" y="0">rance</tspan></text><text class="cls-4" transform="translate(77.7 192.03)">法國</text><path d="M97.28,84.8c1.24,4.81,2.42,9.38,3.59,14a.72.72,0,0,0,.85.63c1.67,0,3.34,0,5,0,1.06,0,1.52.45,1.53,1.47,0,1.46,0,2.93,0,4.39,0,1-.48,1.47-1.53,1.49h-3c.66,1.51,1.24,2.92,1.88,4.32a101.71,101.71,0,0,0,8.85,15.52,1.59,1.59,0,0,0,1.5.77c4.77,0,9.55,0,14.32,0h1v2.43H48.74v-2.43h.94c4.83,0,9.66,0,14.49,0a1.53,1.53,0,0,0,1.42-.76,103.69,103.69,0,0,0,10.3-18.8,8.11,8.11,0,0,0,.31-.82s0-.11,0-.23H73.31c-1.1,0-1.56-.46-1.56-1.54,0-1.44,0-2.87,0-4.31,0-1,.46-1.49,1.5-1.5,1.69,0,3.39,0,5.09,0a1,1,0,0,0,.75-.48c1.14-4.56,2.25-9.12,3.36-13.68a1.86,1.86,0,0,0,0-.39h-3c-1.16,0-1.53-.35-1.54-1.5,0-1.44,0-2.87,0-4.31,0-1.08.39-1.47,1.5-1.48,1.34,0,2.69,0,4.17,0,.1-.94.29-1.86.3-2.77,0-3.89.15-7.78,0-11.67a32.86,32.86,0,0,0-1-5.67,1.6,1.6,0,0,1,.67-1.75c1.61-1.26,3.22-2.53,4.79-3.85a1.57,1.57,0,0,0,.52-1.07c.06-1.57,0-3.15,0-4.77h2.45c0,1.54,0,3,0,4.57a1.55,1.55,0,0,0,.66,1.4c1.56,1.19,3.06,2.45,4.61,3.65a1.63,1.63,0,0,1,.74,1.88c-1.41,5.1-1.37,10.29-1.06,15.51.08,1.48.24,3,.36,4.54h3.82c1.52,0,1.82.29,1.82,1.78s0,2.76,0,4.13c0,1-.41,1.38-1.39,1.39S98.66,84.8,97.28,84.8ZM75.54,127.27a14.54,14.54,0,0,1,14.12-14.52,13.94,13.94,0,0,1,9.48,3.3,14.38,14.38,0,0,1,5.27,11.19h7.4a1.8,1.8,0,0,0-.15-.31,102.73,102.73,0,0,1-10.38-19.64c-.22-.55-.55-.56-1-.56-6.85,0-13.7,0-20.55,0a.91.91,0,0,0-1,.67,103.72,103.72,0,0,1-10.17,19.27c-.12.18-.21.38-.34.61Zm26.38,0c-.18-4.8-2.19-8.45-6.38-10.64a11.3,11.3,0,0,0-12.56.92,11.52,11.52,0,0,0-4.87,9.72ZM81.73,99.33H98.29L94.85,84.81c-3.07,0-6.22,0-9.38,0-.19,0-.48.36-.54.6-.2.82-.28,1.66-.48,2.49C83.56,91.71,82.64,95.5,81.73,99.33ZM93.9,77.45c-.16-4.44-.32-8.81-.47-13.21H86.6c-.13,4.43-.27,8.8-.4,13.21Zm11.86,26.77v-2.33H74.25v2.33ZM93.86,61.68c.26-1.33.53-2.59.73-3.85a1,1,0,0,0-.28-.79c-1.25-1-2.55-2-3.81-3.09a.65.65,0,0,0-1,0C88.26,55,87,56,85.7,57a.86.86,0,0,0-.33.62c.23,1.34.52,2.68.79,4ZM80.37,82.29H99.64V80H80.37Z"/><path d="M126.6,64.05c.64,0,1.22.07,1.8.16a4.86,4.86,0,0,1-.67,9.67q-8.39,0-16.77,0a4.89,4.89,0,1,1-.12-9.77c.29,0,.58,0,1,0A7.57,7.57,0,0,1,115.17,58a7.43,7.43,0,0,1,4.68-1.18C123.31,57.09,125.5,59.41,126.6,64.05Zm-7.44,7.38c2.78,0,5.56,0,8.35,0A2.42,2.42,0,0,0,130.08,69a2.38,2.38,0,0,0-2.56-2.4c-.53,0-1,0-1.58,0-1.79,0-2.11-.35-2-2.13a4.82,4.82,0,1,0-9.6.15c.1,1.62-.23,2-1.86,2-.7,0-1.41,0-2.11,0a2.17,2.17,0,0,0-2,1.41,2.41,2.41,0,0,0,2.35,3.37C113.6,71.46,116.38,71.43,119.16,71.43Z"/><path d="M53.43,52c.86-4.68,3.35-7.16,7.17-7.25,4.06-.09,6.49,2.18,7.63,7.17.64.06,1.31.07,2,.19a4.87,4.87,0,0,1-.67,9.66c-5.79.05-11.58.06-17.37,0a4.78,4.78,0,0,1-4.68-4.84A4.86,4.86,0,0,1,52.15,52C52.56,51.94,53,52,53.43,52Zm7.36,7.33c2.75,0,5.5,0,8.25,0a2.44,2.44,0,1,0,0-4.85c-.67,0-1.35,0-2,0-1.07,0-1.44-.45-1.43-1.53a8.22,8.22,0,0,0-.11-2.17,4.81,4.81,0,0,0-9.42,1.83c.14,1.44-.23,1.85-1.67,1.88a17.93,17.93,0,0,0-2.54.11,2.25,2.25,0,0,0-1.91,2.36,2.44,2.44,0,0,0,2.69,2.38C55.35,59.3,58.07,59.29,60.79,59.29Z"/></g></g></svg>