<svg xmlns="http://www.w3.org/2000/svg" viewBox="0 0 180 244.69"><defs><style>.cls-1{fill:#fffbf5;}.cls-2{font-size:36px;font-family:Roboto-Bold, Roboto;font-weight:700;}.cls-2,.cls-4{fill:#231815;}.cls-3{letter-spacing:-0.05em;}.cls-4{font-size:12px;font-family:PingFangTC-Medium-B5pc-H, PingFang TC;letter-spacing:0.02em;}</style></defs><title>4-2</title><g id="圖層_2" data-name="圖層 2"><g id="圖層_1-2" data-name="圖層 1"><rect class="cls-1" width="180" height="244.69"/><text class="cls-2" transform="translate(33.04 226.73)"><tspan class="cls-3">T</tspan><tspan x="18.83" y="0">aiwan</tspan></text><text class="cls-4" transform="translate(77.7 192.03)">臺灣</text><path d="M97.9,87.34h2.9l-1.44,4.13c-.47,1.32-.94,2.63-1.45,4.08h2.91c-1,2.83-1.93,5.51-2.92,8.31h2.91c-1,2.8-1.93,5.49-2.89,8.21l.93.12c.65,5.33,1.3,10.64,2,16.08h31.43V130H47.76V128.3h31.4c.66-5.43,1.31-10.74,2-16.09l.93-.15-2.87-8.16h2.91l-2.92-8.28h2.91l-2.91-8.27h2.91l-2.91-8.29h2.9l-2.91-8.28c.8,0,1.5,0,2.19,0a1,1,0,0,0,1.1-.66c.44-1,1-1.87,1.44-2.84a1.18,1.18,0,0,1,1.42-.83,7.66,7.66,0,0,0,1,0L85.09,56.1h2.15V52.35l-1.42-.08V50.48h3.25V44.71H90.9v5.77h3.25v1.8H92.73v3.77h2.15c-.39,3.51-.78,6.9-1.17,10.3.09,0,.17.11.23.1a2,2,0,0,1,2.54,1.61,10.59,10.59,0,0,0,1.13,2.16,1.32,1.32,0,0,0,.89.53,21.68,21.68,0,0,0,2.31,0L97.91,79h2.91C99.83,81.83,98.89,84.5,97.9,87.34ZM81,128.2h8.08v-4.74h1.83v4.74h8c-.58-4.76-1.15-9.45-1.73-14.17H82.75C82.18,118.76,81.6,123.45,81,128.2Zm.84-47.28a1.44,1.44,0,0,0,0,.41c.65,1.84,1.29,3.69,2,5.52a1,1,0,0,0,.73.46c3.56,0,7.13,0,10.69,0a.76.76,0,0,0,.85-.6c.54-1.59,1.11-3.17,1.67-4.75.11-.33.2-.67.32-1H91v2.2l1.3.08V85H87.71V83.22L89,83.13V80.92ZM98.2,72.68H91v2.18l1.3.11v1.7H87.72V75L89,74.86V72.7H81.79c.68,2,1.35,3.79,2,5.64a.92.92,0,0,0,1,.72c3.21,0,6.41,0,9.61,0,1.55,0,1.55,0,2.07-1.46S97.59,74.38,98.2,72.68ZM89,97.48H81.91a1.12,1.12,0,0,0,0,.3c.67,1.9,1.32,3.8,2,5.69a.9.9,0,0,0,.7.38c3.56,0,7.13,0,10.69,0a.8.8,0,0,0,.88-.67c.53-1.57,1.1-3.12,1.64-4.68.11-.32.2-.66.31-1H91v2.16l1.3.11v1.71H87.72V99.74L89,99.65Zm-7.25,8.28c.74,2.1,1.43,4.08,2.17,6,.06.18.49.31.75.32,3.51,0,7,0,10.53,0a.85.85,0,0,0,1-.67c.56-1.7,1.18-3.39,1.76-5.08a3.76,3.76,0,0,0,.14-.62H91v2.15l1.31.1v1.73H87.71V108l1.31-.1v-2.16ZM89,89.23H81.78c.74,2.09,1.44,4.09,2.17,6.08.06.15.41.26.62.27,3.6,0,7.2,0,10.79,0,.51,0,.68-.23.82-.64.45-1.3.92-2.58,1.37-3.88.21-.59.39-1.2.61-1.86H91v2.17l1.31.11v1.71H87.72V91.48L89,91.39Zm6.74-18.49c-.39-.77-.7-1.46-1.09-2.09a.91.91,0,0,0-.68-.33c-2.66,0-5.33,0-8,0a.87.87,0,0,0-.65.24c-.4.68-.74,1.4-1.14,2.19ZM87.16,58l.19,1.52h5.3L92.8,58Zm.46,3.47a4.15,4.15,0,0,1,0,.53c-.06.77.21,1.11,1,1,1-.07,2,0,3,0a1,1,0,0,0,.61-.56,2.87,2.87,0,0,0,0-1Zm.53,5h3.69L92,64.89H87.94Zm1-10.42h1.63V52.37H89.16Z"/><path d="M66.31,91.42a4.58,4.58,0,0,1,5.18,1.84,4.56,4.56,0,0,1-3.63,7.1c-1.79,0-3.59,0-5.45,0V98.53c1.8,0,3.58,0,5.37,0a2.72,2.72,0,0,0,.63-5.36,2.68,2.68,0,0,0-2.39.48c-.37.28-.76.54-1.27.91,0-1.79-.15-3.47-1.66-4.48a5.75,5.75,0,0,0-2.38-.87,3.16,3.16,0,0,0-3.17,1.37,20.31,20.31,0,0,0-1.46,3.3l-.84-.62a3.05,3.05,0,0,0-3.75-.11,3,3,0,0,0,2,5.38h2.92v1.81c-1.57-.06-3.19.3-4.76-.28a4.81,4.81,0,0,1-2.94-5.95,4.88,4.88,0,0,1,5.71-3.3L55,91A6.07,6.07,0,0,1,66.31,91.42Z"/><path d="M112.89,65.65V67.4a23.6,23.6,0,0,1-4,0,4.76,4.76,0,0,1-3.8-5.73A4.86,4.86,0,0,1,110.94,58c.48.1.69,0,.92-.38a5.59,5.59,0,0,1,5.36-3.14,5.7,5.7,0,0,1,5.35,3.7c.05.13.12.25.19.4a4.84,4.84,0,0,1,4.1.65,4.56,4.56,0,0,1-2.54,8.29h-5.44V65.65h1.38c1.32,0,2.64,0,4,0a2.7,2.7,0,0,0,2.6-1.89,2.73,2.73,0,0,0-.94-3,2.76,2.76,0,0,0-3.23-.07c-.43.29-.85.6-1.4,1,0-1.8-.14-3.49-1.66-4.49a5.38,5.38,0,0,0-2.56-.88c-2.29-.08-3.4,1.23-4.27,4.81-.47-.34-.89-.68-1.35-1a2.9,2.9,0,0,0-3.33.07,2.82,2.82,0,0,0-1.21,3.09,2.73,2.73,0,0,0,2.31,2.28,19.19,19.19,0,0,0,2.94.07Z"/><path d="M110.78,124.58V122.8c1.83,0,3.62,0,5.42,0a2.72,2.72,0,0,0,2.62-2.2,2.68,2.68,0,0,0-1.75-3.09,2.64,2.64,0,0,0-2.49.31c-.43.29-.85.6-1.39,1,0-.55-.08-1-.1-1.37a4.13,4.13,0,0,0-4-4,4.08,4.08,0,0,0-4.15,3.53c-.07.41-.15.82-.25,1.36l-.84-.6a7.15,7.15,0,0,0-1.15-.69c-1.17-.47-1.22-.53-1-1.92,0,0,0,0,.08,0a4.5,4.5,0,0,0,2.65-1.41,5.93,5.93,0,0,1,9.73,1.11c.16.3.28.61.44,1a4.74,4.74,0,0,1,4.73,1.19,4.46,4.46,0,0,1,1,4.9,4.37,4.37,0,0,1-4.11,2.85c-1.71.06-3.43,0-5.14,0A2.2,2.2,0,0,1,110.78,124.58Z"/><path d="M59.8,65.21a4.68,4.68,0,1,1,9.35.12,4.68,4.68,0,1,1-9.35-.12Zm1.84.08a2.84,2.84,0,0,0,2.82,2.85,2.88,2.88,0,0,0,2.85-2.85,2.83,2.83,0,0,0-2.88-2.87A2.8,2.8,0,0,0,61.64,65.29Z"/><path d="M60.31,70.61l-3,3-1.13-1.16,3-3Z"/><path d="M69.79,61,68.66,59.9l3-3,1,1.23Z"/><path d="M65.31,58.51H63.59V54.22h1.72Z"/><path d="M65.32,76.35H63.6V72.09h1.72Z"/><path d="M53.43,66.09v-1.7h4.28v1.7Z"/><path d="M71.23,66.11V64.39h4.25v1.72Z"/><path d="M56.14,58,57.25,57l3,3L59,61Z"/><path d="M72.83,72.57l-1.14,1-3-3,1-1.06Z"/><path d="M104.82,122.85v1.73h-3.07v-1.73Z"/><path d="M117.08,65.7v1.74h-2.41V65.7Z"/><path d="M58.14,100.32V98.6h2.44v1.72Z"/><path d="M106.55,124.59v-1.74H109v1.74Z"/><path d="M90,121.43a3.34,3.34,0,1,1,3.38-3.27A3.38,3.38,0,0,1,90,121.43Zm1.54-3.33a1.53,1.53,0,0,0-1.5-1.49,1.49,1.49,0,1,0,1.5,1.49Z"/></g></g></svg>