<svg xmlns="http://www.w3.org/2000/svg" viewBox="0 0 180 244.69"><defs><style>.cls-1{fill:#fffbf5;}.cls-2{font-size:36px;font-family:Roboto-Bold, Roboto;font-weight:700;}.cls-2,.cls-3{fill:#231815;}.cls-3{font-size:12px;font-family:PingFangTC-Medium-B5pc-H, PingFang TC;letter-spacing:0.02em;}</style></defs><title>5-2</title><g id="圖層_2" data-name="圖層 2"><g id="圖層_1-2" data-name="圖層 1"><rect class="cls-1" width="180" height="244.69"/><text class="cls-2" transform="translate(40.07 226.73)">Japan</text><text class="cls-3" transform="translate(77.7 192.03)">日本</text><path d="M104.56,44.71a5.85,5.85,0,0,1,2.76,3.22c1,2.57,1.75,5.2,2.65,7.79a5.59,5.59,0,0,0,1,1.82,18,18,0,0,1,4.72,10.32A17.25,17.25,0,0,1,112,80.34c-.49.64-1,1.24-1.62,1.92l1.33.63a11.7,11.7,0,0,1,5.46,15.53,1.44,1.44,0,0,0,.09,1.5,23.27,23.27,0,0,1,2.61,17.9c-1.34,5.8-5.2,9.12-10.92,10.3a19.38,19.38,0,0,1-9.48,0,26.8,26.8,0,0,1-2.74-1.24,1,1,0,0,0-.77,0,10.52,10.52,0,0,1-11.87,0l-.16,0c-2.25,2-5,2-7.85,1.77a22.39,22.39,0,0,1-7.78-1.73,12.11,12.11,0,0,1-7.46-10.18c-.56-4.61.36-9.07,1.56-13.48.47-1.73,1.17-3.4,1.72-5.11a.9.9,0,0,0-.17-.78,17.08,17.08,0,0,1-6.22-8,39,39,0,0,1-2.92-19.37c.35-3.54,1.6-6.7,4.64-8.84a8.28,8.28,0,0,1,7.81-1.31c.79-.93,1.61-1.85,2.35-2.82A4.55,4.55,0,0,0,70,55.73c.87-2.61,1.67-5.23,2.63-7.8a5.8,5.8,0,0,1,2.77-3.22h1.31a16.34,16.34,0,0,1,2.67,1.36c1.79,1.33,3.5,2.77,5.21,4.21a1.22,1.22,0,0,0,1.28.35,15.63,15.63,0,0,1,8.23,0,1.1,1.1,0,0,0,1.21-.31c2.41-2.22,4.82-4.43,8-5.61ZM92.25,97.65c.5-.8.94-1.64,1.51-2.38a.9.9,0,0,0,.12-1.16,4.45,4.45,0,0,0-7.52-.45c-1.74,2.41-.52,6,2.23,6.66.16-1,.16-1-.4-1.76a2.24,2.24,0,0,1,2.41-3.51c1.06.3,1.55,1.08,1.67,2.61-.58.94-1.39,1.81-.89,3.1H92Zm-1.68-11c1-.08,2.67-.15,4.32-.35a24.06,24.06,0,0,0,11.34-4.1,15.33,15.33,0,0,0,6.86-12.08c.24-4.54-1.63-8.25-4.64-11.5a3.39,3.39,0,0,1-.76-1.39,45.42,45.42,0,0,0-3-8.81c-.69-1.39-1-1.54-2.21-.63-2,1.52-4,3.16-5.91,4.79a1.46,1.46,0,0,0-.39.86,6.38,6.38,0,0,1-12.52.13,1.77,1.77,0,0,0-.38-.95c-2-1.64-3.93-3.29-6-4.81-1.23-.91-1.53-.75-2.21.63a1.45,1.45,0,0,0-.09.22c-.87,2.61-1.79,5.2-2.58,7.82a6.13,6.13,0,0,1-1.33,2.55c-3.61,4-5.19,8.55-3.94,13.87a15.85,15.85,0,0,0,8,10.29C79.74,85.88,84.76,86.59,90.57,86.7ZM66,62l-.61-.12a6.8,6.8,0,0,0-6.72,3.79,12.7,12.7,0,0,0-1.44,5.73,37,37,0,0,0,.49,8.73,30.49,30.49,0,0,0,3.88,11,11.6,11.6,0,0,0,3.75,3.92c.17-.4.3-.74.46-1.08.39-.87,1.1-1.22,1.82-.9A1.34,1.34,0,0,1,68.16,95c-.46,1.11-.94,2.21-1.4,3.32-2.23,5.5-3.8,11.16-3.51,17.16a9.68,9.68,0,0,0,6.31,9.13,22.26,22.26,0,0,0,10,1.37,7.75,7.75,0,0,0,2.28-.83c.56-.24.54-.65.29-1.14-.68-1.34-2.8-2.49-4.22-1.87a1.26,1.26,0,0,1-1.57-.3,1.27,1.27,0,0,1,.58-2.06c2.36-.93,4.37-.16,6.19,1.38a4.44,4.44,0,0,1,.55.77,4.61,4.61,0,0,0-3.27-5.72,24.26,24.26,0,0,0-3.32-.36,8,8,0,0,1-4.3-1.38,1.25,1.25,0,0,1-.35-1.86,1.31,1.31,0,0,1,1.89-.21c.47.28,1,.48,1.66.79-.17-1-.29-1.71-.45-2.45-.25-1.17-.56-2.33-.77-3.51a1.21,1.21,0,0,1,1-1.48,1.27,1.27,0,0,1,1.51.94,6.45,6.45,0,0,1,.16.63l1.3,6c.13,0,.31,0,.5,0s.36,0,.67-.05c-.47-5,.86-9.23,5.67-11.75a7.22,7.22,0,0,1-2.57-6c-.64-.08-1.21-.14-1.77-.23a17.49,17.49,0,0,1-7.86-3.24c-2.47-1.91-4.09-4.85-2.85-8.53a1,1,0,0,0-.3-.86,19,19,0,0,1-4.36-6c-.36-.81-.66-1.65-1-2.46A5.33,5.33,0,0,1,59.44,69a1.3,1.3,0,0,1,1.17-1.42A1.29,1.29,0,0,1,62,68.7c.05.27.07.54.12.81a2.52,2.52,0,0,0,2.2,2.08A17.23,17.23,0,0,1,66,62Zm32.2,62.85a14.07,14.07,0,0,0,2,.81,18.82,18.82,0,0,0,9.22-.38,10.16,10.16,0,0,0,7.72-7.37,21.25,21.25,0,0,0-.39-13c-.39-1.13-1-2.2-1.45-3.33a17.52,17.52,0,0,1-15.53,5.63l.51,6.9a35.83,35.83,0,0,0,4-.55c1.16-.28,1.41-1,1-2.12-.28-.88,0-1.55.71-1.81a1.31,1.31,0,0,1,1.72.94,4,4,0,0,1-1.82,5.12,7.9,7.9,0,0,1-3.79.86c-.67,0-1.33.06-2,.1v2.25c.65-.12,1.26-.27,1.88-.34a18.35,18.35,0,0,1,2-.08,1.14,1.14,0,0,1,1.19.93,1.17,1.17,0,0,1-.65,1.45,5.58,5.58,0,0,1-1.19.22c-1,.17-2,.3-2.95.55a1.69,1.69,0,0,0-.93.71C99,123.1,98.64,123.92,98.15,124.88Zm-1.64-22.17c.07-.28.14-.52.2-.75a5.27,5.27,0,0,1,4.51-3.84,1.29,1.29,0,0,1,1.35.71c.43.86-.06,1.62-1.17,1.86a2.71,2.71,0,0,0-2.25,2.93c.06.51.22.89.87,1a14,14,0,0,0,13-4.4,9.79,9.79,0,0,0,1.25-11.68,9.51,9.51,0,0,0-4.45-3.66c.43,3.78-1.42,6.2-4.32,8a18.08,18.08,0,0,1-6.87,2.48,4.48,4.48,0,0,0-3.79,3.07A3.27,3.27,0,0,0,96.51,102.71ZM85.66,124.82a7.7,7.7,0,0,0,4.78,1.24,7.27,7.27,0,0,0,7.08-7q.14-4.42,0-8.85a7.58,7.58,0,0,0-14.89-1.35,30.38,30.38,0,0,0-.24,5.06c0,.19.27.45.48.57a7.15,7.15,0,0,1,2.95,3.41.8.8,0,0,0,.9.58c2.27,0,4.53,0,6.8,0,1,0,1.49.43,1.53,1.21s-.52,1.35-1.48,1.38-2.08,0-3.11,0h-3.8Zm21.45-40c-4.74,3-10,4.16-15.52,4.49a7.61,7.61,0,0,1,4.47,3.43.8.8,0,0,0,.67.25,43.22,43.22,0,0,0,5.07-1.13,8.87,8.87,0,0,0,4.69-3.27A4,4,0,0,0,107.11,84.83ZM88.28,89.31c-5.51-.32-10.73-1.49-15.46-4.47A4.67,4.67,0,0,0,74.72,90,15.15,15.15,0,0,0,83.26,93a.78.78,0,0,0,.6-.25A7.69,7.69,0,0,1,88.28,89.31Zm5.3-36.17a14.61,14.61,0,0,0-6.8-.1c-.53.12-.49.4-.37.77a3.56,3.56,0,0,0,3.44,2.3C92.12,56.16,93.6,54.68,93.58,53.14Z"/><path d="M131.94,68.15a6.57,6.57,0,0,1-1.17.83,4.65,4.65,0,0,0-2.52,2.54c-.26.63-.63,1.19-1.4,1.19s-1.14-.57-1.4-1.2A4.45,4.45,0,0,0,122.92,69c-.63-.26-1.16-.61-1.15-1.42s.54-1.1,1.14-1.34a4.57,4.57,0,0,0,2.58-2.59,1.41,1.41,0,0,1,1.38-1.06,1.45,1.45,0,0,1,1.37,1.1,4.67,4.67,0,0,0,2.52,2.55,6.09,6.09,0,0,1,1.18.94Zm-5-1.51-1,1,.9.9,1-1Z"/><path d="M128.4,79a10.77,10.77,0,0,1-.94,1.18,2.73,2.73,0,0,1-.86.46,6,6,0,0,0-3.26,3.27,5.65,5.65,0,0,1-.5.94,1.28,1.28,0,0,1-2.14,0,1.82,1.82,0,0,1-.24-.43,6.94,6.94,0,0,0-4.09-4.09,1.33,1.33,0,0,1,0-2.56,7.06,7.06,0,0,0,4.14-4.16,1.36,1.36,0,0,1,2.53,0,7.31,7.31,0,0,0,4.19,4.23C127.65,78,128,78.53,128.4,79Zm-4.4.06-.4.42-1.82-2L120.14,79l1.92,2a4.06,4.06,0,0,1,.75-1C123.17,79.67,123.6,79.38,124,79.05Z"/><path d="M59.7,102.61c-.41.46-.65,1-1,1.13a6.88,6.88,0,0,0-3.77,3.76,1.23,1.23,0,0,1-2.34,0,7,7,0,0,0-3.76-3.78,1.58,1.58,0,0,1-.74-1.2,1.48,1.48,0,0,1,.73-1.12,7,7,0,0,0,3.76-3.77,1.26,1.26,0,0,1,2.33,0,7,7,0,0,0,3.84,3.82C59.09,101.61,59.31,102.13,59.7,102.61Zm-4.69,0-1.21-1.48-1.42,1.39,1.32,1.39Z"/><path d="M60.78,48.28c-.16.94-.47,1.43-1.22,1.51a10.84,10.84,0,0,0-6.31,3c-.21.18-.4.38-.61.54a1.31,1.31,0,0,1-1.78-.12,1.2,1.2,0,0,1,0-1.76,13.72,13.72,0,0,1,7.56-4.08,2.66,2.66,0,0,1,1.43,0C60.29,47.55,60.55,48,60.78,48.28Z"/><path d="M63.24,53.82a1.12,1.12,0,0,1-1.08,1,11.27,11.27,0,0,0-6.68,3.28c-.71.67-1.48.73-2,.19S53,57,53.7,56.27a13.66,13.66,0,0,1,7.89-3.94A1.36,1.36,0,0,1,63.24,53.82Z"/><path d="M91.94,75a3.44,3.44,0,0,0,2.92,1.54c1,.09,1.54.59,1.49,1.36s-.78,1.31-1.8,1.22A6.09,6.09,0,0,1,90,76.72a6,6,0,0,1-4.47,2.33,3.15,3.15,0,0,1-1,0,1.17,1.17,0,0,1-.93-1.35,1.22,1.22,0,0,1,1.18-1.14C86.72,76.29,87.22,76,88,75c-.25-.14-.51-.28-.75-.44a2.1,2.1,0,0,1,0-3.66,5.55,5.55,0,0,1,5.52,0,2.09,2.09,0,0,1,0,3.65C92.48,74.66,92.21,74.8,91.94,75Z"/><path d="M102.11,53.82c-.82.69-1.49,1.23-2.13,1.8s-1.45.73-2,.16a1.25,1.25,0,0,1,.24-2,22.13,22.13,0,0,1,3.21-2.34c1.4-.78,2.13-.47,2.84.93a10.24,10.24,0,0,1,1,5.17,1.13,1.13,0,0,1-1.15,1.15,1.15,1.15,0,0,1-1.34-1c-.13-.86-.18-1.73-.3-2.6A11.54,11.54,0,0,0,102.11,53.82Z"/><path d="M77.69,54c-.12.9-.25,1.81-.37,2.71a5.92,5.92,0,0,1-.16,1.13,1.14,1.14,0,0,1-1.35.8,1.11,1.11,0,0,1-1.08-1.05A9.67,9.67,0,0,1,75.92,52,1.52,1.52,0,0,1,78,51.19a10.28,10.28,0,0,1,4.07,2.94,1.18,1.18,0,0,1-.16,1.69,1.2,1.2,0,0,1-1.71,0c-.75-.62-1.47-1.27-2.21-1.91Z"/><path d="M86.19,67.66c0,1.23-1.08,1.87-1.92,1.36a11,11,0,0,0-8.06-1.11,1.26,1.26,0,0,1-1.48-1,1.23,1.23,0,0,1,.92-1.52c3.39-.69,6.68-.55,9.71,1.31A3.77,3.77,0,0,1,86.19,67.66Z"/><path d="M105.22,66.68a1.25,1.25,0,0,1-1.57,1.21,12.14,12.14,0,0,0-5.59.1,13.66,13.66,0,0,0-2.16.93A1.36,1.36,0,0,1,94,68.57a1.28,1.28,0,0,1,.6-1.86,12.47,12.47,0,0,1,8-1.59,11.9,11.9,0,0,1,1.69.27A1.22,1.22,0,0,1,105.22,66.68Z"/><path d="M106.52,76.2c0,1.14-.8,1.79-1.57,1.56-1.35-.41-2.69-.86-4-1.35a1.23,1.23,0,0,1-.73-1.61,1.25,1.25,0,0,1,1.57-.79c1.29.41,2.6.8,3.85,1.31C106.05,75.49,106.34,76,106.52,76.2Z"/><path d="M79.8,75.54c-.18.19-.46.71-.88.89-1.25.51-2.56.9-3.85,1.31a1.27,1.27,0,0,1-1.57-.8,1.18,1.18,0,0,1,.65-1.56c1.37-.52,2.76-1,4.16-1.41C79.05,73.76,79.78,74.43,79.8,75.54Z"/><path d="M104.7,70.13c.6,0,1.2,0,1.8,0a1.29,1.29,0,0,1,0,2.57q-1.92.06-3.84,0a1.29,1.29,0,1,1,0-2.58h2Z"/><path d="M75.31,70.13c.63,0,1.25,0,1.88,0a1.29,1.29,0,1,1,0,2.58q-1.92.06-3.84,0a1.29,1.29,0,1,1,0-2.57C74.05,70.11,74.68,70.13,75.31,70.13Z"/><path d="M90,108.3c1.2,0,2.41,0,3.61,0,.9,0,1.41.45,1.45,1.2a1.28,1.28,0,0,1-1.39,1.37q-3.69,0-7.37,0a1.27,1.27,0,0,1-1.41-1.35c0-.76.52-1.21,1.43-1.22C87.54,108.29,88.77,108.3,90,108.3Z"/><path d="M92.53,113.4c.44,0,.88,0,1.31,0a1.15,1.15,0,0,1,1.2,1.1,1.11,1.11,0,0,1-1,1.37,15.2,15.2,0,0,1-3.09,0,1.1,1.1,0,0,1-1-1.35,1.16,1.16,0,0,1,1.24-1.14C91.66,113.39,92.1,113.4,92.53,113.4Z"/><path d="M87.41,113.4a1.23,1.23,0,0,1,1.27,1.28A1.27,1.27,0,0,1,87.39,116a1.3,1.3,0,0,1-1.25-1.27A1.26,1.26,0,0,1,87.41,113.4Z"/><path d="M98.89,90.52a1.28,1.28,0,0,1-2.55,0,1.27,1.27,0,0,1,1.26-1.32A1.3,1.3,0,0,1,98.89,90.52Z"/><path d="M104,89.26a1.28,1.28,0,0,1-1.33,1.25,1.25,1.25,0,0,1-1.22-1.34A1.23,1.23,0,0,1,102.7,88,1.26,1.26,0,0,1,104,89.26Z"/><path d="M83.62,90.52a1.27,1.27,0,0,1-2.54-.07,1.27,1.27,0,1,1,2.54.07Z"/><path d="M78.52,89.25a1.25,1.25,0,0,1-1.31,1.26,1.28,1.28,0,0,1,0-2.55A1.24,1.24,0,0,1,78.52,89.25Z"/></g></g></svg>