<svg xmlns="http://www.w3.org/2000/svg" viewBox="0 0 180 244.69"><defs><style>.cls-1{fill:#fffbf5;}.cls-2{font-size:35px;font-family:Roboto-Bold, Roboto;font-weight:700;}.cls-2,.cls-3{fill:#231815;}.cls-3{font-size:12px;font-family:PingFangTC-Medium-B5pc-H, PingFang TC;letter-spacing:0.02em;}</style></defs><title>6-2</title><g id="圖層_2" data-name="圖層 2"><g id="圖層_1-2" data-name="圖層 1"><rect class="cls-1" width="180" height="244.69"/><text class="cls-2" transform="translate(19.17 224.58)">Germany</text><text class="cls-3" transform="translate(77.7 192.03)">德國</text><path d="M73.63,92.68c-2.74-.38-4-1.67-4.34-4.42a21.09,21.09,0,0,1-.13-2.38c0-2.26,1.48-3.86,4-4.35.11-1.34.18-2.7.34-4.06.38-3.28,1.16-6.41,3.5-8.93a3.71,3.71,0,0,1,.9-.83c.25-.13.62,0,.94,0,0,.31.12.78,0,.92-3.37,3.06-3.89,7.16-4.17,11.33-.11,1.72-.11,3.45-.15,5.18,0,.49-.1.91-.69.9s-.65-.41-.64-.87c0-.71,0-1.42,0-2.14a2.72,2.72,0,0,0-2.65,2.65,24.52,24.52,0,0,0,.18,3.2,2.83,2.83,0,0,0,2.7,2.35c-.08-.85-.15-1.69-.23-2.53,0-.46.09-.84.63-.87s.68.33.72.79a26.93,26.93,0,0,0,2.43,9.82A18.32,18.32,0,0,0,83,105.86a11.75,11.75,0,0,0,15-1.2,22.32,22.32,0,0,0,6.48-12.72c.16-.89.24-1.79.34-2.69,0-.47.24-.81.76-.78s.62.45.58.9L106,91.16a2.82,2.82,0,0,0,2.56-2.66A21.53,21.53,0,0,0,108.7,86a2.81,2.81,0,0,0-2.5-2.9c0,.77,0,1.52,0,2.27,0,.51-.1,1-.71,1s-.68-.52-.7-1c-.11-2.62-.16-5.26-.38-7.88a14.46,14.46,0,0,0-2.08-6.68c-1.83-2.88-4.66-4.11-7.88-4.65a33.37,33.37,0,0,0-13.2.67,1.73,1.73,0,0,1-1.2-.22,6.06,6.06,0,0,1-2.34-3c-.17-.46-.16-.84.32-1s.78.07.94.53a5.07,5.07,0,0,0,.34.75c.85,1.55,1.36,1.79,3.08,1.38A28.89,28.89,0,0,1,95.67,65c5.64,1.29,8.92,4.78,9.88,10.52.28,1.64.36,3.32.53,5,0,.35.06.7.08,1,2.85.75,4,2.33,3.84,5.22a14.44,14.44,0,0,1-.21,2.29,4.44,4.44,0,0,1-4.14,3.66,24.78,24.78,0,0,1-5.34,11.44,10.32,10.32,0,0,1,1.16,1.66,24,24,0,0,1,1.27,3.6,1.16,1.16,0,0,0,.77,1q7,2.79,13.92,5.62a10.41,10.41,0,0,1,6.86,9.73c.06,1,0,2,0,3,0,.45-.15.83-.69.83s-.68-.38-.7-.83a34,34,0,0,0-.23-4.75,8.29,8.29,0,0,0-5-6.39c-4.77-2-9.63-3.91-14.45-5.85a1.63,1.63,0,0,0-.3-.07,25.1,25.1,0,0,1-5.1,11.35A12.25,12.25,0,0,1,96,124.78c-.76.68-1.23.44-1.47-.55-.45-1.88-.91-3.77-1.53-5.6a7.39,7.39,0,0,0-1.44-2.36,1.83,1.83,0,0,0-3,0A10.54,10.54,0,0,0,86.34,121c-.3,1.08-.49,2.19-.71,3.29s-.7,1.2-1.47.54a19.29,19.29,0,0,1-4.42-6.08,18.16,18.16,0,0,1-2.36-7.13c-.27.09-.49.14-.7.22-4.62,1.86-9.27,3.65-13.84,5.61C59.11,119,57.34,122,57.23,126c0,.91,0,1.82,0,2.72,0,.26-.42.5-.65.74-.22-.23-.63-.46-.63-.69,0-2.16-.21-4.33.56-6.43a10.4,10.4,0,0,1,6-6.3q7-2.85,14-5.64a1.36,1.36,0,0,0,1-1.26,8.18,8.18,0,0,1,1.71-4c.25-.33.33-.55,0-.91A23.81,23.81,0,0,1,73.76,93,1.43,1.43,0,0,0,73.63,92.68Zm8.28,14.12c0,4,4.4,7.69,8.61,7.36,4.39-.33,8.3-4.36,7.74-8C93,110.12,87.56,110.46,81.91,106.8Zm13.9,16.36c.28-.31.47-.5.64-.7a26.62,26.62,0,0,0,4.62-8.72,9.14,9.14,0,0,0,.24-4.7,7.53,7.53,0,0,0-1.54-3.36c-.3,4.91-2.72,8-7.2,9.57C94.51,117.49,95.16,120.23,95.81,123.16Zm-11.46,0c.69-2.9,1.3-5.68,3.27-7.92-4.53-1.51-6.91-4.67-7.27-9.5a8.08,8.08,0,0,0-1.51,6.72,23.88,23.88,0,0,0,4.58,9.61C83.67,122.43,84,122.73,84.35,123.17Z"/><path d="M86.45,90.23c.2-1.49.35-2.9.6-4.3,0-.26.5-.45.76-.67.19.29.54.6.52.88-.07,1.09-.28,2.17-.39,3.26a1.78,1.78,0,1,0,3.51,0c-.09-1.06-.23-2.12-.38-3.17-.07-.49,0-.93.53-1s.74.34.8.82c.16,1.25.3,2.5.49,3.74a.74.74,0,0,0,.45.51,6.45,6.45,0,0,1,4.82,6.79,1,1,0,0,1-.75,1c-.89.24-1.78.54-2.69.72-.56.11-.78.29-.77.89a6.69,6.69,0,0,1-1.74,4.74c-1.62,1.81-3.43,1.85-5.08.08a6.41,6.41,0,0,1-1.78-4.72c0-.61-.1-.92-.81-1a23.81,23.81,0,0,1-2.46-.6,1,1,0,0,1-.84-1.12Q81.12,91.82,86.45,90.23Zm3.25,8c2.18-.4,4.33-.77,6.47-1.19a.94.94,0,0,0,.59-.59,4.82,4.82,0,0,0-4.11-4.88,1.09,1.09,0,0,0-.71.24,3.14,3.14,0,0,1-4.45,0,1.23,1.23,0,0,0-.85-.24,4.84,4.84,0,0,0-4,4.56c0,.53.12.82.66.91Zm-3,1a5.43,5.43,0,0,0,1.89,4.87,1.43,1.43,0,0,0,1.6.26,5,5,0,0,0,2.24-5.11l-2.16.19v2.25c0,.47-.12.84-.68.82s-.66-.38-.66-.85c0-.73,0-1.47,0-2.23Z"/><path d="M97.23,47.37a15.13,15.13,0,0,0-7.8,4.56,1.51,1.51,0,0,1-1.85.47c-5.64-1.92-11.33-2.41-17.07-.47-.62.21-1.21.48-2,.79.34.18.54.3.75.39,1.53.64,3.08,1.26,4.6,2,.3.13.5.49.74.75-.29.24-.55.61-.88.7a13.83,13.83,0,0,0-7,4,18,18,0,0,0-1.68,2.42,19.3,19.3,0,0,1-5.38,6.13,2.16,2.16,0,0,1-.86.45.94.94,0,0,1-.8-.32.88.88,0,0,1,.23-.82c2.82-1.68,4.55-4.3,6.17-7a12.73,12.73,0,0,1,6-5.09l1.37-.59c-1.65-.69-3.22-1.33-4.76-2-.31-.14-.78-.49-.75-.71a1.38,1.38,0,0,1,.68-.87,22.82,22.82,0,0,1,13.32-2.63A34.58,34.58,0,0,1,87.85,51a1.06,1.06,0,0,0,.87-.29A16.78,16.78,0,0,1,97.38,46a4.55,4.55,0,0,1,.73-.09c.79,0,1.1.35.78,1.08a5.57,5.57,0,0,0-.42,3.83c.07.23-.25.57-.39.85-.3-.17-.76-.26-.87-.51A5.14,5.14,0,0,1,97.23,47.37Z"/><path d="M113.35,55.2a20.93,20.93,0,0,0-7.46-1.94,27.17,27.17,0,0,0-9.2.79c-.46.12-.92.12-1.07-.44s.25-.76.72-.88c6.37-1.6,12.58-1.36,18.52,1.71.35.18.58.58.87.87a4.07,4.07,0,0,1-.94.79c-1.67.69-3.35,1.33-5.11,2,.93.44,1.81.81,2.64,1.26a10.55,10.55,0,0,1,5.32,6.08,11.4,11.4,0,0,0,4.7,5.86c1,.63.94,1.1-.08,1.63a6,6,0,0,1-5.46.2c-.27-.11-.38-.6-.56-.91.35-.11.76-.39,1-.29a5.22,5.22,0,0,0,3.62.1L119.74,71a12.76,12.76,0,0,1-3.43-5.25,7.9,7.9,0,0,0-3.7-4.54c-1.54-.86-3.23-1.45-4.83-2.19a5,5,0,0,1-.91-.69c.28-.29.49-.71.83-.85,1.59-.67,3.2-1.26,4.81-1.88C112.76,55.47,113,55.35,113.35,55.2Z"/><path d="M62,84.39c-1.8,0-3.6,0-5.4,0a1.25,1.25,0,0,1-.93-.43c-.1-.18.12-.66.31-.91a17.16,17.16,0,0,0,2.82-6.23,23.29,23.29,0,0,1,6.11-10.63c.36-.36.74-.9,1.29-.37s0,.92-.31,1.3c-.52.56-1,1.12-1.53,1.72a23.53,23.53,0,0,0-4.34,8.49c-.57,2-1.4,3.82-2.13,5.79l2.9.13c.93,0,1.86,0,2.79.09a1,1,0,0,1,.7.45.89.89,0,0,1-.22.78c-2,1.91-2.56,4.27-2.67,6.93A10.06,10.06,0,0,1,58,98.22c-.18.19-.65.08-1,.1,0-.36-.07-.84.12-1.06a10.4,10.4,0,0,0,2.71-4.72,27.15,27.15,0,0,0,.3-3,9.68,9.68,0,0,1,1.94-4.81Z"/><path d="M112.93,96.59c.32,1.32.7,2.6.94,3.9a7.26,7.26,0,0,1-.39,4c-.33.89-.75,1-1.45.39a10.62,10.62,0,0,0-6.76-2.81c-.14,0-.31,0-.4,0-.27-.2-.68-.43-.72-.69-.08-.51.35-.68.82-.66a11.83,11.83,0,0,1,5.06,1.23c.8.41,1.55.9,2.38,1.39a7.06,7.06,0,0,0-.18-4.2c-.44-1.34-1.09-2.62-1.59-3.95a1.58,1.58,0,0,1-.07-1.16c.33-.5.77-.1,1.12.15a16.13,16.13,0,0,0,6.12,2.7,17.65,17.65,0,0,1-.87-2.53,7.13,7.13,0,0,1-.08-2.52,7.12,7.12,0,0,0-1.33-5.9c-.29-.38-.64-.77-.13-1.19s.9,0,1.21.37a7.6,7.6,0,0,1,1.63,6.4,6.45,6.45,0,0,0,1.12,5,3.26,3.26,0,0,1,.41.61c.12.31.32.78.19.94a1.25,1.25,0,0,1-1,.34,17.12,17.12,0,0,1-5.71-1.7C113.16,96.68,113,96.64,112.93,96.59Z"/><path d="M89,70.31c4.41.08,7.94.85,11,3.11.18.13.34.27.51.41.39.32.71.7.3,1.17s-.79.19-1.15-.12A11.85,11.85,0,0,0,95,72.44a18,18,0,0,0-13.92,1.39,9.59,9.59,0,0,0-1.35.94c-.4.31-.82.7-1.27.19s0-.94.44-1.26a14.59,14.59,0,0,1,6.6-3C86.87,70.49,88.26,70.4,89,70.31Z"/><path d="M76.56,80.39a3.9,3.9,0,0,1,.06-.5c.67-3.11,4.89-5.21,7.78-3.88a2.09,2.09,0,0,1-1.15,4c-1.78-.23-1.87-.19-2.77,1.4a2.14,2.14,0,0,1-2.45,1A2.06,2.06,0,0,1,76.56,80.39Zm6-3.42a4.77,4.77,0,0,0-4.55,2.89c-.18.47-.3,1,.25,1.2s.91,0,1.13-.6a2.91,2.91,0,0,1,2.29-1.91c.52-.09,1.09.11,1.62.06.31,0,.59-.33.89-.5-.19-.31-.31-.75-.59-.91A2.85,2.85,0,0,0,82.6,77Z"/><path d="M96.94,75.6a6.08,6.08,0,0,1,5.62,3.86,2.14,2.14,0,0,1-1.07,2.83,2.1,2.1,0,0,1-2.8-1.14,1.79,1.79,0,0,0-2.33-1.23,2.1,2.1,0,1,1-.87-4.09C96,75.72,96.45,75.67,96.94,75.6Zm4.52,4.86c-.12-.34-.18-.55-.27-.75a4.59,4.59,0,0,0-5.35-2.58c-.5.13-.9.35-.78.94s.61.6,1.11.54a5.38,5.38,0,0,1,1.44,0,3.23,3.23,0,0,1,2.35,2,1.25,1.25,0,0,0,.94.51C101.08,81.06,101.3,80.64,101.46,80.46Z"/><path d="M66.29,102.59a22.94,22.94,0,0,1,2.23-.72,8.22,8.22,0,0,1,7.77,2.25c.35.34.59.72.2,1.13s-.78.18-1.14-.15c-2.9-2.57-5.88-2.81-9.25-.8a1.22,1.22,0,0,1-.95.18,1.07,1.07,0,0,1-.35-.89c.22-2.07.49-4.13.73-6.19.06-.51.2-1,.83-.86s.57.59.52,1C66.7,99.22,66.5,100.87,66.29,102.59Z"/><path d="M104.71,61.59c.58.17,1,.27,1.42.41,2.84,1,5.48,2.25,7.35,4.7a9.31,9.31,0,0,1,1.15,2.16c.08.21-.21.58-.32.87-.3-.12-.79-.16-.88-.36-1.56-3.69-4.82-5.11-8.29-6.25-.18-.06-.42,0-.54-.17s-.45-.52-.43-.76S104.54,61.76,104.71,61.59Z"/><path d="M61.54,100.74c.3-3.11.87-5.9,2.6-8.27a12.13,12.13,0,0,1,2.31-2.15c.16-.13.6.1.91.16-.07.32,0,.79-.23.91-2.21,1.44-3.09,3.69-3.69,6.08-.25,1-.35,2.1-.52,3.15-.07.46-.31.84-.8.69C61.84,101.23,61.65,100.86,61.54,100.74Z"/><path d="M122.36,85.12c0,.7-.52,1.07-1.06.79a18.09,18.09,0,0,1-3-1.73,25,25,0,0,1-5-5.55c-.29-.42-.47-.87,0-1.21s.85,0,1.14.44a23.2,23.2,0,0,0,5,5.51,24.87,24.87,0,0,0,2.19,1.26A4.59,4.59,0,0,1,122.36,85.12Z"/><path d="M89.65,66.9c1.6.3,3.17.58,4.74.89.48.1,1,.33.77.94s-.65.55-1.15.4a14.54,14.54,0,0,0-8.71,0c-.49.15-.89.11-1-.42s.26-.8.71-.89C86.5,67.47,88.05,67.19,89.65,66.9Z"/><path d="M88.89,59a10.92,10.92,0,0,1,6-1.52c.45,0,.85.1.85.64s-.39.69-.88.73a16.64,16.64,0,0,0-2.92.35,24.44,24.44,0,0,0-2.36,1c-.32.12-.9.17-1.06,0a29.75,29.75,0,0,1-2.16-2.73.63.63,0,0,1,.28-1c.49-.22.74.09,1,.49C88,57.63,88.43,58.28,88.89,59Z"/><path d="M82.48,86.85a2.39,2.39,0,1,1,2.36-2.4A2.35,2.35,0,0,1,82.48,86.85Zm0-3.44a1.06,1.06,0,1,0,1,1.09A1.15,1.15,0,0,0,82.48,83.41Z"/><path d="M96.71,86.85a2.32,2.32,0,0,1-2.34-2.43,2.36,2.36,0,0,1,2.37-2.34,2.42,2.42,0,0,1,2.41,2.4A2.4,2.4,0,0,1,96.71,86.85Zm-1-2.37a1,1,0,0,0,1,1,1.05,1.05,0,0,0,0-2.1A1,1,0,0,0,95.69,84.48Z"/><path d="M68.24,71.45c-.08.2-.17.4-.26.59-.75,1.61-1.48,3.23-2.29,4.81a1.3,1.3,0,0,1-.9.69c-.46,0-.64-.47-.43-.94C65.2,74.79,66,73,66.92,71.2a1.07,1.07,0,0,1,.78-.41,2.39,2.39,0,0,1,.84.31Z"/><path d="M120.14,79.7c-.17.19-.32.5-.48.51a1.17,1.17,0,0,1-.85-.28c-.6-.74-1.12-1.55-1.67-2.33l-1.71-2.42c-.29-.41-.52-.85,0-1.21s.81,0,1.08.39c1.1,1.57,2.21,3.13,3.3,4.71A4,4,0,0,1,120.14,79.7Z"/><path d="M67.74,127.9c-.17.16-.4.54-.61.52a1.07,1.07,0,0,1-.79-.53c-.27-.61-.39-1.3-.61-1.94-.34-1-.71-1.88-1.07-2.82-.18-.45-.24-.89.28-1.12s.81.12,1,.57c.57,1.62,1.12,3.24,1.68,4.86C67.63,127.54,67.66,127.64,67.74,127.9Z"/><path d="M99.88,89.64a3.22,3.22,0,0,1,3.18,3c0,.28-.38.55-.58.82-.24-.19-.67-.36-.71-.59a2.06,2.06,0,0,0-1.92-1.91c-.22,0-.59-.53-.54-.69S99.78,89.74,99.88,89.64Z"/><path d="M79.63,89.66c.11.11.53.36.51.59s-.4.63-.68.7a2,2,0,0,0-1.76,1.77c0,.27-.48.47-.73.7-.2-.3-.58-.62-.57-.91A3.12,3.12,0,0,1,79.63,89.66Z"/><path d="M112.92,124c.43-1.47.8-2.78,1.24-4.07.07-.2.62-.45.76-.37a1,1,0,0,1,.45.81c-.3,1.25-.66,2.48-1.07,3.7a1,1,0,0,1-.78.48C113.31,124.51,113.1,124.14,112.92,124Z"/><path d="M109.65,71.71a4.63,4.63,0,0,1,.65.53c.62.79,1.21,1.6,1.82,2.41.29.39.44.87-.05,1.11a1.09,1.09,0,0,1-1-.31,26.32,26.32,0,0,1-1.91-2.54,1.09,1.09,0,0,1,0-.82C109.15,71.94,109.43,71.86,109.65,71.71Z"/><path d="M112.1,128.74a17.63,17.63,0,0,1,.49-2.33.94.94,0,0,1,.78-.48.89.89,0,0,1,.51.68,13.32,13.32,0,0,1-.45,2.33c-.07.22-.57.54-.7.48A2.2,2.2,0,0,1,112.1,128.74Z"/></g></g></svg>