<svg xmlns="http://www.w3.org/2000/svg" viewBox="0 0 180 244.69"><defs><style>.cls-1{fill:#fffbf5;}.cls-2{font-size:36px;font-family:Roboto-Bold, Roboto;font-weight:700;}.cls-2,.cls-3{fill:#231815;}.cls-3{font-size:12px;font-family:PingFangTC-Medium-B5pc-H, PingFang TC;letter-spacing:0.02em;}</style></defs><title>7-2</title><g id="圖層_2" data-name="圖層 2"><g id="圖層_1-2" data-name="圖層 1"><rect class="cls-1" width="180" height="244.69"/><text class="cls-2" transform="translate(38.22 226.73)">Arabic</text><text class="cls-3" transform="translate(71.55 192.03)">阿拉伯</text><path d="M71,60.15a5.51,5.51,0,0,1-.88-1.66c-.07-.56.38-.69,2.31-.87a4,4,0,0,0,.08-.52c0-.19,0-.38,0-.65-.25,0-.49-.07-.73-.08-.65,0-1.13-.37-1-1,.07-.39.61-1,.88-1,1.32.15,1.59-.67,2-1.63,2-4.51,5.63-7.06,10.24-8.24A22.5,22.5,0,0,1,99,45.59a13.84,13.84,0,0,1,7.65,8.06,1,1,0,0,0,.68.59c.74.06,1.5.09,1.56,1s-.78,1.08-1.59,1.13l.19,1.16c.75.22,1.82-.19,2,.9.08.41-.35.9-.61,1.51,3.55,5.24,4.18,11.43,4.37,17.77a40.06,40.06,0,0,0,3.08,14.75,20.17,20.17,0,0,0,6.7,8.83,1.49,1.49,0,0,1,.62,1.68,1.24,1.24,0,0,0,.24,1,11.78,11.78,0,0,1,3.17,7.75c.14,4.12.15,8.26.2,12.39a15,15,0,0,1-.15,2.11,3.07,3.07,0,0,1-2.61,2.68,6.37,6.37,0,0,1-1.15.09H56.63a5.11,5.11,0,0,1-1.79-.26,3,3,0,0,1-2.1-2.94c.06-5.18.1-10.37.35-15.55A10.24,10.24,0,0,1,56,104c.21-.24.19-.68.29-1s.14-1.18.47-1.43c5.41-4,7.79-9.79,8.95-16.13A85.35,85.35,0,0,0,66.8,74.91C67.12,69.56,68.15,64.46,71,60.15Zm32.7,34.24c-9,6.27-18.07,7.2-27.23.23-.19.31-.33.57-.49.8-3,4.32-6.93,7.43-12.21,8.48a28,28,0,0,1-4.11.17,1.87,1.87,0,0,0-1,.3A9.35,9.35,0,0,0,55,111.51c-.13,4.55-.15,9.1-.19,13.65,0,1.38.39,1.77,1.77,1.77h10.1c.28,0,.55,0,.89-.06v-1.14c0-2.92,0-5.83,0-8.75,0-.75.09-1.52,1-1.54s1,.72,1,1.49c0,3,0,6,0,8.94v1h40.72v-9.73c0-.32-.08-.72.08-.94a1.58,1.58,0,0,1,1-.73c.29,0,.71.36.9.66a2.21,2.21,0,0,1,.1,1c0,2.88,0,5.77,0,8.65v1.11h10.79c1.67,0,2-.33,2-2,0-4.36-.06-8.72-.2-13.08a9.77,9.77,0,0,0-3.51-7.31,2.33,2.33,0,0,0-1.29-.42,42.27,42.27,0,0,1-5-.38c-3.52-.74-6.19-3-8.6-5.51A39.77,39.77,0,0,1,103.67,94.39Zm-44,7.7c1.33-.08,2.67-.09,4-.26,3-.38,5.18-2.26,7.44-4A13.48,13.48,0,0,0,75.76,91a24.31,24.31,0,0,0,.7-9.71,79.21,79.21,0,0,1,.47-18.4,1.59,1.59,0,0,1,.87-1.07,6.46,6.46,0,0,1,6,.57,1.15,1.15,0,0,0,1.29.08,10.34,10.34,0,0,1,9.35,0,1.46,1.46,0,0,0,1-.07c1-.38,1.9-.89,2.9-1.23a4.41,4.41,0,0,1,3.89.28,1.75,1.75,0,0,1,.79,1.16c.19,4.23.31,8.45.42,12.68.08,3.33,0,6.67.2,10,.36,6.93,3.39,12.3,9.62,15.66,2.22,1.2,4.61,1.24,7.18,1.12-.82-.89-1.56-1.6-2.2-2.39-4.15-5.13-5.92-11.2-6.67-17.61-.42-3.52-.43-7.1-.83-10.62a22.24,22.24,0,0,0-4-10.87,1.86,1.86,0,0,0-1.68-.84q-15,0-30,0a2,2,0,0,0-1.9,1A24.91,24.91,0,0,0,69,73.24c-.24,2.84-.26,5.7-.59,8.53C67.55,89.33,65.35,96.35,59.69,102.09Zm41.69-31.21h0c-.11-2.31-.2-4.61-.33-6.91-.05-1-.36-1.31-1.31-1a20.7,20.7,0,0,0-3.77,1.57,1.74,1.74,0,0,1-1.93,0,8.15,8.15,0,0,0-8.74.08,1.43,1.43,0,0,1-2-.12,4.55,4.55,0,0,0-3.75-1.09c-.52,0-.71.25-.74.77-.17,3.74-.41,7.48-.55,11.22a12.6,12.6,0,0,0,2.66,8,1.7,1.7,0,0,0,.69.62c2,.63,4.36.8,5.91-1.31a2.7,2.7,0,0,1,4.22-.1c1.55,2,3.48,2.16,5.67,1.51a2.55,2.55,0,0,0,1.24-.61A12,12,0,0,0,101.38,76C101.36,74.28,101.38,72.58,101.38,70.88Zm3.29-16.62a10.92,10.92,0,0,0-5-6,19.73,19.73,0,0,0-13-2.2,15.8,15.8,0,0,0-8,3.28,10.19,10.19,0,0,0-3.45,4.93ZM79,84.12l-.24.1a1.31,1.31,0,0,0-.06.27,23.35,23.35,0,0,1-1.2,7.73.94.94,0,0,0,.32.82,35.11,35.11,0,0,0,3.31,2.13,17,17,0,0,0,11.2,2,25.4,25.4,0,0,0,10.19-4.45c.47-.32.38-.62.28-1.06-.4-1.74-.78-3.48-1.09-5.24-.18-1-.21-2-.33-3.32-1.06,1.54-2,2.84-2.89,4.21a9.77,9.77,0,0,1-8.4,5.06c-4.7.15-8.49-2.22-10-6.27A17.21,17.21,0,0,0,79,84.12Zm17.64,2.27c-2.57.31-4.68-.26-6.28-2.27-.5-.64-1-.52-1.5.09a5.61,5.61,0,0,1-4.19,2.23c-.7.06-1.41,0-2.21,0,1.75,3,4.46,3.92,7.6,3.88A7.52,7.52,0,0,0,96.64,86.39Zm8.57-30H74.64v1.18H105.4Z"/></g></g></svg>