<svg xmlns="http://www.w3.org/2000/svg" viewBox="0 0 180 244.69"><defs><style>.cls-1{fill:#fffbf5;}.cls-2{font-size:36px;font-family:Roboto-Bold, Roboto;font-weight:700;}.cls-2,.cls-3{fill:#231815;}.cls-3{font-size:12px;font-family:PingFangTC-Medium-B5pc-H, PingFang TC;letter-spacing:0.02em;}</style></defs><title>8-2</title><g id="圖層_2" data-name="圖層 2"><g id="圖層_1-2" data-name="圖層 1"><rect class="cls-1" width="180" height="244.69"/><text class="cls-2" transform="translate(50.41 226.73)">India</text><text class="cls-3" transform="translate(78.19 192.03)">印度</text><path d="M89.46,42.82l2.12.5a17.51,17.51,0,0,1,13.36,14.91,45.4,45.4,0,0,1,.17,5.09c0,2.21,0,4.42,0,6.68h-2.7v-2c-1,.27-1.64.51-1.94,1.64a12.9,12.9,0,0,1-6.82,8.37c-.55.29-.76.6-.58,1.19.22.76.39,1.54.63,2.29a2.83,2.83,0,0,0,2.78,2.11c1.93.08,3.86,0,5.88,0V72.83h2.7V83.56c.72.16,1.35.26,2,.45a6.94,6.94,0,0,1,4.89,6.64c0,2.18,0,4.36,0,6.59h-2.71v-.78c0-1.85,0-3.69,0-5.53a4.28,4.28,0,0,0-4-4.48l-.71,9.69-2.73-.38.66-9.32h-1.29c-.38,2-.65,4-1.17,6-2.31,8.72-6.26,16.56-12.69,23a20.71,20.71,0,0,1-10.59,6.11c-.49.1-1,.18-1.51.27v5.31s.08.11.12.11c3,0,6,0,8.92-.15a9.14,9.14,0,0,0,5.7-2.75,5.88,5.88,0,0,0,.63-.88l2.06,2.13-1.71,1.56c4.9.48,8.43-.11,12.23-4.87a26.94,26.94,0,0,0,5.35-12.7c.45-2.67.5-5.41.71-8.11,0-.45,0-.9,0-1.39h2.71c0,.78,0,1.56,0,2.34a2.8,2.8,0,0,0,3.07,3.06c2.07,0,4.14,0,6.21,0a1.2,1.2,0,0,0,1.11-.56,8.12,8.12,0,0,1,6.88-3.57,1.93,1.93,0,0,1,1.79.88v8.51c-.11.31-.23.62-.34.94a6.76,6.76,0,0,1-6.43,4.67c-1.78,0-3.57,0-5.45,0V119H116v-2.61h-2.09c-.69,3.72-1.47,7.48-3.75,10.8H116v-5.35h2.75c0,2.34,0,4.65,0,7a1.18,1.18,0,0,1-1.18,1.13,5.17,5.17,0,0,1-.68,0h-52c-1.58,0-1.93-.36-1.93-1.95V96h2.7v21.67h6.83c0-1.78,0-3.56,0-5.34a.67.67,0,0,0-.35-.48,6.13,6.13,0,0,1-3.38-4.62,13.23,13.23,0,0,1,1-9.09,7.34,7.34,0,0,1,4.48-3.78c2.53-.8,5-1.78,7.49-2.68v-.22A13.5,13.5,0,0,1,79.81,91a26.57,26.57,0,0,1-3.88-1.85,5.37,5.37,0,0,1-1.65-2c-.31-.54-.56-.79-1.2-.75-1,.06-2,0-3,0a4.35,4.35,0,0,0-4.48,4.44c0,.76,0,1.52,0,2.32H63c-.89-5.18,1.73-9,6.69-9.54v-1q0-11.07,0-22.13A17.65,17.65,0,0,1,85,43a1.1,1.1,0,0,0,.37-.16Zm8.75,43.45a5.58,5.58,0,0,0-1.21.42A87.73,87.73,0,0,1,75.17,96.92a5.12,5.12,0,0,0-3.44,3.33,11.16,11.16,0,0,0-.41,6.19c.49,2.4,1.42,3.11,3.86,3.11h3.4a5.48,5.48,0,0,1,.61.06v2.69h-4V119c.63-.13,1.18-.22,1.72-.36a18.75,18.75,0,0,0,8.63-5.36A47.39,47.39,0,0,0,96.79,93.74,29.73,29.73,0,0,0,98.21,86.27ZM87.42,52.37c-1.24,1.72-3,2.33-4.76,3.11a27.74,27.74,0,0,0-4.82,2.94,3.29,3.29,0,0,0-1.25,2.1,42.71,42.71,0,0,0,.1,6.88,10.79,10.79,0,0,0,21.24,1c.44-2.25.23-4.62.4-6.93a3.81,3.81,0,0,0-1.52-3.33,15.25,15.25,0,0,0-5.13-2.93A8.37,8.37,0,0,1,87.42,52.37Zm14.79,6.73c-.14-5.76-5.52-13.63-15.06-13.53-7.6.07-15.09,7.13-14.5,13.55a1.42,1.42,0,0,0,1.86-.88,7.37,7.37,0,0,1,1.7-2.09,17.28,17.28,0,0,1,6.3-3.59,4.79,4.79,0,0,0,3.55-4.39,1.36,1.36,0,0,1,2.71,0,4.87,4.87,0,0,0,3.49,4.36,30.45,30.45,0,0,1,4.42,2.13,8.66,8.66,0,0,1,3.63,3.49A1.45,1.45,0,0,0,102.21,59.1Zm-29.72,9V83.67c2,0,3.91,0,5.84,0a2.84,2.84,0,0,0,2.79-2.1c.23-.75.4-1.52.63-2.28a.89.89,0,0,0-.56-1.2A13,13,0,0,1,74.41,70C74.09,68.88,73.65,68.23,72.49,68.09Zm12,11.39c-.63,4.08-2.3,7.28-7.39,7A8.64,8.64,0,0,0,79,87.77a21.2,21.2,0,0,0,7.89,1.34,1,1,0,0,0,.49-.12c2-1.07,4.08-2.16,6.29-3.34-2.55-1.47-2.83-4-3.43-6.17ZM128.25,104a22.6,22.6,0,0,0-2.63,1.37,3.09,3.09,0,0,0-1.46,3,23.35,23.35,0,0,1,0,2.51h-2.74v-2.61h-6.75l-.38,5.39c3.45,0,6.82.08,10.18,0a3.87,3.87,0,0,0,3.74-3.73C128.34,108,128.25,106.17,128.25,104Zm-26.08,23.25c.93,0,1.69,0,2.44,0a3.64,3.64,0,0,0,3.34-1.68,15,15,0,0,0,1.57-3c1.74-4.8,2.16-9.82,2.38-14.87,0-.08-.07-.16-.19-.38C110.54,115,108.23,121.93,102.17,127.25ZM72.4,124.57H65.68v2.62H72.4Zm0-4.07H65.66v1.26H72.4ZM73.77,62l-.21-.18c-.36.26-.85.46-1,.81-.39.78.4,2.45,1.25,2.85Zm27.5-.2-.16.23v3.54c.87-.7,1.55-2.18,1.21-2.88C102.14,62.27,101.63,62.05,101.27,61.76Z"/><path d="M93.94,124.13l-2.13-1.79A39.42,39.42,0,0,0,98,111a68.86,68.86,0,0,0,3.28-12.57l2.74.41C102.41,108,99.79,116.64,93.94,124.13Z"/><path d="M88.71,57.77h-2.6V55.12h2.6Z"/></g></g></svg>