<svg xmlns="http://www.w3.org/2000/svg" viewBox="0 0 180 244.69"><defs><style>.cls-1{fill:#fffbf5;}.cls-2{font-size:36px;font-family:Roboto-Bold, Roboto;font-weight:700;}.cls-2,.cls-4{fill:#231815;}.cls-3{letter-spacing:-0.02em;}.cls-4{font-size:12px;font-family:PingFangTC-Medium-B5pc-H, PingFang TC;letter-spacing:0.02em;}</style></defs><title>9-2</title><g id="圖層_2" data-name="圖層 2"><g id="圖層_1-2" data-name="圖層 1"><rect class="cls-1" width="180" height="244.69"/><text class="cls-2" transform="translate(42.99 226.73)"><tspan class="cls-3">K</tspan><tspan x="22.71" y="0">orea</tspan></text><text class="cls-4" transform="translate(77.7 192.03)">韓國</text><path d="M89.93,130.05H59.58c-1.73,0-2.21-.61-1.79-2.3L65.23,97.9c.87-3.49,3.5-7.14,9.31-7.79a25.07,25.07,0,0,0,4.58-.79,13.61,13.61,0,0,0,2.94-1.69,2.43,2.43,0,0,0,.6-4,15.33,15.33,0,0,1-3.9-6.28c-.23-.68-.57-.8-1.2-.79-2.19,0-3.93-1.11-4.27-3.14s-.75-4.09.38-5.82a6.38,6.38,0,0,0,.85-3.71,15.18,15.18,0,0,1,7.94-13.48A1,1,0,0,0,83,49.18a4.68,4.68,0,0,1,1.53-4.37,8.23,8.23,0,0,1,10.7-.15,4.89,4.89,0,0,1,1.68,4.82c0,.24.25.67.5.81A15.24,15.24,0,0,1,105.18,61c.29,1.51.18,3.09.32,4.64a2.54,2.54,0,0,0,.44,1.24,4.47,4.47,0,0,1,1,2.68c0,1,0,1.93,0,2.9a4.1,4.1,0,0,1-4.14,4.12,1.44,1.44,0,0,0-1.66,1.16A17.26,17.26,0,0,1,97,84.06a2.37,2.37,0,0,0,.28,3.11A16.56,16.56,0,0,0,100.12,89a14.56,14.56,0,0,0,3.13.72c1.21.23,2.43.35,3.63.61A9.7,9.7,0,0,1,114.76,98c2.53,10,5,20,7.48,29.93.37,1.5-.15,2.17-1.7,2.17Zm29.14-2.86c0-.26-.06-.49-.11-.71q-3.49-14-7-28a6.64,6.64,0,0,0-4.9-5.14c-2-.55-4.17-.78-6.3-1.16l-2.63,6.87h.69a4.83,4.83,0,0,1,5,4,20,20,0,0,1,0,6,5,5,0,0,1-6.23,3.9l-3.41-.81v15H103a75.22,75.22,0,0,0,2.53-21.07h2.3a4.7,4.7,0,0,1,.47,0,74.62,74.62,0,0,1-2.32,21ZM104.08,71v-.7c0-1.76-.41-2.16-2.19-2.16-1.51,0-1.66-.11-2.21-1.58a10.27,10.27,0,0,0-19.32-.17c-.66,1.74-.66,1.74-2.52,1.75-.12,0-.24,0-.35,0a1.46,1.46,0,0,0-1.56,1.54q0,1.27,0,2.55a1.46,1.46,0,0,0,1.55,1.54c.59,0,1.18,0,1.76,0,1.12,0,1.46.28,1.79,1.4a15.59,15.59,0,0,0,6.82,9.14,3.75,3.75,0,0,0,4.37,0,15.51,15.51,0,0,0,6.61-8.69c.55-1.76.62-1.81,2.45-1.82C103.9,73.74,104.08,73.57,104.08,71ZM74.59,111.81l.2,0,.31-.6a18.6,18.6,0,0,1,4.35-5.68,12,12,0,0,0,2.86-3.08,2.35,2.35,0,0,0,.13-2.63c-.08-.16-.13-.33-.2-.49l-3-7.13c-1.64.28-3.21.59-4.8.8-3.64.49-5.73,2.56-6.59,6.08C65.94,107,64,114.82,62,122.67c-.37,1.49-.75,3-1.13,4.51h11c.11-.72.23-1.38.32-2.05a23,23,0,0,0,.51-4.25c-.16-2.74-.67-5.46-.86-8.2-.14-2.15,0-4.32,0-6.5h2.8Zm5.56,15.39c0-3.19,0-6.32,0-9.45,0-3.28-.36-6.62,1-9.79a13.94,13.94,0,0,0-4.52,7.26c-.5,2.06-.75,4.19-1.07,6.3-.29,1.87-.53,3.75-.8,5.68Zm22.27-61.87c.76-7.1-5.23-14.5-11-13.86,0,1.66,0,3.33,0,5,0,.2.34.51.56.55a13,13,0,0,1,10,7.66A4.46,4.46,0,0,0,102.42,65.33Zm-25,.16a6.4,6.4,0,0,0,.42-.64A13,13,0,0,1,88.08,57c.19,0,.48-.29.49-.44,0-1.72,0-3.44,0-5.17A12.59,12.59,0,0,0,77.47,65.49Zm15.27,43.36c1.82.45,3.68.93,5.55,1.37a2.34,2.34,0,0,0,2.95-2.18,35.69,35.69,0,0,0,0-3.87,2.29,2.29,0,0,0-2.53-2.24c-2,.41-4,1-6,1.45Zm-1.37,18.34V111.27l-2.74.53v15.39Zm-5.63-15.37c-.44-.09-.84-.14-1.23-.26s-.78-.33-1.36-.58c-.41,5.48-.08,10.85-.21,16.19h2.8ZM86,86.72a8.51,8.51,0,0,0,.29,1.7c.48,1.19,1.06,2.34,1.6,3.51.74,1.61,1.49,3.21,2.28,4.94a4,4,0,0,0,.27-.48c1.18-2.74,2.37-5.47,3.5-8.23a4.59,4.59,0,0,0,0-1.59A7.25,7.25,0,0,1,86,86.72Zm4,19.51c0-2.8-.13-2.93-2.91-2.93H87c-2.41,0-2.64.23-2.64,2.67,0,2.85.12,3,3,3C89.79,108.94,90,108.72,90,106.23Zm-1.39-5.81L83.77,89.94l-1.86,1.23c1,2.4,2,4.74,3,7.08s1,2.36,3.56,2.22Zm3,.29c1-.26,1.9-.46,2.76-.71a.83.83,0,0,0,.46-.44C96,96.79,97,94,98.1,91.19L96.26,90ZM85.7,49A16.48,16.48,0,0,1,94.32,49a6.57,6.57,0,0,0-.38-1.45,5,5,0,0,0-7.86,0A5.74,5.74,0,0,0,85.7,49Z"/></g></g></svg>