<svg xmlns="http://www.w3.org/2000/svg" viewBox="0 0 180 244.69"><defs><style>.cls-1{fill:#080606;}.cls-2{fill:#d64632;}.cls-3{fill:#dde1d4;}</style></defs><title>資產 32</title><g id="圖層_2" data-name="圖層 2"><g id="圖層_1-2" data-name="圖層 1"><rect class="cls-1" width="180" height="244.69"/><circle class="cls-2" cx="90" cy="122.34" r="40.16"/><path class="cls-3" d="M68.72,121.77l-3,0a51.69,51.69,0,0,1,1.3-12.13c-2.23.44-3.31.68-5.37,1.22a33.67,33.67,0,0,0-1.65,11l-2.64,0c.15-10.43,2.52-15.4,9.3-22.33.68-.66,1-1,1.76-1.6A31,31,0,0,0,63,107.12c1.95-.72,3-1.05,5.09-1.64A41.86,41.86,0,0,1,72.39,95.1c.81-.5,1.23-.74,2.08-1.18A66.82,66.82,0,0,0,68.72,121.77Z"/><path class="cls-3" d="M82.48,107c-2.6.17-3.87.28-6.35.57-.41,3.5-.56,5.32-.73,9,3.06-.13,4.64-.18,7.86-.24,0,2.11-.05,3.18-.06,5.34-4.59,0-6.82,0-11.07,0a84,84,0,0,1,4.76-29,27.82,27.82,0,0,1,8-2.27c-.2,1.62-.29,2.46-.47,4.19a38.09,38.09,0,0,0-6.33,1.2c-.63,2.68-.91,4.09-1.38,7,2.36-.39,3.58-.55,6.06-.76C82.67,104.05,82.6,105,82.48,107Z"/><path class="cls-3" d="M89.31,116.31c3,0,4.57,0,7.52.06,0,2.11,0,3.18.06,5.34h-11c.13-10.49.28-21,1.06-31.44,1-.09,1.52-.12,2.55-.13C89.37,99.11,89.33,104.65,89.31,116.31Z"/><path class="cls-3" d="M102.56,116.53c2.86.1,4.25.17,6.94.32.12,1.94.16,2.92.17,4.91-3.94,0-6,0-10.28-.05-.3-10.37-.64-20.62-2.44-30.87,1,.21,1.45.32,2.4.6C101.4,100,102.15,105.31,102.56,116.53Z"/><path class="cls-3" d="M120.82,111.68a10.24,10.24,0,0,1,.12,7.35c-.84,2-2.24,3.21-4,3.2s-3.17-1.21-4.44-3.71a33,33,0,0,1-2.7-9.26c-.36-2.09-.57-3.12-1-5.09a31.46,31.46,0,0,1-1.15-7.3c0-1.5.5-1.68,1.68-.82a38.2,38.2,0,0,1,4.63,4.55,32,32,0,0,1,5.17,7A26.6,26.6,0,0,1,120.82,111.68Zm-4-5A20.58,20.58,0,0,0,114,102a10.39,10.39,0,0,0-2.65-2.6c-.73-.41-1-.15-1,.85a24.36,24.36,0,0,0,1,4.61,46.72,46.72,0,0,1,1.22,4.93,25.58,25.58,0,0,0,1.68,5.65c.71,1.5,1.51,2.28,2.46,2.35s1.64-.57,2-1.85a9.6,9.6,0,0,0-.35-4.89A32.23,32.23,0,0,0,116.77,106.64Z"/><path class="cls-3" d="M72.8,143.35l.06,0c-1.23-7.18-1.29-11.44-.45-20.43l3.08,0c-.6,9.68-1.39,19.35,1.18,28.86-.82-.36-1.23-.55-2-1A78.12,78.12,0,0,1,67.13,133h-.06c.24,7.36,1,10.64,3.78,15.61-.72-.51-1.08-.77-1.77-1.33-6.79-8.45-9.88-13.88-11.24-24.43l2.61,0c.87,7.64,2.28,11.46,5.78,18.24l.06,0c-2-6.14-2.16-10-1.15-18.23l2.16,0C68.49,131.43,69.84,135.7,72.8,143.35Z"/><path class="cls-3" d="M91.28,142.69a22.05,22.05,0,0,1-1.75,9c-1,2.22-2.23,3.19-3.76,3s-2.87-1.47-4.23-3.83a23.76,23.76,0,0,1-2.91-8.92c-.28-2.14-.41-3.25-.62-5.5a19.76,19.76,0,0,1,1.29-9.83c1.19-2.69,2.86-4.12,4.93-4.11s3.83,1.43,5.17,4.22A23.24,23.24,0,0,1,91.34,137C91.32,139.31,91.31,140.46,91.28,142.69Zm-3.22-5.77a18.62,18.62,0,0,0-1-6.41c-.68-1.71-1.59-2.58-2.73-2.6s-2,.82-2.57,2.47a16.51,16.51,0,0,0-.6,6.26c.15,2.32.25,3.46.46,5.66A18,18,0,0,0,83,148.12c.69,1.49,1.46,2.28,2.38,2.37s1.61-.55,2.1-2a17.11,17.11,0,0,0,.69-5.8C88.11,140.45,88.09,139.29,88.06,136.92Z"/><path class="cls-3" d="M97.24,142.7c-.4,4.87-.66,7.17-1.27,11.34-1,.17-1.48.24-2.49.35.89-10.46,1.06-20.92,1.21-31.41H101a4.69,4.69,0,0,1,4.27,2.57,11.68,11.68,0,0,1,1.09,6.91,12.74,12.74,0,0,1-1.06,4.17,9.24,9.24,0,0,1-2.11,3,2.72,2.72,0,0,1,1.42,2.27,11.25,11.25,0,0,1-.37,4.1c-.19.8-.29,1.19-.5,2s-.37,1.48-.51,2.21a3.62,3.62,0,0,0-.1,1.5L103,152c-.92.39-1.39.56-2.35.88a4,4,0,0,1,.07-1.73c.14-.88.3-1.73.48-2.56s.23-1.16.38-1.95a6.36,6.36,0,0,0,0-3.22,1.3,1.3,0,0,0-1.49-1C99,142.54,98.38,142.6,97.24,142.7Zm.35-4.82c1.08-.06,1.62-.11,2.68-.2a2.58,2.58,0,0,0,2-1.29,7.53,7.53,0,0,0,.92-3.41,7.18,7.18,0,0,0-.44-3.5,2,2,0,0,0-1.92-1.27l-2.88.08C97.9,132.24,97.81,134.18,97.59,137.88Z"/><path class="cls-3" d="M104.81,151.14a71.54,71.54,0,0,0,5.44-28.21l5.08,0c1.76,0,3.18,1.14,4.06,3.19a10.47,10.47,0,0,1,0,7.49,30.42,30.42,0,0,1-1.51,3.89,29.32,29.32,0,0,1-4.94,7.2,26.75,26.75,0,0,1-4.58,4.44A27.79,27.79,0,0,1,104.81,151.14Zm8.24-23.53c-.64,8.28-1.65,12.22-4.45,18.83.61-.27.91-.41,1.5-.71a8.7,8.7,0,0,0,2.71-2.6,19.21,19.21,0,0,0,2.69-4.78,35.08,35.08,0,0,0,1.37-4.17,9.26,9.26,0,0,0,.22-4.89c-.37-1.27-1.1-1.91-2.13-1.83Z"/></g></g></svg>