<svg xmlns="http://www.w3.org/2000/svg" xmlns:xlink="http://www.w3.org/1999/xlink" viewBox="0 0 180 244.76"><defs><style>.cls-1{fill:none;}.cls-2{fill:#253771;}.cls-3{fill:#080606;}.cls-4{isolation:isolate;}.cls-5{clip-path:url(#clip-path);}.cls-6{fill:#ed761b;}.cls-7{clip-path:url(#clip-path-2);}</style><clipPath id="clip-path"><path class="cls-1" d="M31.35,143.82a62.12,62.12,0,0,1-2.74-9.66c-.23-1.45-.64-3.36-.75-4.82s-.31-3.36-.36-4.8a46,46,0,0,1,0-4.84c.11-1.44.17-3.38.4-4.81a90,90,0,0,1,1.89-9.21c.39-1.38,1-3.21,1.49-4.56s1.26-3,1.8-4.31,1.53-3,2.21-4.33A40.6,40.6,0,0,1,38,88.08c1.6-2.19,3.85-5,5.62-7.09a63.08,63.08,0,0,1,7.21-6.67c1.13-.86,2.69-2,4.59-3.24a60.77,60.77,0,0,1,18.47-8c22.31-5.54,47.11,10.77,57.81,39.39,11.76,31.49,2,66-21.81,77,23.81-11,33.57-45.49,21.81-77C121,73.84,96.23,57.53,73.92,63.07a63.47,63.47,0,0,1,9.42-1.57,64.17,64.17,0,0,1,8-.17,58.36,58.36,0,0,1,9.09,1.1,59.7,59.7,0,0,1,9,2.51A61.28,61.28,0,0,1,118,68.82a61.09,61.09,0,0,1,15,11.53c1,1.05,2.27,2.5,3.18,3.63s2,2.7,2.88,3.86a64.91,64.91,0,0,1,4.88,8.55,52.44,52.44,0,0,1,2.82,7.12,75.28,75.28,0,0,1,2.29,9.6,60.8,60.8,0,0,1,.72,9.66A61.83,61.83,0,0,1,148,137c-.39,1.36-.85,3.17-1.29,4.51s-1.13,3.17-1.68,4.51a59.11,59.11,0,0,1-4.36,8.49c-.72,1.18-1.74,2.72-2.56,3.84s-2.22,2.85-3.21,4.05a51.11,51.11,0,0,1-4.73,4.92,62.18,62.18,0,0,1-6.25,5.06,64.78,64.78,0,0,1-8.33,4.94,58.83,58.83,0,0,1-6.12,2.6l-.87.31-.95.32c-.52.17-1.76.57-3.39,1-2.26.6-3.8.88-5.28,1.15a60.54,60.54,0,0,1-8.26.86,65.23,65.23,0,0,1-8-.26,47.37,47.37,0,0,1-5-.71c-1.39-.3-3.26-.67-4.64-1a45.13,45.13,0,0,1-4.42-1.36C62.85,178,62.85,178,60,176.43a61.59,61.59,0,0,1-15.13-11.32,60.39,60.39,0,0,1-6.16-7.4,41.51,41.51,0,0,1-3.11-4.88C34.17,150.19,32.45,146.59,31.35,143.82Z"/></clipPath><clipPath id="clip-path-2"><path class="cls-1" d="M103.31,181.77c-2.68.64-3.66.8-6,1.17-1.29.21-3,.36-4.32.48a60.83,60.83,0,0,1-8.43,0,46.18,46.18,0,0,1-6.32-.75,59.39,59.39,0,0,1-9.4-2.42c-1.37-.51-3.2-1.18-4.54-1.76s-3-1.36-4.21-2A61.42,61.42,0,0,1,38.7,157.75a55.36,55.36,0,0,1-5-8.45,41.27,41.27,0,0,1-2.35-5.48,84.48,84.48,0,0,1-2.72-9.56,58.77,58.77,0,0,1-1.13-9.72,75.34,75.34,0,0,1,.42-9.5,61.2,61.2,0,0,1,1.87-9.28A61.34,61.34,0,0,1,43.65,81c.84-.88,2-2.09,2.86-2.91s2.1-1.92,3-2.7,1.93-1.57,2.8-2.19c1.41-1,2.87-2,4.69-3.1A63.86,63.86,0,0,1,62.89,67c1.62-.76,3.72-1.6,4.88-2,1.39-.49,1.53-.54,2.35-.8.46-.15,1.88-.6,3.8-1.08a37,37,0,0,0-6.61,2.34,37,37,0,0,1,6.61-2.34h0a18.74,18.74,0,0,0,2-.45,61.6,61.6,0,0,1,13.78-1.34,50,50,0,0,1,5.74.37c1.34.2,3.14.42,4.48.68s3.47.71,4.93,1.14c2.66.78,6.13,2.08,8.71,3.12,1.36.55,3.07,1.52,4.38,2.17A43.91,43.91,0,0,1,122,71.22c1.19.77,2.69,1.89,3.84,2.71A60.59,60.59,0,0,1,139,87.8a58.22,58.22,0,0,1,4.89,8.55,61.23,61.23,0,0,1,3.53,9.43,59.63,59.63,0,0,1,2.15,12.14,60.65,60.65,0,0,1,0,9.6,56.19,56.19,0,0,1-1.53,9.37c-.39,1.37-.81,3.24-1.31,4.59-1,2.62-2.4,6.07-3.58,8.6a58.87,58.87,0,0,1-5,8.24,60.8,60.8,0,0,1-6.24,7.32,66.44,66.44,0,0,1-5.7,5,62.63,62.63,0,0,1-15,8.58A61.35,61.35,0,0,1,103.31,181.77Z"/></clipPath></defs><title>資產 35</title><g id="圖層_2" data-name="圖層 2"><g id="圖層_1-2" data-name="圖層 1"><rect class="cls-2" y="0.08" width="180" height="244.69"/><circle class="cls-3" cx="87.62" cy="61.17" r="61.17"/><circle class="cls-3" cx="87.62" cy="183.51" r="61.17"/><g class="cls-4"><g class="cls-4"><g class="cls-5"><path class="cls-6" d="M125,73.33a60.58,60.58,0,0,0-6.55-4.25c-2.26-1.22-2.26-1.22-3.45-1.79,2.14,1.12,5,2.67,7,3.93,5,3.57,5.14,3.63,7.53,5.78,1.29,1.26,3,2.92,4.27,4.24l-.71-.76A65.76,65.76,0,0,0,125,73.33"/></g></g><g class="cls-4"><g class="cls-7"><path class="cls-6" d="M47.9,124.63c-2.12.6-4.14,1.14-6,1.61a75.7,75.7,0,0,1-.59-18l-.45.11a72.81,72.81,0,0,1-7.62,1.57,65.7,65.7,0,0,0-.58,18.29,22.14,22.14,0,0,1-2.8.23A62.88,62.88,0,0,1,40.62,86.81a11.45,11.45,0,0,0,1.58-.13,62.32,62.32,0,0,0-7.5,16.68,69.37,69.37,0,0,0,7-1.45l.41-.1a60.94,60.94,0,0,1,5.32-16.22c1.08-.27,2.22-.58,3.43-.92-4.47,11.11-5.64,25.3-3,40"/><path class="cls-6" d="M79.89,114.11c-9,3.28-17.87,6.28-25.76,8.68-3.07-14.53-2.87-28.43.3-39.17,4.48-1.36,9.51-3.06,14.62-4.92.33,1.38.71,2.85,1.12,4.39-4.2,1.53-8.35,3-12.26,4.23a80,80,0,0,0-.17,9C61.76,95,66,93.54,70.3,92q.69,2.72,1.48,5.59c-4.67,1.68-9.28,3.26-13.65,4.68.35,3.75.92,7.67,1.7,11.67,5.71-1.85,11.77-3.94,17.89-6.17q1.05,3.12,2.17,6.35"/><path class="cls-6" d="M109.42,102.48c-7.71,3.3-16.18,6.67-24.68,9.85C79.58,98.5,75,86.23,71.84,77.67c1.5-.56,3-1.13,4.48-1.71A243.43,243.43,0,0,1,90,103.15c5.58-2.17,11-4.4,16.17-6.59,1.12,1.91,2.22,3.89,3.27,5.92"/><path class="cls-6" d="M131.39,92q-4.54,2.58-12.1,6.08c-1.86.87-3.81,1.74-5.81,2.63-7.11-13-16.16-23.5-25.3-29.65,1.14-.5,2.24-1,3.3-1.49l.48-.22C100.85,74,109.43,81.9,116.44,92q6.7-3.14,10.85-5.48,2.16,2.64,4.1,5.52"/><path class="cls-6" d="M125.47,73.94c5.25,4,8.68,8,8,9.15-1.23.74-4.61-1.91-10.46-6.66a65.27,65.27,0,0,0-6.43-4.58c-9.63-6-9.63-6-8.74-6.31.36-.14,3.69,0,11,4a62.28,62.28,0,0,1,6.65,4.35M122,71.22c-2.06-1.24-4.85-2.83-7-3.93l-1.47-.68C105.8,63.3,101.5,63,101,63.88c.11.73.11.73,13.12,9.51a66.53,66.53,0,0,1,6.12,4.68C137.66,93,138,88.28,138,87.69c0-1.38-2.27-5-8.45-10.69-4.51-3.75-5.2-4.33-7.53-5.78"/><path class="cls-6" d="M79.92,165.64c-1.67.54-3.3,1-4.88,1.53a103.58,103.58,0,0,1-17.82-17.6l-.12,0c1.68,5.83,3.59,12.44,9.11,20.08l-2.13.55-1.72.41c-5.56-4.14-17.11-12.77-24.72-29.78,1.17-.21,2.47-.48,3.91-.8A76.9,76.9,0,0,0,57,162.14h.1c-2.58-5.39-5.25-11-7.16-24.22l4.19-1.2A107.74,107.74,0,0,0,70.92,158.2l.12,0c-2.1-5.59-4.27-11.36-6.52-24.65q3.17-1,6.45-2.14c1.26,8.44,3.36,22.55,9,34.26"/><path class="cls-6" d="M103.15,143.48c1.62,5.49.28,9.19-4,11-5.45,1.75-8.62-2.13-10.31-5.69-.85-1.93-1.69-3.93-2.55-6-4.06-10.8,4.72-14.39,9.56-12,3.35,1.67,4.7,5.18,5.21,6.5q1.09,3.17,2.09,6.16m6.51-2.59c-.57-2-1.2-4.07-1.86-6.17-2.81-7.68-9.93-14.14-21.51-9.27-7.47,4-10,11.37-6.68,19.73q1.35,3,2.72,5.85c7.63,14.12,24.15,9.27,27.39-1.58a15.13,15.13,0,0,0-.06-8.56"/><path class="cls-6" d="M128.59,122.27c.89,4.49-2.44,6.09-3.69,6.7-1.71.75-3.45,1.51-5.24,2.27-.88-3.45-2-7-3.22-10.59q2.81-1.2,5.48-2.38c4.74-1.89,6.21,1.7,6.67,4m8.4,20.92c0-.16,0-.32,0-.49-.28-.38-.76-1-.76-4.74,0-.84,0-1.69,0-2.55-.35-6.58-3.47-6.52-5-6.49,6.12-7.57.75-18.23-6.76-17.69a14.81,14.81,0,0,0-4.77,1.3c-3.8,1.68-7.83,3.39-12,5.1.39,1,.77,2,1.14,3A151.08,151.08,0,0,1,117.25,152c1.86-.76,3.69-1.53,5.47-2.29a95.57,95.57,0,0,0-1.8-13.05c1.91-.82,3.78-1.63,5.59-2.43,2.94-1.17,4.55,0,4.91,3.55q.08,1.22.12,2.4c.18,4.31.51,4.65,1,5.16,1.6-.74,3.08-1.46,4.44-2.13"/><path class="cls-6" d="M147.78,122.48c.17,5.69-.83,9.91-2.69,11.29-.55.34-1.16.69-1.81,1.07a65.35,65.35,0,0,0-3.16-25.46q1.11-.63,2-1.2c2.48-1.19,4.2,3.37,5,8q.47,3.15.62,6.26m1.37-1.18a57.62,57.62,0,0,0-.58-6.25c-1.19-7.19-4.11-14.83-8.42-12.69q-2.37,1.45-5.94,3.32c.41,1,.8,2,1.17,3A68.54,68.54,0,0,1,139.44,142c2-1,3.67-2,5-2.8,3.55-2.61,4.93-10.85,4.72-17.85"/><path class="cls-6" d="M78.07,179l-.48.12c-.51.13-1,.25-1.46.35a48.53,48.53,0,0,1-5.68-2.84l.65-.15a51.87,51.87,0,0,0,4.73,2.46l.89-.21.49-.13.86.4"/><path class="cls-6" d="M80.81,178.25l-2.27.6a48.23,48.23,0,0,1-5.35-2.92c.82-.22,1.68-.44,2.57-.69.25.18.51.35.77.52l-1.8.48L76,177l1.5-.4.78.46-1.47.39c.5.28,1,.54,1.51.8l1.66-.45.79.42"/><path class="cls-6" d="M80.34,176.81l-1.41-1.36h0l2.34,1.1-1,.27m3.16.67.74-.22c-1.81-.78-4.22-1.86-6-2.72l-.83.24c1.06,1.06,2.49,2.45,3.65,3.4l.7-.2-.82-.66,1.29-.37,1.27.53"/><path class="cls-6" d="M83.88,174.38c.46.42,0,.57-.16.63l-.71.21c-.42-.31-.85-.64-1.27-1l.74-.23a1.47,1.47,0,0,1,1.4.36m3.87,1.81,0,0a2.34,2.34,0,0,1-.84-.4l-.31-.23a2.43,2.43,0,0,0-1.66-.54c.59-.81-1.21-1.87-2.7-1.59l-.38.09L80.2,174a45.07,45.07,0,0,0,4.51,3.16l.76-.22c-.6-.38-1.19-.77-1.78-1.19l.77-.23a1.55,1.55,0,0,1,1.3.3l.3.21a2.06,2.06,0,0,0,.9.45l.79-.25"/><path class="cls-6" d="M91.66,174.94l-.82.27c-1.28-.51-3-1.17-4.29-1.69h0c.88.79,1.77,1.53,2.66,2.2l-.8.26a45.64,45.64,0,0,1-4-3.32l.9-.29c1.3.55,3,1.29,4.35,1.82h0c-.84-.75-1.67-1.56-2.51-2.42.31-.09.62-.2.92-.3a47.81,47.81,0,0,0,3.57,3.46"/><path class="cls-6" d="M97.58,172.94l-.85.29c-.39-.46-.78-.95-1.18-1.45l-1.83.63q.65.74,1.29,1.41l-.84.29q-1.61-1.62-3.22-3.58l1-.32c.45.57.9,1.12,1.35,1.64l1.86-.64c-.41-.53-.83-1.09-1.25-1.67l1-.33c.93,1.35,1.85,2.6,2.75,3.73"/><path class="cls-6" d="M100.22,170.17c.54,1-.14,1.26-.36,1.35a1.39,1.39,0,0,1-1.62-.65l-.45-.69c-.78-1.28.51-1.61,1.07-1.47a1.57,1.57,0,0,1,1,.75l.41.71m.92-.33-.39-.72a2.42,2.42,0,0,0-3.21-.93,1.46,1.46,0,0,0-.68,2.32l.48.68c1.36,1.76,3.81,1.05,4-.34a1.67,1.67,0,0,0-.22-1"/><path class="cls-6" d="M106.74,169.63l-.8.3c-.58-.7-1.33-1.64-1.91-2.34h0c.09.88.2,2.05.31,2.93l-.81.29-3.09-3.6,1-.35,2,2.58h0c-.11-.95-.27-2.22-.37-3.18l.72-.27c.61.77,1.43,1.8,2,2.57h0c-.12-1-.28-2.23-.39-3.19l1-.36c.1,1.38.23,3.23.34,4.62"/><path class="cls-6" d="M112.52,163.43l-1.35.53q.39,2,.66,3.72L111,168c-.22-1.16-.47-2.39-.76-3.69l-1.36.53c-.06-.24-.12-.48-.19-.72l3.74-1.45.12.74"/><path class="cls-6" d="M116.09,164.12a1.62,1.62,0,0,1-.9,1.61c-.22.08-.9.31-1-.83l-.09-.82c-.12-1.54,1.19-2,1.67-1.62a1.18,1.18,0,0,1,.32.82c0,.28,0,.57,0,.84m.89-.35c0-.28,0-.57,0-.86-.09-1.34-1-1.77-2.32-1.17a2.71,2.71,0,0,0-1.5,2.7c0,.28.07.55.11.82.33,2,2.26,1.37,3.11.28a2.88,2.88,0,0,0,.62-1.77"/><path class="cls-6" d="M122.52,162.28c-.35,1.51-2.49,2.5-3,1.7a1.12,1.12,0,0,1-.13-.72l.83-.35c0,1.14,1.2.21,1.21.2.21-.19.72-1-.07-1.07A5.68,5.68,0,0,1,120,162a.6.6,0,0,1-.42-.43,2,2,0,0,1,.86-2,3.2,3.2,0,0,1,.83-.5c1.67-.64,1.59.77,1.53.89l-.85.36c0-.9-.86-.48-1.18-.16,0,0-.9,1,.21,1.05s1.19,0,1.34.15a.92.92,0,0,1,.19,1"/><path class="cls-6" d="M124.38,160.83l.85-2.26h0l.15,1.82-1,.45m1,1.24.76-.34c0-1.39-.14-3.24-.32-4.62l-.89.39c-.64,1.73-1.52,4-2.22,5.73l.79-.35.49-1.17,1.39-.61v1"/><path class="cls-6" d="M128.86,158.94c-.18.62-.37,1.23-.58,1.83l-.72.33c.2-.61.38-1.24.56-1.88-.18-.85-.39-2-.63-2.83l.93-.42.33,2.13h0l1.46-2.94.41-.19.47-.22c-.67,1.26-1.7,2.88-2.25,4.2"/><path class="cls-6" d="M133.67,158.2l-.58.29c.34-.76.66-1.53,1-2.32l-1.3.64c-.28.77-.57,1.53-.89,2.28l-.63.31a46.34,46.34,0,0,0,1.85-5.59l.72-.35c-.23.84-.48,1.67-.75,2.48l1.32-.65c.3-.82.57-1.66.83-2.51l.65-.33a50.56,50.56,0,0,1-2.18,5.75"/><path class="cls-6" d="M136,157l-1.73.91a51.56,51.56,0,0,0,2.27-5.79l2-1c-.12.32-.23.64-.35.95l-1.34.71c-.17.5-.36,1-.55,1.49l1.13-.59c-.13.3-.26.6-.38.9l-1.11.59c-.22.55-.46,1.09-.7,1.63l1.23-.65c-.14.3-.29.59-.44.89"/><path class="cls-6" d="M137.75,156c-.42.25-.88.51-1.37.78a51.74,51.74,0,0,0,2.56-5.95l.51-.28a51,51,0,0,1-2.17,5.08c.33-.18.65-.36.94-.54-.15.31-.31.61-.47.91"/><path class="cls-6" d="M139.15,155.15l-1.11.68a52.08,52.08,0,0,0,2.78-6.07l.42-.25a51.55,51.55,0,0,1-2.35,5.18l.76-.47c-.16.31-.33.62-.5.93"/><path class="cls-6" d="M141.48,152a7.83,7.83,0,0,1-1.15,1.86l0,0h0a5.73,5.73,0,0,1,.61-1.44c.19-.38.37-.75.54-1.12.81-1.72,1-1.93,1.14-1.94s.09.19-.52,1.5c-.18.38-.37.76-.56,1.13m.25-.18.56-1.14c.93-2,.87-2.39.7-2.32a.51.51,0,0,0-.13.09,12.81,12.81,0,0,0-1.75,3.07c-.18.37-.35.74-.54,1.11a8.23,8.23,0,0,0-.87,2.19c.3,0,1.39-1.76,2-3"/></g></g></g></g></g></svg>