<svg xmlns="http://www.w3.org/2000/svg" xmlns:xlink="http://www.w3.org/1999/xlink" viewBox="0 0 180 244.76"><defs><style>.cls-1{fill:none;}.cls-2{fill:#ddd;}.cls-3{fill:#3697d4;}.cls-4{isolation:isolate;}.cls-5{clip-path:url(#clip-path);}.cls-6{fill:#ee761c;}.cls-7{clip-path:url(#clip-path-2);}</style><clipPath id="clip-path"><path class="cls-1" d="M31.37,143.82a63.25,63.25,0,0,1-2.74-9.66c-.23-1.45-.64-3.36-.75-4.82s-.3-3.36-.35-4.8-.09-3.39,0-4.84.18-3.38.41-4.8a87,87,0,0,1,1.88-9.22c.4-1.38,1-3.21,1.5-4.56s1.25-3,1.79-4.3,1.53-3,2.21-4.34a39.52,39.52,0,0,1,2.71-4.39c1.6-2.2,3.85-5,5.62-7.09a62.17,62.17,0,0,1,7.21-6.67c1.13-.87,2.69-2,4.59-3.25a62.56,62.56,0,0,1,6.08-3.46,60.86,60.86,0,0,1,12.39-4.54c22.31-5.55,47.11,10.76,57.8,39.38,11.76,31.49,2,66-21.8,77,23.8-11,33.56-45.49,21.8-77-10.69-28.62-35.49-44.93-57.8-39.38a61,61,0,0,1,17.39-1.74A60.84,60.84,0,0,1,109.46,65,61.77,61.77,0,0,1,118,68.82a62,62,0,0,1,15,11.53c1,1.06,2.27,2.51,3.18,3.63s2,2.7,2.88,3.87A63.64,63.64,0,0,1,144,96.4a51.93,51.93,0,0,1,2.82,7.12,75.54,75.54,0,0,1,2.29,9.59,60.89,60.89,0,0,1,.72,9.66A61.58,61.58,0,0,1,148,137c-.39,1.35-.85,3.17-1.29,4.5S145.6,144.66,145,146a60.09,60.09,0,0,1-4.35,8.49c-.73,1.18-1.75,2.72-2.57,3.84s-2.22,2.86-3.2,4.06a52.3,52.3,0,0,1-4.74,4.91,58.48,58.48,0,0,1-6.24,5.06,65.1,65.1,0,0,1-8.34,4.94,61.9,61.9,0,0,1-6.12,2.61h0l-1.33.46c-.51.18-1,.35-1.58.51A59.74,59.74,0,0,1,99,182.68a60.35,60.35,0,0,1-8.26.86,65.23,65.23,0,0,1-8-.26,47.71,47.71,0,0,1-5-.7c-1.39-.31-3.26-.68-4.64-1a45.13,45.13,0,0,1-4.42-1.36C62.88,178,62.88,178,60,176.42a60.78,60.78,0,0,1-8-5,61.73,61.73,0,0,1-7.14-6.26,60.09,60.09,0,0,1-6.16-7.4,40.82,40.82,0,0,1-3.11-4.89C34.2,150.18,32.47,146.59,31.37,143.82Z"/></clipPath><clipPath id="clip-path-2"><path class="cls-1" d="M103.33,181.77c-2.68.64-3.65.8-6,1.18-1.29.2-3,.35-4.31.47a62.59,62.59,0,0,1-8.44,0,47.82,47.82,0,0,1-6.32-.76,59.39,59.39,0,0,1-9.4-2.42c-1.37-.51-3.2-1.18-4.54-1.76s-3-1.36-4.2-2a58.39,58.39,0,0,1-8-5.06,60.89,60.89,0,0,1-13.34-13.67,56.09,56.09,0,0,1-5-8.45,42,42,0,0,1-2.35-5.48,88.86,88.86,0,0,1-2.72-9.56,59.37,59.37,0,0,1-1.12-9.72,77.25,77.25,0,0,1,.41-9.5,60.75,60.75,0,0,1,1.88-9.28,60,60,0,0,1,3.26-8.83A60.62,60.62,0,0,1,43.67,81c.84-.89,1.95-2.1,2.86-2.91s2.1-1.93,3-2.71,1.93-1.57,2.8-2.18c1.41-1,2.87-2,4.69-3.11,1.41-.83,3.16-1.86,5.85-3.13,1.62-.76,3.72-1.6,4.88-2s1.53-.54,2.35-.8c1.25-.39,2.53-.76,3.8-1.07a36.93,36.93,0,0,0-6.61,2.33,36.93,36.93,0,0,1,6.61-2.33c1.21-.28,2.83-.65,4-.86s3.07-.47,4.39-.62a61,61,0,0,1,7.31-.32c1.72.09,4,.2,5.73.38,1.36.13,3.15.42,4.48.67a59.39,59.39,0,0,1,9.34,2.54c1.37.52,3.18,1.22,4.51,1.82s3,1.4,4.18,2.07a59.83,59.83,0,0,1,7.95,5.18A57.92,57.92,0,0,1,133,80.31a55.15,55.15,0,0,1,6.07,7.5,59.54,59.54,0,0,1,4.89,8.54,61.48,61.48,0,0,1,3.53,9.44,50.82,50.82,0,0,1,1.6,7.32c.39,2.86.64,6.72.72,9.61A62.25,62.25,0,0,1,148,136.89c-.38,1.35-.85,3.17-1.28,4.51s-1.11,3.14-1.66,4.46a58,58,0,0,1-4.26,8.38,46.54,46.54,0,0,1-2.71,4.08c-1.64,2.11-3.92,4.86-5.74,6.83a43.82,43.82,0,0,1-3.28,3.11c-1.39,1.2-3.3,2.74-4.79,3.82a63.06,63.06,0,0,1-10,5.81c-2.53,1.17-4.51,1.88-4.88,2-1.3.46-1.53.54-2.34.8C105.05,181.36,103.4,181.76,103.33,181.77Z"/></clipPath></defs><title>back_5</title><g id="圖層_2" data-name="圖層 2"><g id="圖層_1-2" data-name="圖層 1"><rect class="cls-2" y="0.08" width="180" height="244.69"/><circle class="cls-3" cx="87.62" cy="61.17" r="61.17"/><circle class="cls-3" cx="87.62" cy="183.51" r="61.17"/><g class="cls-4"><g class="cls-4"><g class="cls-5"><path class="cls-6" d="M125,73.34a61.2,61.2,0,0,0-6.55-4.26c-2.27-1.23-2.27-1.23-3.49-1.81,2.15,1.13,5,2.69,7,4,5,3.57,5.13,3.64,7.52,5.78,1.3,1.27,3.06,3,4.3,4.28l-.74-.79A65,65,0,0,0,125,73.34"/></g></g><g class="cls-4"><g class="cls-7"><path class="cls-6" d="M47.93,124.63c-2.12.6-4.14,1.14-6,1.62a75.87,75.87,0,0,1-.59-18.06l-.44.11a73.33,73.33,0,0,1-7.62,1.57,65.39,65.39,0,0,0-.59,18.3,21.87,21.87,0,0,1-2.79.23A62.87,62.87,0,0,1,40.64,86.81a11.45,11.45,0,0,0,1.58-.13,61.92,61.92,0,0,0-7.49,16.67,70.5,70.5,0,0,0,7-1.45l.41-.1a60.5,60.5,0,0,1,5.31-16.21c1.08-.27,2.23-.58,3.43-.92-4.46,11.11-5.63,25.3-3,40"/><path class="cls-6" d="M79.91,114.12c-9,3.27-17.87,6.27-25.75,8.67-3.07-14.53-2.88-28.43.3-39.17,4.47-1.36,9.5-3.06,14.61-4.92.33,1.38.7,2.85,1.11,4.4-4.19,1.52-8.34,3-12.25,4.23a79.81,79.81,0,0,0-.17,9C61.79,95,66,93.54,70.33,92q.69,2.72,1.48,5.59c-4.68,1.68-9.28,3.26-13.66,4.68.35,3.76.92,7.67,1.7,11.68,5.71-1.86,11.77-4,17.89-6.18q1,3.12,2.17,6.36"/><path class="cls-6" d="M109.44,102.48c-7.71,3.31-16.18,6.68-24.68,9.85C79.6,98.51,75,86.23,71.86,77.67c1.5-.56,3-1.13,4.48-1.71A242.17,242.17,0,0,1,90,103.14c5.58-2.16,11-4.39,16.16-6.58,1.12,1.91,2.22,3.89,3.27,5.92"/><path class="cls-6" d="M131.41,92c-3,1.71-7.07,3.75-12.11,6.08q-2.79,1.29-5.79,2.61c-7.11-13-16.16-23.49-25.31-29.64,1.14-.5,2.24-1,3.3-1.49l.48-.22C100.87,74,109.45,81.9,116.46,92q6.72-3.14,10.85-5.48,2.16,2.64,4.1,5.53"/><path class="cls-6" d="M125.48,73.94c5.24,4,8.68,8,8,9.14-1.23.75-4.6-1.9-10.46-6.66a63.55,63.55,0,0,0-6.43-4.57c-9.62-6-9.62-6-8.73-6.31.35-.13,3.68,0,11,4a62.75,62.75,0,0,1,6.65,4.35m-3.43-2.72c-2.08-1.24-4.89-2.85-7-4l-1.43-.66c-7.77-3.31-12.06-3.59-12.52-2.74.11.74.11.74,13.13,9.52a64.79,64.79,0,0,1,6.11,4.69C137.67,93,138,88.27,138,87.68c0-1.37-2.27-5-8.45-10.68-4.5-3.74-5.2-4.32-7.52-5.78"/><path class="cls-6" d="M79.94,165.64c-1.67.54-3.29,1.05-4.88,1.53a103.82,103.82,0,0,1-17.82-17.59l-.11,0c1.68,5.83,3.58,12.44,9.11,20.08l-2.13.55-1.72.41c-5.56-4.14-17.11-12.77-24.72-29.77,1.17-.22,2.47-.48,3.91-.81a76.88,76.88,0,0,0,15.48,22.06h.11c-2.58-5.39-5.25-11-7.17-24.22l4.19-1.2A107.74,107.74,0,0,0,70.94,158.2l.12,0c-2.09-5.58-4.26-11.35-6.51-24.65,2.1-.68,4.25-1.4,6.44-2.13,1.26,8.43,3.36,22.54,9,34.25"/><path class="cls-6" d="M103.17,143.48c1.11,3.78,1.33,8.75-4,11-5.45,1.74-8.61-2.14-10.3-5.7-.85-1.93-1.69-3.93-2.55-6-4.07-10.84,4.7-14.41,9.55-12,3.36,1.68,4.65,5.06,5.21,6.5.73,2.11,1.42,4.16,2.09,6.16m6.52-2.59c-.57-2-1.2-4.07-1.86-6.18-2.81-7.68-9.94-14.15-21.51-9.27-7.48,4-10,11.38-6.68,19.73.9,2,1.81,4,2.72,5.86,7.64,14.13,24.16,9.27,27.38-1.59a15.22,15.22,0,0,0,0-8.55"/><path class="cls-6" d="M128.61,122.27c.89,4.49-2.44,6.1-3.7,6.7q-2.55,1.13-5.23,2.27c-.88-3.45-2-7-3.22-10.59q2.81-1.2,5.48-2.38c4.73-1.88,6.21,1.7,6.67,4m8.4,20.92c0-.16,0-.32.05-.48-.3-.41-.76-1-.75-4.75,0-.84,0-1.69,0-2.55-.35-6.58-3.46-6.52-5-6.49,6.27-7.76.94-18.25-6.75-17.69a14.8,14.8,0,0,0-4.78,1.3c-3.8,1.68-7.82,3.39-12,5.1q.58,1.49,1.14,3A151.32,151.32,0,0,1,117.28,152c1.85-.76,3.68-1.53,5.46-2.29a94.33,94.33,0,0,0-1.81-13.05c1.92-.81,3.79-1.63,5.61-2.43,2.93-1.17,4.53,0,4.89,3.54.06.81.1,1.61.13,2.41.18,4.17.53,4.61.87,5a40.1,40.1,0,0,0,4.58-2"/><path class="cls-6" d="M147.79,122.48c.18,5.69-.83,9.91-2.69,11.28-.55.34-1.15.69-1.8,1.07a65.44,65.44,0,0,0-3.16-25.44q1.11-.63,2-1.2c2.47-1.2,4.2,3.37,5,8a60.37,60.37,0,0,1,.62,6.25m1.37-1.18a60.47,60.47,0,0,0-.57-6.25c-1.19-7.18-4.11-14.82-8.42-12.69q-2.37,1.47-5.94,3.32c.41,1,.8,2,1.17,3A68.52,68.52,0,0,1,139.46,142q3-1.56,5-2.79c3.54-2.62,4.92-10.86,4.71-17.86"/><path class="cls-6" d="M78.09,179l-.48.12c-.5.13-1,.25-1.45.35a49.46,49.46,0,0,1-5.69-2.84l.66-.15a50.54,50.54,0,0,0,4.72,2.47l.9-.22.49-.13.85.4"/><path class="cls-6" d="M80.84,178.25l-2.27.6a49.28,49.28,0,0,1-5.36-2.92c.83-.22,1.69-.44,2.57-.69.26.18.51.35.77.51l-1.8.49c.44.27.87.53,1.31.78l1.49-.4.79.47-1.46.39c.5.28,1,.54,1.51.8l1.65-.45.8.42"/><path class="cls-6" d="M80.37,176.81,79,175.45h0l2.34,1.09-.94.27m3.15.67.75-.21c-1.82-.79-4.22-1.87-6-2.73l-.83.24c1,1.06,2.49,2.45,3.64,3.4l.71-.2-.83-.66,1.29-.37,1.27.53"/><path class="cls-6" d="M83.9,174.38c.46.41,0,.56-.16.62l-.71.22c-.43-.31-.86-.64-1.28-1l.75-.23a1.5,1.5,0,0,1,1.4.36m3.88,1.81-.06,0a2.34,2.34,0,0,1-.84-.4l-.3-.23A2.52,2.52,0,0,0,84.9,175c.63-.79-1.17-1.78-2.5-1.62a4.08,4.08,0,0,0-.56.12l-1.61.48a44,44,0,0,0,4.51,3.16l.75-.22c-.6-.38-1.19-.77-1.78-1.19l.77-.23a1.48,1.48,0,0,1,1.3.3l.31.21a2.08,2.08,0,0,0,.89.45l.8-.25"/><path class="cls-6" d="M91.68,174.94l-.81.27c-1.29-.5-3-1.17-4.29-1.69h0c.89.79,1.78,1.53,2.67,2.21l-.79.25a45.43,45.43,0,0,1-4-3.32l.9-.28c1.31.55,3,1.29,4.36,1.81h0c-.84-.75-1.67-1.55-2.51-2.41l.93-.3a45.69,45.69,0,0,0,3.56,3.45"/><path class="cls-6" d="M97.61,172.94l-.86.3c-.39-.47-.78-1-1.18-1.46l-1.82.63c.43.49.86,1,1.28,1.41l-.84.29c-1.06-1.07-2.13-2.27-3.21-3.57l1-.33c.45.57.9,1.11,1.34,1.64l1.85-.64c-.41-.53-.82-1.09-1.24-1.67l1-.33c.93,1.35,1.85,2.6,2.75,3.73"/><path class="cls-6" d="M100.25,170.17c.35.65.23,1.11-.37,1.35a1.38,1.38,0,0,1-1.61-.65l-.46-.69c-.78-1.28.52-1.61,1.07-1.48a1.55,1.55,0,0,1,1,.76l.42.71m.92-.33-.39-.72a2.43,2.43,0,0,0-3.22-.93,1.47,1.47,0,0,0-.68,2.32l.48.68c1.35,1.75,3.81,1,4-.34a1.61,1.61,0,0,0-.21-1"/><path class="cls-6" d="M106.77,169.63l-.81.3c-.58-.7-1.33-1.64-1.91-2.34h0c.1.88.21,2.05.32,2.93l-.82.29-3.09-3.6,1-.35,2,2.58h0c-.12-.95-.28-2.22-.38-3.18l.72-.27,2,2.57h0c-.11-1-.27-2.23-.38-3.19l1-.36c.1,1.39.24,3.23.35,4.62"/><path class="cls-6" d="M112.55,163.42l-1.36.54c.26,1.31.48,2.56.66,3.72L111,168c-.21-1.15-.46-2.39-.75-3.69l-1.36.52c-.06-.23-.13-.46-.19-.7,1.26-.48,2.51-1,3.75-1.46l.12.73"/><path class="cls-6" d="M116.11,164.13a1.57,1.57,0,0,1-.9,1.6c-.59.21-.94-.07-1-.83,0-.27,0-.55-.08-.83-.12-1.55,1.18-2,1.65-1.6a1.13,1.13,0,0,1,.33.81c0,.28,0,.57,0,.85m.89-.36c0-.28,0-.57,0-.86-.07-1-.71-1.88-2.31-1.17a2.65,2.65,0,0,0-1.5,2.7c0,.28.07.55.1.82.34,2.09,2.41,1.34,3.23.11a2.8,2.8,0,0,0,.5-1.6"/><path class="cls-6" d="M122.54,162.29c-.35,1.51-2.49,2.49-3.05,1.68a1.09,1.09,0,0,1-.13-.68v0l.84-.34c-.06,1.16,1.19.21,1.2.19.27-.24.69-1-.06-1.08a5.9,5.9,0,0,1-1.19,0,.67.67,0,0,1-.5-.36,1.89,1.89,0,0,1,.67-2,3.3,3.3,0,0,1,1-.63c1-.4,1.62-.08,1.54.87v0l-.85.37c0-.93-.88-.45-1.13-.23s-.8,1.05.06,1.11c.3,0,.6-.05.89,0a1.38,1.38,0,0,1,.55.16c.32.23.23.77.18,1"/><path class="cls-6" d="M124.39,160.83l.86-2.26h0l.14,1.83-1,.44m1,1.24.76-.34c0-1.39-.14-3.24-.31-4.61l-.9.39c-.64,1.72-1.52,4-2.22,5.72l.8-.34.49-1.18,1.39-.61v1"/><path class="cls-6" d="M128.88,158.93c-.18.63-.38,1.24-.58,1.85l-.72.33c.2-.62.38-1.25.55-1.88-.17-.86-.37-2-.61-2.84l.92-.41.33,2.12h0l1.47-2.94.4-.19.47-.22c-.67,1.26-1.7,2.88-2.25,4.19"/><path class="cls-6" d="M133.68,158.2l-.57.29c.34-.76.66-1.53,1-2.32l-1.31.64c-.27.77-.57,1.54-.88,2.28l-.64.31a48.19,48.19,0,0,0,1.86-5.59l.72-.34c-.23.83-.48,1.66-.75,2.47l1.32-.66c.3-.82.57-1.65.83-2.5l.65-.33a47.47,47.47,0,0,1-2.19,5.75"/><path class="cls-6" d="M136,157c-.54.29-1.12.6-1.73.91a51.56,51.56,0,0,0,2.27-5.79l2-1-.34.93-1.34.71c-.18.5-.36,1-.55,1.49l1.11-.59c-.12.31-.25.62-.38.92l-1.1.58c-.22.55-.46,1.09-.7,1.63l1.23-.65c-.15.3-.29.6-.44.89"/><path class="cls-6" d="M137.77,156l-1.37.77a52.35,52.35,0,0,0,2.56-5.94l.5-.28a54.53,54.53,0,0,1-2.16,5.08l.94-.54-.47.91"/><path class="cls-6" d="M139.17,155.15l-1.11.69a54.91,54.91,0,0,0,2.78-6.08l.42-.25a55.21,55.21,0,0,1-2.35,5.19l.76-.48-.5.93"/><path class="cls-6" d="M141.5,152a8.76,8.76,0,0,1-1.15,1.87h-.06a5.45,5.45,0,0,1,.61-1.44c.18-.37.37-.75.54-1.13.61-1.29,1-1.9,1.14-1.92,0,0,.09.18-.52,1.48-.19.39-.37.77-.56,1.14m.24-.18c.19-.38.38-.75.56-1.13.81-1.72.94-2.42.71-2.33a.45.45,0,0,0-.14.1,13.12,13.12,0,0,0-1.75,3.06c-.17.38-.35.75-.53,1.12a7,7,0,0,0-.88,2.18c.31.07,1.39-1.75,2-3"/></g></g></g></g></g></svg>