<svg xmlns="http://www.w3.org/2000/svg" xmlns:xlink="http://www.w3.org/1999/xlink" viewBox="0 0 180 244.69"><defs><style>.cls-1{fill:none;}.cls-2{fill:#f1cc26;}.cls-3{isolation:isolate;}.cls-4{clip-path:url(#clip-path);}.cls-5{fill:#f5f7e1;}.cls-6{clip-path:url(#clip-path-2);}.cls-7{clip-path:url(#clip-path-3);}.cls-8{clip-path:url(#clip-path-4);}.cls-9{clip-path:url(#clip-path-5);}.cls-10{clip-path:url(#clip-path-6);}.cls-11{fill:#e0780d;}</style><clipPath id="clip-path"><path class="cls-1" d="M101.74,169.07c-1.28.63-3,1.33-4.37,1.83-1,.38-2.39.77-3.41,1.1a36.79,36.79,0,0,1-4.65,1.05c-1,.16-2.33.36-3.33.44-1.44.11-3.37.15-4.82.18a27.66,27.66,0,0,1-4.89-.4,56.75,56.75,0,0,1-6.18-1.36A44,44,0,0,1,64,169.5c-.84-.45-2-1-2.78-1.51-1.2-.75-2.79-1.8-3.92-2.66a43,43,0,0,1-5.73-5.3c-.66-.74-1.52-1.75-2.11-2.54-.81-1.08-1.83-2.56-2.55-3.7a61.67,61.67,0,0,1-3.22-6.2,38.21,38.21,0,0,1-1.44-3.78c-.37-1.07-.76-2.53-1.08-3.61a34.37,34.37,0,0,1-.92-4.26c-.35-2.36-.75-5.54-.84-7.93a62.36,62.36,0,0,1,.26-8.3A64,64,0,0,1,41,111.62a68.28,68.28,0,0,1,2.29-7.83A68.22,68.22,0,0,1,50.59,89.2,63.15,63.15,0,0,1,61.11,77a57.37,57.37,0,0,1,6.52-5A53.75,53.75,0,0,1,75,67.81,47.79,47.79,0,0,1,79.46,66c1-.37,2.41-.74,3.45-1a44,44,0,0,1,4.73-1,31.77,31.77,0,0,1,5-.46c1,0,2.28,0,3.26,0a40.21,40.21,0,0,1,4.25.41,44.62,44.62,0,0,1,6.18,1.41c.9.3,2.1.69,3,1.06,1.34.57,3.11,1.38,4.38,2.08a33.43,33.43,0,0,1,4,2.52c.75.58,1.79,1.32,2.51,1.94,1,.91,2.43,2.13,3.36,3.14.66.72,1.55,1.68,2.16,2.44.84,1,1.91,2.48,2.66,3.59a53.38,53.38,0,0,1,3.35,5.95c.59,1.22,1.25,2.9,1.72,4.16.38,1,.8,2.43,1.12,3.48.52,1.65.93,3.93,1.28,5.62a3.18,3.18,0,0,0-.33-.92,3.73,3.73,0,0,0-.66-.86,5.85,5.85,0,0,0-1-.77,9.15,9.15,0,0,0-1.33-.67,17.56,17.56,0,0,0-4.87-1.1,33.3,33.3,0,0,0-5.91,0,40.66,40.66,0,0,0-6.24,1,33.94,33.94,0,0,0-5.83,2,35.68,35.68,0,0,0-2.19-7.59,29.7,29.7,0,0,0-3.54-6.29,25.91,25.91,0,0,0-4.69-4.88A24.2,24.2,0,0,0,93.6,78a23.73,23.73,0,0,0-4.95-1.46,24.45,24.45,0,0,0-5.3-.36A27.07,27.07,0,0,0,77.8,77a31.54,31.54,0,0,0-5.7,2,39.45,39.45,0,0,0-11.76,8.43,48.65,48.65,0,0,0-8.66,12.27A51.11,51.11,0,0,0,47,114.16a43.78,43.78,0,0,0,.06,15,35.08,35.08,0,0,0,2.21,7.46,29.63,29.63,0,0,0,3.51,6.18,25.66,25.66,0,0,0,4.62,4.79A23.77,23.77,0,0,0,68,152.42a25.66,25.66,0,0,0,5.43.37,27.77,27.77,0,0,0,5.67-.84,31.7,31.7,0,0,0,5.8-2.09,39.74,39.74,0,0,0,11.61-8.44A49.1,49.1,0,0,0,105,129.26,50.77,50.77,0,0,0,109.64,115a43.87,43.87,0,0,0,0-14.86,33.94,33.94,0,0,1,5.83-2,40.66,40.66,0,0,1,6.24-1,33.3,33.3,0,0,1,5.91,0,17.56,17.56,0,0,1,4.87,1.1,9.15,9.15,0,0,1,1.33.67,5.85,5.85,0,0,1,1,.77,3.73,3.73,0,0,1,.66.86,3.18,3.18,0,0,1,.33.92,55.33,55.33,0,0,1,.83,8.53c0,2.38-.15,5.56-.32,7.93-.09,1.22-.36,2.83-.55,4.05a70.29,70.29,0,0,1-1.81,7.79c-.37,1.14-.83,2.66-1.24,3.79s-1,2.6-1.46,3.72-1.15,2.57-1.69,3.64c-1.07,2.13-2.7,4.86-4,6.89-.64,1-1.62,2.33-2.32,3.32a65.1,65.1,0,0,1-5.21,6.15c-.92.93-2.13,2.18-3.12,3-1.76,1.49-4.18,3.39-6,4.74-1.09.8-2.66,1.71-3.83,2.39C104.12,167.89,102.76,168.57,101.74,169.07Z"/></clipPath><clipPath id="clip-path-2"><path class="cls-1" d="M97.1,97.42a7.53,7.53,0,0,0,4.34.38,12.09,12.09,0,0,0,4.52-2,19.42,19.42,0,0,0,4.15-4,25.09,25.09,0,0,0,3.26-5.69A24.07,24.07,0,0,1,119,89.43a25.77,25.77,0,0,1,4.7,4.9,30.12,30.12,0,0,1,3.54,6.32,36.47,36.47,0,0,1,2.18,7.63,33.18,33.18,0,0,1-5.86,2,40.16,40.16,0,0,1-6.28,1,31.93,31.93,0,0,1-6,0,17.18,17.18,0,0,1-4.88-1.12,21.07,21.07,0,0,0-1.27-4.42,17.75,17.75,0,0,0-2.07-3.66,15,15,0,0,0-2.74-2.83A13.93,13.93,0,0,0,97.1,97.42Z"/></clipPath><clipPath id="clip-path-3"><path class="cls-1" d="M82.45,159.44a24.81,24.81,0,0,0,1.79-6.31,19.27,19.27,0,0,0,0-5.78,12,12,0,0,0-1.72-4.63,7.5,7.5,0,0,0-3.3-2.85,14.07,14.07,0,0,0,2.94.89,14.36,14.36,0,0,0,3.16.22,16,16,0,0,0,3.3-.47A19.39,19.39,0,0,0,92,139.29a23.13,23.13,0,0,0,6.77-4.92,28.49,28.49,0,0,0,5-7.1,29.57,29.57,0,0,0,2.73-8.34,25.49,25.49,0,0,0,0-8.67,17.18,17.18,0,0,0,4.88,1.12,31.93,31.93,0,0,0,6,0,40.16,40.16,0,0,0,6.28-1,33.18,33.18,0,0,0,5.86-2,44.67,44.67,0,0,1,0,15,51.76,51.76,0,0,1-4.7,14.37,49.64,49.64,0,0,1-8.56,12.24,39.79,39.79,0,0,1-11.65,8.51,31.78,31.78,0,0,1-5.82,2.12,27.88,27.88,0,0,1-5.69.85,25.1,25.1,0,0,1-5.44-.37A23.24,23.24,0,0,1,82.45,159.44Z"/></clipPath><clipPath id="clip-path-4"><path class="cls-1" d="M79.21,139.87A13.71,13.71,0,0,1,76,137.94a14.81,14.81,0,0,1-2.68-2.79,17.41,17.41,0,0,1-2-3.6A21.74,21.74,0,0,1,70,127.21a26,26,0,0,1,0-8.72,29.72,29.72,0,0,1,2.74-8.41,28.89,28.89,0,0,1,5-7.14A22.87,22.87,0,0,1,84.61,98a18.71,18.71,0,0,1,3.3-1.18,16.68,16.68,0,0,1,3.23-.47,14.29,14.29,0,0,1,3.08.21,13.41,13.41,0,0,1,2.88.83,7.28,7.28,0,0,0-2.21-.51,9.81,9.81,0,0,0-2.57.16A16.28,16.28,0,0,0,87.43,99a20.74,20.74,0,0,0-2.69,1.83,23.65,23.65,0,0,0-2.64,2.4,28.09,28.09,0,0,0-2.48,2.92,30.08,30.08,0,0,0-2.21,3.36,15.61,15.61,0,0,0-1,1.8c-.24.58-.61,1.32-.87,1.89s-.53,1.35-.76,1.93-.45,1.38-.64,2a17.81,17.81,0,0,0-.53,2c-.23,1.17-.51,2.73-.64,3.91a29.37,29.37,0,0,0,0,5.74,20,20,0,0,0,1.51,5.9,12.37,12.37,0,0,0,1.81,3,7.72,7.72,0,0,0,1.21,1.2A7.16,7.16,0,0,0,79.21,139.87Z"/></clipPath><clipPath id="clip-path-5"><path class="cls-1" d="M73.24,130.39a17.37,17.37,0,0,0,2.21,6.05,8.34,8.34,0,0,0,3.76,3.43,7.5,7.5,0,0,1,3.3,2.85,12,12,0,0,1,1.72,4.63,19.27,19.27,0,0,1,0,5.78,24.81,24.81,0,0,1-1.79,6.31,24,24,0,0,1-5.52-3.3,26.09,26.09,0,0,1-4.62-4.81,29.68,29.68,0,0,1-3.51-6.21,36.14,36.14,0,0,1-2.21-7.51,44.5,44.5,0,0,1,0-15.1,51.51,51.51,0,0,1,4.74-14.57A49.28,49.28,0,0,1,80,95.58a39.77,39.77,0,0,1,11.81-8.5,32.82,32.82,0,0,1,5.71-2,28.1,28.1,0,0,1,5.57-.79,24.63,24.63,0,0,1,5.32.36,23.54,23.54,0,0,1,5,1.45,25.09,25.09,0,0,1-3.26,5.69,19.42,19.42,0,0,1-4.15,4,12.09,12.09,0,0,1-4.52,2,7.53,7.53,0,0,1-4.34-.38A7.14,7.14,0,0,0,95.52,97a9.38,9.38,0,0,0-2-.07,13.3,13.3,0,0,0-4.57,1.29,18.82,18.82,0,0,0-2.73,1.54,29.16,29.16,0,0,0-2.58,2,28.69,28.69,0,0,0-4,4.34c-.36.49-.85,1.14-1.17,1.65-.64,1-1.45,2.46-2,3.54-.3.55-.63,1.32-.88,1.9a16.8,16.8,0,0,0-.76,1.93c-.16.6-.46,1.36-.64,2s-.38,1.39-.52,2A34.65,34.65,0,0,0,73,123,26.43,26.43,0,0,0,73.24,130.39Z"/></clipPath><clipPath id="clip-path-6"><path class="cls-1" d="M135.83,101.36c.32,2.35.73,5.48.81,7.85a60.6,60.6,0,0,1-.28,8.38,65.88,65.88,0,0,1-1.33,8.09,66.92,66.92,0,0,1-2.29,7.77c-.43,1.12-1,2.63-1.46,3.72s-1.14,2.55-1.68,3.62-1.31,2.45-1.87,3.51A66.3,66.3,0,0,1,118.27,157c-.81.84-1.93,1.94-2.79,2.73s-2.15,1.86-3.09,2.64a53.65,53.65,0,0,1-6.64,4.57c-1,.57-2.32,1.3-3.34,1.8-1.19.57-2.82,1.26-4,1.77A35.07,35.07,0,0,1,95,171.7c-1.29.38-3,.79-4.34,1.1a31.81,31.81,0,0,1-4.65.69,48.67,48.67,0,0,1-6.5.11c-1.41-.11-3.28-.34-4.68-.56-.94-.15-2.17-.43-3.09-.67a42.94,42.94,0,0,1-6.18-2.16c-.86-.4-2-.92-2.83-1.39a47.22,47.22,0,0,1-4.13-2.55,43.19,43.19,0,0,1-6-5.22c-.68-.71-1.57-1.69-2.19-2.46-.88-1.12-2-2.65-2.8-3.83-.58-.86-1.29-2-1.78-3-.67-1.23-1.49-2.92-2.06-4.21a59.7,59.7,0,0,1-2.43-7,55,55,0,0,1-1.51-8.08A57.82,57.82,0,0,1,39.4,124a61.65,61.65,0,0,1,.79-8.29,64.66,64.66,0,0,1,1.82-8,68.9,68.9,0,0,1,6.38-14.93,64.2,64.2,0,0,1,9.69-12.88c.84-.83,2-2,2.84-2.74s2.19-1.9,3.17-2.67a55,55,0,0,1,6.79-4.55c1-.55,2.35-1.28,3.39-1.76,1.22-.57,2.87-1.28,4.14-1.75a45.28,45.28,0,0,1,7.86-2.16,42,42,0,0,1,8-.72,37.66,37.66,0,0,1,8,.82c1.85.43,4.29,1.12,6.08,1.73,1.19.41,2.7,1.14,3.84,1.66a41.64,41.64,0,0,1,4.21,2.41c.81.5,1.82,1.27,2.58,1.84a41.23,41.23,0,0,1,5.85,5.49A42.19,42.19,0,0,1,129.53,84a47.85,47.85,0,0,1,3.58,7.38c.47,1.3,1.08,3,1.44,4.35.46,1.67.95,3.92,1.28,5.62a3.21,3.21,0,0,1-.2,1.71,5.86,5.86,0,0,1-1.15,1.77,11.76,11.76,0,0,1-2.07,1.77,21,21,0,0,1-3,1.67,36.47,36.47,0,0,0-2.18-7.63,30.12,30.12,0,0,0-3.54-6.32,25.77,25.77,0,0,0-4.7-4.9,24.07,24.07,0,0,0-5.64-3.35,23.54,23.54,0,0,0-5-1.45,24.63,24.63,0,0,0-5.32-.36,28.1,28.1,0,0,0-5.57.79,32.82,32.82,0,0,0-5.71,2A39.77,39.77,0,0,0,80,95.58a49.28,49.28,0,0,0-8.7,12.36,51.51,51.51,0,0,0-4.74,14.57,44.5,44.5,0,0,0,0,15.1,36.14,36.14,0,0,0,2.21,7.51,29.68,29.68,0,0,0,3.51,6.21,26.09,26.09,0,0,0,4.62,4.81,24,24,0,0,0,5.52,3.3A23.24,23.24,0,0,0,87.53,161a25.1,25.1,0,0,0,5.44.37,27.88,27.88,0,0,0,5.69-.85,31.78,31.78,0,0,0,5.82-2.12,39.79,39.79,0,0,0,11.65-8.51,49.64,49.64,0,0,0,8.56-12.24,51.76,51.76,0,0,0,4.7-14.37,44.67,44.67,0,0,0,0-15,21,21,0,0,0,3-1.67,11.76,11.76,0,0,0,2.07-1.77,5.86,5.86,0,0,0,1.15-1.77A3.21,3.21,0,0,0,135.83,101.36Z"/></clipPath></defs><title>資產 30</title><g id="圖層_2" data-name="圖層 2"><g id="圖層_1-2" data-name="圖層 1"><rect class="cls-2" width="180" height="244.69"/><g class="cls-3"><g class="cls-3"><g class="cls-4"><path class="cls-5" d="M112.45,67.89c-1-.44-2.21-1-3.18-1.45s-2.17-.81-3.12-1.1a6.45,6.45,0,0,0-1.34-.27,5.07,5.07,0,0,0-.68,0q-.34,0-.69,0c.45.13.89.28,1.33.44s.87.32,1.29.49.86.36,1.28.55.84.39,1.25.6a8.29,8.29,0,0,1,.86,0c.28,0,.56,0,.84.08a6.95,6.95,0,0,1,1.62.44l.14.06.13.06.14.06.13.07"/><path class="cls-5" d="M134.55,95.74c-.46-1.45-1.08-3.39-1.62-4.82,0,0,2.06,6.41,2.53,8.52l-.91-3.7m1.28,5.62a2.85,2.85,0,0,0-.19-.63,3.36,3.36,0,0,0-.34-.61,5,5,0,0,0-.49-.57,6,6,0,0,0-.65-.53l-.4-1a68.63,68.63,0,0,1-2.67-7.51c-.32-1.22-1-3.74-.74-5.08l1.36,2.64a50.73,50.73,0,0,1,2.84,7.64c.42,1.68.95,3.92,1.28,5.62"/><path class="cls-5" d="M86,173.49a41.71,41.71,0,0,0,6.85-1.19l-.25.06-.26,0-.25,0-.26,0c-.63.16-1.26.31-1.88.43s-1.25.24-1.87.34-1.23.18-1.85.24-1.23.11-1.83.15l1.6-.12"/><path class="cls-5" d="M101.52,169.17l.22-.1a55.73,55.73,0,0,0,13.57-9.18c1.21-1.18,2.82-2.75,4-4a1.31,1.31,0,0,1-.32.25,1.6,1.6,0,0,1-.42.16,2,2,0,0,1-.51.06,3.2,3.2,0,0,1-.61,0c-1.26,1.37-2.57,2.69-3.92,3.93s-2.77,2.43-4.22,3.53a54.12,54.12,0,0,1-4.5,3.07,48.62,48.62,0,0,1-4.76,2.58l-.1,0-.1.05.45,0a3,3,0,0,0,.43-.07l.42-.12.39-.16"/><path class="cls-5" d="M124.67,149.14l1-1.44c.79-1.28,1.85-3,2.59-4.3l0,0c.6-1.1,1.18-2.21,1.73-3.35s1.07-2.28,1.55-3.44.94-2.34,1.36-3.53.81-2.39,1.17-3.6a.27.27,0,0,0-.07-.17,1.39,1.39,0,0,0-.21-.22l-.35-.25-.49-.29q-.81,2.78-1.85,5.48t-2.28,5.31c-.82,1.73-1.72,3.43-2.68,5.09s-2,3.28-3.06,4.84a3.75,3.75,0,0,0,.6.1,2.54,2.54,0,0,0,.47,0,1.36,1.36,0,0,0,.35-.09.44.44,0,0,0,.22-.18"/><path class="cls-5" d="M136.65,109.66l-.15-3c.11,1.63.19,4.36.17,5.83l0-2.88m-.31,8.16-.23,1.9,0-.38c.2-4.5-.61-8.93-.75-13.41,0-2.1,0-3,.11-5.48,0,.07.07.15.11.22l.09.23c0,.07,0,.15.07.23s0,.15.05.23a55.58,55.58,0,0,1,.82,8.3,58.44,58.44,0,0,1-.31,8.16"/></g></g><g class="cls-3"><g class="cls-6"><path class="cls-5" d="M114.44,98.78A17.86,17.86,0,0,0,113,97.35a17,17,0,0,0-1.58-1.25,17.28,17.28,0,0,0-3.47-1.92,19.16,19.16,0,0,0,1.57-1.66A21.91,21.91,0,0,0,111,90.6c.46-.68.89-1.4,1.3-2.15s.78-1.54,1.12-2.37l.37.16.38.17.36.18a2.53,2.53,0,0,1,.37.18A28.38,28.38,0,0,1,113,90.11c.59.3,1.17.62,1.74,1s1.11.74,1.65,1.14,1,.84,1.55,1.3,1,.94,1.46,1.45c-.39.38-.78.74-1.19,1.09s-.81.67-1.22,1-.84.62-1.26.91-.86.56-1.29.82"/><path class="cls-5" d="M128.9,107.71c-1.87.35-4.27.33-5.12-1.76-.3-1.39-.1-2.37,3.17-6,.26.59.5,1.19.73,1.8s.44,1.23.64,1.87.38,1.3.54,2,.32,1.35.45,2l-.41.09m-7.19,3c.68-.14,1.36-.29,2-.46s1.33-.37,2-.57,1.29-.43,1.91-.67,1.23-.5,1.81-.77c-.19-1.11-.43-2.19-.71-3.24a31.68,31.68,0,0,0-1-3c-.35-1-.75-1.92-1.18-2.83s-.89-1.77-1.39-2.61l-.24.29c-5.94,7.27-5.94,7.27-6.3,8.79-.71,3.06,2.58,5,3,5.11"/></g></g><g class="cls-3"><g class="cls-7"><path class="cls-5" d="M83.7,143a14.88,14.88,0,0,0,2,.49,15.85,15.85,0,0,0,4.29.11,17.77,17.77,0,0,0,2.23-.41c.29.31.58.64.86,1s.54.71.8,1.09.52.77.77,1.18.48.83.7,1.26q-.9.23-1.8.36a15.67,15.67,0,0,1-1.77.19,16.86,16.86,0,0,1-1.74,0,15.57,15.57,0,0,1-1.7-.15,18.8,18.8,0,0,1,.54,2.24,20.15,20.15,0,0,1,.31,2.4,23.16,23.16,0,0,1,.07,2.51,25.52,25.52,0,0,1-.2,2.59c.64.09,1.28.15,1.93.19s1.3,0,2,0,1.33-.07,2-.15,1.34-.18,2-.31c0,.26.05.53.06.79s0,.53,0,.79,0,.53,0,.8,0,.53,0,.79a26.85,26.85,0,0,1-3.26.45,26.2,26.2,0,0,1-3.19,0,24.14,24.14,0,0,1-3.09-.35,24.48,24.48,0,0,1-3-.74,25.74,25.74,0,0,0,1.27-4.91,22.79,22.79,0,0,0,.23-4.69,17.62,17.62,0,0,0-.73-4.19A12,12,0,0,0,83.7,143"/><path class="cls-5" d="M95.77,142l.09,0,.64-.32.63-.33.63-.36.61-.38a35.89,35.89,0,0,1,10.22,15.52c-.33.21-.66.42-1,.62l-1,.59-1,.56-1,.51-.11.06h0a28.27,28.27,0,0,0-1.24-4.67,33.7,33.7,0,0,0-1.95-4.48,32.15,32.15,0,0,0-2.51-4A23.71,23.71,0,0,0,95.77,142"/><path class="cls-5" d="M105.94,133.14c.15-.21.29-.43.44-.65l.42-.65c.13-.23.27-.45.4-.67l.39-.68c1.3.64,2.67,1.35,4.07,2.09s2.83,1.53,4.24,2.32,2.78,1.6,4.09,2.39,2.55,1.56,3.66,2.29L123,140.7l-.66,1.09c-.23.36-.45.72-.69,1.08l-.71,1c-1-.92-2.12-1.88-3.32-2.84s-2.48-1.93-3.8-2.87-2.66-1.85-4-2.71-2.65-1.65-3.91-2.36"/><path class="cls-5" d="M129.75,118.56c-.07,0-7.18.42-7.65-3.32.05-1,.14-2.64,7.49-6,.11.76.2,1.53.27,2.3s.12,1.54.15,2.32,0,1.55,0,2.32,0,1.56-.1,2.33l-.19,0m-.93,4.25.63,0c.2-1.21.34-2.43.44-3.65s.15-2.44.15-3.65,0-2.44-.15-3.64-.25-2.42-.46-3.61c-.76.35-1.55.68-2.37,1s-1.65.57-2.51.81-1.73.45-2.62.63-1.76.34-2.65.46l-.57.47c-6.2,6,4.1,10.76,10.11,11.18"/></g></g><g class="cls-3"><g class="cls-8"><path class="cls-5" d="M73.83,133.14c.09.23.17.45.27.66s.18.43.28.64.19.42.3.62l.31.6,0,0,0,0,0,0,0,0c-.18-.34-.41-.8-.57-1.15l-.34-.82c0-.05,0-.11-.07-.17a1.42,1.42,0,0,0-.08-.18l-.09-.17-.1-.17"/></g></g><g class="cls-3"><g class="cls-9"><path class="cls-5" d="M72.17,123.57c0,.33-.07.65-.1,1s-.06.65-.08,1,0,.65,0,1,0,.65,0,1a6.32,6.32,0,0,1-1,.7,10.33,10.33,0,0,1-1.33.65c-.5.21-1.06.41-1.67.6s-1.29.35-2,.51c0-.43,0-.86,0-1.28s0-.86.06-1.29.06-.86.1-1.29.08-.86.13-1.29c.71,0,1.38-.1,2-.18a16.48,16.48,0,0,0,1.66-.27A10.85,10.85,0,0,0,71.2,124a6,6,0,0,0,1-.42"/><path class="cls-5" d="M75.39,112.09c-.14.3-.27.6-.4.9s-.25.61-.37.92-.24.61-.35.92-.23.61-.33.92c-.23,0-.51-.07-.85-.13s-.73-.15-1.17-.26-1-.23-1.51-.38-1.17-.31-1.84-.5c.14-.41.29-.82.44-1.22s.3-.82.46-1.22.32-.8.49-1.2.35-.79.52-1.19l1.71.82,1.39.69,1.07.54.74.39"/><path class="cls-5" d="M87.64,97.18a32,32,0,0,0-2.57,1.94,31.11,31.11,0,0,0-2.38,2.22c-.77.78-1.5,1.6-2.19,2.45s-1.36,1.76-2,2.68a5.73,5.73,0,0,0-.51-.8c-.23-.29-.5-.62-.83-1s-.7-.74-1.13-1.15-.9-.85-1.43-1.31c.24-.36.48-.71.73-1.06s.5-.7.76-1l.78-1,.81-1c.8,1,1,1.24,1.71,2.27.59-.71,1.21-1.4,1.85-2.06s1.29-1.31,2-1.93,1.37-1.2,2.08-1.76,1.44-1.1,2.19-1.6c.08.4.14.79.19,1.17s.07.74.08,1.08,0,.68,0,1a7.73,7.73,0,0,1-.11.89"/><path class="cls-5" d="M102.42,92.86a17.91,17.91,0,0,0-2.54,0,19.7,19.7,0,0,0-2.61.3,22.59,22.59,0,0,0-2.67.66,25.41,25.41,0,0,0-2.69,1,9.45,9.45,0,0,0,.43-1.63,13.31,13.31,0,0,0,.22-1.87,18.69,18.69,0,0,0,0-2.11c-.05-.74-.14-1.52-.27-2.33.37-.16.74-.32,1.11-.46s.73-.29,1.1-.42.74-.26,1.1-.38l1.1-.32c0,.31,0,.61,0,.91s0,.6,0,.89,0,.58,0,.86,0,.56-.08.83q1.09-.3,2.19-.51c.72-.14,1.44-.24,2.15-.31s1.42-.11,2.12-.12,1.39,0,2.07.07c-.17.48-.36.94-.57,1.39s-.41.88-.64,1.29-.46.81-.7,1.19-.5.74-.76,1.08"/><path class="cls-5" d="M107.93,94.18l-.41-.16-.42-.16-.42-.14-.42-.14a20.5,20.5,0,0,0,1.45-1.7c.46-.62.9-1.27,1.32-2s.8-1.43,1.16-2.2a24.91,24.91,0,0,0,1-2.42l.56.18.56.19.54.21.55.21c-.34.83-.72,1.61-1.12,2.37s-.84,1.47-1.3,2.15a21.91,21.91,0,0,1-1.45,1.92,19.16,19.16,0,0,1-1.57,1.66"/><path class="cls-5" d="M74.17,133.83l.34.82c.17.35.38.81.57,1.15a5.51,5.51,0,0,1,.65,2.32,7.54,7.54,0,0,1-.34,2.68,12.54,12.54,0,0,1-1.32,2.9,19.29,19.29,0,0,1-2.29,3c.34.62.7,1.21,1.09,1.79s.78,1.13,1.19,1.67.85,1,1.3,1.53.91,1,1.39,1.4a21.15,21.15,0,0,0,1.75-3.77,16.06,16.06,0,0,0,.82-3.59,11.12,11.12,0,0,0-.1-3.23,7.76,7.76,0,0,0-1-2.69l.47.41.47.39.49.37c.16.12.33.23.5.34a9.49,9.49,0,0,1,1.28,3.22,14.5,14.5,0,0,1,.2,3.94,19.63,19.63,0,0,1-.88,4.39,25.48,25.48,0,0,1-2,4.57,24.6,24.6,0,0,1-3.2-2.52,26,26,0,0,1-2.82-3.08,28.29,28.29,0,0,1-2.4-3.64,31,31,0,0,1-1.93-4.15,22.31,22.31,0,0,0,3.11-2.66,13.26,13.26,0,0,0,2-2.68,7.44,7.44,0,0,0,.91-2.57,4.47,4.47,0,0,0-.24-2.31"/></g></g><g class="cls-3"><g class="cls-10"><path class="cls-5" d="M70.48,109.65c-.17.4-.35.79-.52,1.19s-.33.8-.49,1.2-.32.81-.46,1.22-.3.81-.44,1.22l-1.43-.41-1.51-.45-1.56-.49-1.6-.5c-.34,1-.65,2-.93,3s-.54,2-.77,3-.43,2-.6,3.05-.33,2-.45,3.07l1.7.08,1.67,0c.54,0,1.08,0,1.61,0s1,0,1.54-.06c0,.43-.1.86-.13,1.29s-.07.86-.1,1.29-.05.86-.06,1.29,0,.85,0,1.28a40.36,40.36,0,0,1-6.08.83,53.06,53.06,0,0,1-6.43,0,45.69,45.69,0,0,1-6-.71,22.92,22.92,0,0,1-4.88-1.41l-.72-.33-.63-.35c-.19-.12-.37-.24-.53-.36a4.09,4.09,0,0,1-.44-.37q0-.9,0-1.8c0-.6,0-1.2.08-1.8s.08-1.2.13-1.8.11-1.2.18-1.8c.13.11.28.21.44.32a5.31,5.31,0,0,0,.53.32l.63.33.72.33a21.1,21.1,0,0,0,2.19.81c.79.26,1.64.5,2.54.73s1.85.44,2.83.63,2,.37,3,.52c.13-1.14.29-2.27.48-3.4s.42-2.26.68-3.38.54-2.24.85-3.35.65-2.21,1-3.31l-2.9-1c-1-.34-1.87-.68-2.74-1s-1.72-.65-2.5-1-1.51-.6-2.17-.88l-.72-.32-.64-.28-.55-.26-.46-.23c.2-.57.4-1.14.61-1.71s.42-1.14.64-1.7l.69-1.68c.24-.55.48-1.11.73-1.66l.48.19.56.23.64.26.74.31c1.35.57,3,1.27,4.74,2s3.68,1.63,5.64,2.51,3.93,1.79,5.83,2.67,3.72,1.73,5.33,2.5"/><path class="cls-5" d="M72.72,72.5Q71,73.69,69.3,75c-1.12.88-2.2,1.8-3.26,2.76s-2.08,2-3.08,3-2,2.12-2.9,3.23c.57.26,1.16.57,1.77.91s1.24.71,1.88,1.12,1.29.83,1.95,1.29,1.33.94,2,1.45c.74-.89,1.51-1.76,2.3-2.6s1.59-1.65,2.42-2.44,1.68-1.54,2.55-2.27,1.76-1.43,2.67-2.1c.34.37.69.75,1,1.14s.67.79,1,1.2.65.82,1,1.24.62.85.92,1.28c-.82.61-1.63,1.25-2.42,1.91s-1.56,1.35-2.31,2.06-1.49,1.46-2.2,2.22-1.42,1.55-2.09,2.35a55.61,55.61,0,0,1,5.22,5.39l-.81,1-.78,1c-.26.34-.51.69-.76,1s-.49.7-.73,1.06c-1.37-1.21-3-2.47-4.65-3.72s-3.49-2.5-5.28-3.66-3.59-2.25-5.27-3.18a47.39,47.39,0,0,0-4.61-2.28c-.26-.11-.51-.21-.74-.29l-.66-.24-.59-.18-.51-.12c1.14-1.7,2.36-3.34,3.64-4.91s2.62-3.09,4-4.52,2.87-2.79,4.39-4.06a55.56,55.56,0,0,1,4.73-3.55,4.37,4.37,0,0,1,.62,0,5.57,5.57,0,0,1,.66.1,4.93,4.93,0,0,1,.71.18l.76.27.21.09.22.1.22.1.22.11"/><path class="cls-5" d="M96.68,85.29l-1.1.32c-.36.12-.73.24-1.1.38s-.73.27-1.1.42-.74.3-1.11.46a30.22,30.22,0,0,0-1.75-6.22A32,32,0,0,0,87.61,75a25,25,0,0,0-3.68-4.54,13.2,13.2,0,0,0-4-2.75,6.45,6.45,0,0,0-.77-.27,7,7,0,0,0-.73-.17,5.78,5.78,0,0,0-.7-.08c-.23,0-.45,0-.66,0,.51-.22,1-.44,1.54-.64s1-.4,1.55-.58,1-.36,1.54-.52L83.19,65a5.54,5.54,0,0,1,.71,0,6,6,0,0,1,.72.07,5.06,5.06,0,0,1,.75.17,5.82,5.82,0,0,1,.77.26,11.3,11.3,0,0,1,3.9,2.8,21.31,21.31,0,0,1,3.29,4.67,29.78,29.78,0,0,1,3.35,12.38"/><path class="cls-5" d="M114.85,86.77a2.53,2.53,0,0,0-.37-.18l-.36-.18-.38-.17-.37-.16-.55-.21-.54-.21-.56-.19-.56-.18a25.18,25.18,0,0,0,1.35-6.46,20.36,20.36,0,0,0-.4-5.87,13,13,0,0,0-2-4.65,7.87,7.87,0,0,0-3.43-2.78l-.14,0-.13,0-.13-.05-.14,0c.94.33,2.2.73,3.12,1.1s2.24,1,3.18,1.45c5.94,3.48,5.41,12.23,2.4,18.88"/><path class="cls-5" d="M132.34,106.29a8.65,8.65,0,0,1-3,1.33q-.19-1-.45-2c-.16-.66-.34-1.32-.54-2s-.41-1.26-.64-1.87-.47-1.21-.73-1.8c.84-1,1.71-1.91,2.56-2.88.29-.33.56-.67.81-1s.47-.66.68-1,.38-.66.54-1a10,10,0,0,0,.42-1,10.53,10.53,0,0,1,.81-2.37.41.41,0,0,1,.16.16c.5,1.44,1.19,3.36,1.62,4.82l.91,3.7c.47,2.33.15,3.2-.31,4.09a7.58,7.58,0,0,1-.5.7q-.28.34-.63.69c-.24.23-.5.46-.77.69a11.34,11.34,0,0,1-.91.68m-2.91,2a21,21,0,0,0,3-1.67,11.76,11.76,0,0,0,2.07-1.77,5.86,5.86,0,0,0,1.15-1.77,3.21,3.21,0,0,0,.2-1.71c-.35-1.69-.84-4-1.28-5.62a49.73,49.73,0,0,0-2.84-7.64l-1.34-2.63h0a14,14,0,0,1-.59,3.55c-.1.35-.22.7-.36,1.06s-.3.72-.48,1.09-.39.73-.61,1.1-.47.74-.73,1.11c-.88,1.23-1,1.33-2.4,3.17.5.84,1,1.71,1.39,2.61s.83,1.85,1.18,2.83a31.68,31.68,0,0,1,1,3c.28,1,.52,2.13.71,3.24"/><path class="cls-5" d="M68.37,144.05a31,31,0,0,0,1.93,4.15,28.29,28.29,0,0,0,2.4,3.64,26,26,0,0,0,2.82,3.08,24.6,24.6,0,0,0,3.2,2.52,26.4,26.4,0,0,1-3.15,4.44,23.17,23.17,0,0,1-3.72,3.41,17.53,17.53,0,0,1-4,2.18,11.45,11.45,0,0,1-3.91.79l-1.15-.79c-.38-.27-.76-.55-1.13-.84s-.73-.59-1.09-.89-.72-.62-1.07-.94a12.55,12.55,0,0,0,3.26-.41,18.37,18.37,0,0,0,3.42-1.28A23,23,0,0,0,69.6,161a25.72,25.72,0,0,0,3.19-2.77c-.56-.52-1.11-1.07-1.64-1.64s-1-1.17-1.52-1.8-1-1.28-1.41-2-.88-1.38-1.28-2.11a30.55,30.55,0,0,1-3.72,2.11,28.59,28.59,0,0,1-3.85,1.5,24.42,24.42,0,0,1-3.77.84,17.27,17.27,0,0,1-3.49.12c-.25-.45-.5-.91-.74-1.38s-.47-.94-.7-1.42-.44-1-.65-1.46-.41-1-.61-1.51a20.15,20.15,0,0,0,4.52,0,29,29,0,0,0,4.93-1,32.45,32.45,0,0,0,4.94-1.86,29.86,29.86,0,0,0,4.57-2.64"/><path class="cls-5" d="M84.57,160.22a24.48,24.48,0,0,0,3,.74,24.14,24.14,0,0,0,3.09.35,26.2,26.2,0,0,0,3.19,0,26.85,26.85,0,0,0,3.26-.45l0,.8-.06.78c0,.25,0,.5-.09.75s-.06.49-.1.73c-.8.16-1.6.29-2.39.38s-1.58.15-2.36.17-1.55,0-2.31,0-1.52-.11-2.27-.22a20.63,20.63,0,0,1-1.18,2.5,17.83,17.83,0,0,1-1.4,2.16,13.56,13.56,0,0,1-1.57,1.77A11.2,11.2,0,0,1,81.62,172a31.84,31.84,0,0,0,3.26.28c1.09,0,2.2,0,3.32,0s2.26-.19,3.4-.37,2.28-.42,3.44-.71a6.41,6.41,0,0,1-.52.39,4.86,4.86,0,0,1-.54.33,5.62,5.62,0,0,1-.56.25,4.49,4.49,0,0,1-.59.19A42.44,42.44,0,0,1,86,173.49l-1.6.12c-1.07.06-2.12.07-3.16,0s-2.07-.12-3.09-.24a30.2,30.2,0,0,1-3-.51c-1-.21-2-.47-2.93-.77a9,9,0,0,0,3.57-.94,13.59,13.59,0,0,0,3.43-2.43,20,20,0,0,0,3-3.72,24.8,24.8,0,0,0,2.35-4.82"/><path class="cls-5" d="M104.34,158.42l.1,0,0,0,1-.51,1-.56,1-.59c.34-.2.67-.41,1-.62.53,1.82,1.92,6.65-.31,9.2,1-.65,2-1.33,3-2.05s1.92-1.48,2.84-2.26,1.82-1.61,2.7-2.46,1.73-1.73,2.55-2.64l0,0c-1.18,1.21-2.75,2.83-4,4a55.71,55.71,0,0,1-6.37,5,53.08,53.08,0,0,1-7.2,4.14l-.22.1a4.26,4.26,0,0,0,1.66-1.4,7.08,7.08,0,0,0,1.08-2.33,12.93,12.93,0,0,0,.41-3.15,21.82,21.82,0,0,0-.33-3.87"/><path class="cls-5" d="M121,143.92l.71-1c.24-.36.46-.72.69-1.08l.66-1.09.63-1.12c.81.54,1.52,1,2.12,1.45s1.09.81,1.47,1.13a5.76,5.76,0,0,1,.82.79c.17.21.22.36.17.45-.77,1.3-1.77,3-2.59,4.3l-1,1.44a.77.77,0,0,0,0-.71,4,4,0,0,0-.6-1.12,16.1,16.1,0,0,0-1.25-1.52c-.52-.56-1.15-1.19-1.89-1.87"/><path class="cls-5" d="M130.57,118.46l-.63.08c.05-.77.08-1.55.1-2.33s0-1.55,0-2.32-.08-1.55-.15-2.32-.16-1.54-.27-2.3l.63-.3c.41-.2.81-.39,1.19-.6s.72-.41,1.05-.61.64-.42.93-.64a8.78,8.78,0,0,0,.79-.64c1.86-1.66,2.14-1.92,2.32.23l.15,3,0,2.88c-.09,3-.54,4.07-2.08,4.88-.25.1-.51.21-.8.3s-.61.19-.94.28-.69.17-1.07.25-.78.15-1.21.21m-.48,4.38c.42,0,.81,0,1.17,0s.72,0,1.05-.08l.91-.11a7.73,7.73,0,0,0,.78-.15c1.86-.62,2-1.47,2.34-4.64a60.53,60.53,0,0,0-.51-16.46,3.21,3.21,0,0,1-.2,1.71,5.86,5.86,0,0,1-1.15,1.77,11.76,11.76,0,0,1-2.07,1.77,21,21,0,0,1-3,1.67c.21,1.19.36,2.4.46,3.61s.15,2.42.15,3.64,0,2.43-.15,3.65-.24,2.44-.44,3.65h.64"/></g></g></g><path class="cls-11" d="M86.49,128.91h0c-.29,0-.43-.06-.71-.09.16-.1.25-.14.41-.23l1,.15-.39.24-1.37.28h0c.24.06.36.1.61.18l-.39.23-2,.31.42-.22,1.34-.21h0l-.63-.18.31-.17Z"/><path class="cls-11" d="M89,127.38c.17,0,.23,0,.19.08a1.6,1.6,0,0,1-.46.36,5.85,5.85,0,0,1-.79.4,2.71,2.71,0,0,1-.69.18l-.26,0c-.18,0-.25,0-.2-.09a1.25,1.25,0,0,1,.46-.33,7.55,7.55,0,0,1,.81-.39,3,3,0,0,1,.68-.2Zm-.68.28a2.25,2.25,0,0,0-.4.11l-.45.21c-.14.08-.22.14-.22.17s0,0,.16,0l.26,0a1.79,1.79,0,0,0,.4-.1,3.55,3.55,0,0,0,.44-.21c.14-.09.22-.15.23-.19s0,0-.16,0Z"/><path class="cls-11" d="M89.74,126.93l.56-.1-.41.26-1.41.23.8-.44a6.25,6.25,0,0,1,.67-.35,3,3,0,0,1,.5-.19c.07,0,.1,0,.09,0s0,.07-.12.13a3.38,3.38,0,0,1,.39-.19,1.61,1.61,0,0,1,.28-.1l.11,0,.14,0,.17-.07h0l-.42.27-.18.06-.15,0-.1,0a1,1,0,0,0-.24.08l-.3.16Zm-.21,0,.36-.22a.87.87,0,0,0,.21-.14s0,0-.06,0a1.33,1.33,0,0,0-.24.08l-.31.16-.37.21Z"/><path class="cls-11" d="M91.8,125.89l-1.36.32.72-.42c.26-.15.52-.28.79-.41a5.1,5.1,0,0,1,.64-.27l.22-.06c.16,0,.21,0,.16,0a2.11,2.11,0,0,1-.47.36Zm-.73,0,.93-.23.27-.18a.77.77,0,0,0,.25-.19s0,0-.12,0l-.23.07-.37.14a4.92,4.92,0,0,0-.45.24Z"/><path class="cls-11" d="M88.06,129.15h0c-.37-.08-.55-.11-.91-.17l.49-.31a13,13,0,0,1,1.28.29l-.46.31-1.71.33h0l.8.29-.47.32c-1,.14-1.51.21-2.52.33l.5-.3,1.68-.22h0l-.83-.3.38-.23Z"/><path class="cls-11" d="M91,127.05c.22,0,.31,0,.26.13a1.58,1.58,0,0,1-.53.51,5,5,0,0,1-1,.53,2.6,2.6,0,0,1-.84.23l-.33,0c-.23,0-.32,0-.27-.14a1.57,1.57,0,0,1,.54-.46,9.11,9.11,0,0,1,1-.51,3.76,3.76,0,0,1,.83-.26Zm-.82.38a2,2,0,0,0-.49.14,3.4,3.4,0,0,0-.54.27c-.17.11-.26.19-.26.25s.06.07.21.06l.33,0a1.49,1.49,0,0,0,.49-.13,2.25,2.25,0,0,0,.53-.28c.17-.12.26-.2.26-.26s-.06-.08-.2-.06Z"/><path class="cls-11" d="M91.93,126.44l.69-.11-.48.35c-.71.1-1.06.15-1.76.27l1-.61a7.84,7.84,0,0,1,.8-.47,3.4,3.4,0,0,1,.61-.24c.09,0,.13,0,.13,0a.5.5,0,0,1-.14.17,3.66,3.66,0,0,1,.46-.25,1.62,1.62,0,0,1,.35-.12l.13,0,.18,0a.72.72,0,0,0,.2-.09h0l-.5.37a.85.85,0,0,1-.22.09l-.18,0-.13,0a1,1,0,0,0-.3.11,1.9,1.9,0,0,0-.35.21Zm-.27,0,.43-.29a1.44,1.44,0,0,0,.25-.2s0,0-.08,0a1.36,1.36,0,0,0-.29.11,2.61,2.61,0,0,0-.38.22l-.44.29Z"/><path class="cls-11" d="M94.4,125l-1.68.39.86-.56a9,9,0,0,1,.94-.56,4.12,4.12,0,0,1,.78-.36l.27-.08c.2-.06.27,0,.2.06a2.09,2.09,0,0,1-.54.49Zm-.92,0c.45-.13.68-.18,1.15-.3l.32-.23a1.09,1.09,0,0,0,.29-.27s0-.06-.16,0l-.28.08a3.5,3.5,0,0,0-.46.19c-.18.1-.36.2-.54.32Z"/><path class="cls-11" d="M90,129.6h0c-.48-.14-.72-.2-1.19-.31l.59-.42c.65.17,1,.27,1.66.5l-.54.43c-.85.16-1.28.23-2.13.37h0c.41.18.62.28,1,.49l-.54.43c-1.26.14-1.9.21-3.17.33l.6-.41,2.1-.21h0c-.45-.21-.67-.31-1.1-.49l.45-.31Z"/><path class="cls-11" d="M93.51,126.71c.27,0,.38,0,.34.21a1.8,1.8,0,0,1-.6.7,5.15,5.15,0,0,1-1.15.72,2.79,2.79,0,0,1-1,.29h-.42c-.28,0-.4-.06-.36-.22s.26-.37.63-.64a7,7,0,0,1,1.18-.69,3.89,3.89,0,0,1,1-.34Zm-1,.5a2.47,2.47,0,0,0-.61.17,3.86,3.86,0,0,0-.65.37c-.2.16-.3.27-.3.34s.09.11.27.11l.42,0a1.73,1.73,0,0,0,.61-.16,2.46,2.46,0,0,0,.64-.38c.2-.16.29-.29.29-.37s-.09-.11-.27-.09Z"/><path class="cls-11" d="M94.57,125.87l.88-.12-.58.49c-.88.1-1.32.15-2.2.28l1.13-.84a9.76,9.76,0,0,1,1-.63,2.82,2.82,0,0,1,.74-.32c.11,0,.16,0,.16,0a.57.57,0,0,1-.15.24,4.16,4.16,0,0,1,.55-.34,2.12,2.12,0,0,1,.43-.16l.16,0,.22-.06a1.49,1.49,0,0,0,.25-.13h0l-.59.5a.88.88,0,0,1-.26.12l-.23.06-.15,0a1.2,1.2,0,0,0-.37.15,2.56,2.56,0,0,0-.42.28Zm-.33,0,.51-.4a1.27,1.27,0,0,0,.29-.28s0-.07-.11,0a1.26,1.26,0,0,0-.35.14,3.06,3.06,0,0,0-.45.29l-.52.4Z"/><path class="cls-11" d="M97.53,124c-.84.18-1.26.28-2.08.48l1-.77a12.49,12.49,0,0,1,1.13-.77,5.06,5.06,0,0,1,.94-.47l.33-.11c.24-.08.33,0,.26.11a2.53,2.53,0,0,1-.62.68Zm-1.17,0c.56-.15.84-.23,1.42-.37l.37-.32c.21-.18.32-.3.34-.38s0-.08-.21,0l-.34.1a2.62,2.62,0,0,0-.55.26,4.48,4.48,0,0,0-.64.43C96.59,123.72,96.51,123.78,96.36,123.91Z"/><path class="cls-11" d="M92.59,130.39h0c-.64-.24-1-.35-1.56-.54l.7-.58c.84.29,1.27.46,2.17.84l-.63.61-2.65.41h0c.55.29.84.45,1.41.78-.25.24.16.36.36.6-1.28.13-1.92.19-3.18.28l-.55-.56,2.24-.18h0c-1.26-.34-1-.5-1.58-.79l.53-.43C91,130.66,91.5,130.57,92.59,130.39Z"/><path class="cls-11" d="M96.63,126.36c.34,0,.49.08.46.32a2.21,2.21,0,0,1-.67,1,5.38,5.38,0,0,1-1.36,1,2.81,2.81,0,0,1-1.29.36h-.53c-.36,0-.52-.12-.48-.35s.27-.53.71-.9a8,8,0,0,1,1.4-.94,3.78,3.78,0,0,1,1.25-.43Zm-1.2.67a2.25,2.25,0,0,0-.74.22,3.23,3.23,0,0,0-.78.5c-.23.21-.35.37-.34.48s.14.17.36.17h.53a1.94,1.94,0,0,0,.76-.18,2.89,2.89,0,0,0,.75-.52c.23-.23.34-.4.33-.52s-.13-.18-.36-.17Z"/><path class="cls-11" d="M97.86,125.19l1.09-.12-.66.68c-1.11.09-1.66.15-2.75.27l1.32-1.15A8.82,8.82,0,0,1,98,124a2.89,2.89,0,0,1,.9-.42c.14,0,.2,0,.21.06s0,.18-.17.34a5.42,5.42,0,0,1,.66-.46,1.81,1.81,0,0,1,.53-.21l.19,0,.27-.08a1.46,1.46,0,0,0,.3-.17h0c-.27.29-.4.43-.68.71a1.3,1.3,0,0,1-.31.16l-.29.07-.19,0a1.2,1.2,0,0,0-.44.18,3.5,3.5,0,0,0-.5.4Zm-.42.06.59-.56a1.34,1.34,0,0,0,.34-.39c0-.08,0-.11-.14-.09a1.38,1.38,0,0,0-.43.19,3.35,3.35,0,0,0-.53.4l-.61.55Z"/><path class="cls-11" d="M101.36,122.57c-1,.21-1.56.33-2.58.58l1.19-1.08a13.21,13.21,0,0,1,1.32-1,5.13,5.13,0,0,1,1.13-.64l.4-.14c.3-.1.42,0,.35.17a3.39,3.39,0,0,1-.69,1C102,121.85,101.8,122.09,101.36,122.57Zm-1.5-.15c.7-.19,1-.28,1.76-.45l.43-.46a1.19,1.19,0,0,0,.37-.52c0-.11-.07-.13-.27-.07l-.41.13a2.9,2.9,0,0,0-.67.35,4.52,4.52,0,0,0-.75.59Z"/><path class="cls-11" d="M96.14,131.17v0c-.74-.33-1.11-.48-1.82-.76l.72-.73c1,.42,1.5.65,2.56,1.19l-.65.76c-1.18.18-1.94.27-2.86.43v0c1.32.4,2,.61,3.27,1.07.19.3.28.45.48.75-1.41.11-2.1.16-3.48.23l-.56-.72c1,0,1.47-.07,2.45-.13v0c-1.35-.46-2-.67-3.4-1.07-.17-.22,0-.32.21-.54C94.31,131.46,94.92,131.37,96.14,131.17Z"/><path class="cls-11" d="M100.27,126.09c.39,0,.58.13.57.45a2.44,2.44,0,0,1-.65,1.27A5,5,0,0,1,98.75,129a2.7,2.7,0,0,1-1.42.41l-.61,0c-.4,0-.6-.19-.59-.49a2.05,2.05,0,0,1,.71-1.14,6.63,6.63,0,0,1,1.49-1.17,3.19,3.19,0,0,1,1.38-.5Zm-1.28.83a1.89,1.89,0,0,0-.82.24,3.27,3.27,0,0,0-.83.62c-.24.27-.36.47-.33.62s.17.22.43.23l.6,0a1.74,1.74,0,0,0,.84-.21,2.41,2.41,0,0,0,.8-.64c.24-.28.34-.51.31-.67s-.17-.23-.42-.22Z"/><path class="cls-11" d="M101.55,124.63l1.24-.1-.68.85c-1.26.07-1.89.11-3.12.21l1.37-1.45a8.74,8.74,0,0,1,1.19-1.08,2.59,2.59,0,0,1,1-.5c.15,0,.24,0,.25.09a.76.76,0,0,1-.15.45,4.39,4.39,0,0,1,.7-.57,1.49,1.49,0,0,1,.58-.23l.22,0a1.21,1.21,0,0,0,.3-.09,1.27,1.27,0,0,0,.33-.2h0c-.27.36-.41.54-.69.89a1.05,1.05,0,0,1-.34.19,2.83,2.83,0,0,1-.33.07l-.21,0a1.1,1.1,0,0,0-.49.22,2.36,2.36,0,0,0-.52.49Zm-.47.05.61-.7a1.61,1.61,0,0,0,.33-.5c0-.1,0-.14-.17-.12a1.24,1.24,0,0,0-.47.21,3.1,3.1,0,0,0-.56.5l-.63.7Z"/><path class="cls-11" d="M105.25,121.39c-1.17.22-1.75.33-2.9.59.49-.54.74-.81,1.22-1.36a12.19,12.19,0,0,1,1.4-1.3,4.45,4.45,0,0,1,1.23-.76l.45-.15c.33-.11.47,0,.42.26a3.36,3.36,0,0,1-.68,1.23C105.93,120.5,105.71,120.8,105.25,121.39Zm-1.75-.31c.78-.19,1.18-.29,2-.46l.45-.57a1.42,1.42,0,0,0,.36-.68c0-.13-.1-.17-.32-.11l-.46.14a2.29,2.29,0,0,0-.73.41,4.59,4.59,0,0,0-.8.74Z"/><path class="cls-11" d="M100.69,132.32v0a14.88,14.88,0,0,1-2.55-1.06l.75-.92c1.16.59,1.77.92,3,1.64-.26.39.26.58.45,1l-2.56.45v0c1.41.53,2.11.82,3.48,1.43l.48,1c-1.54.08-2.3.11-3.81.15l-.56-.9c1.07,0,1.61,0,2.69-.08v0c-1.43-.61-2.16-.9-3.63-1.44L98,132.8C99.08,132.62,99.62,132.53,100.69,132.32Z"/><path class="cls-11" d="M104.43,125.94a.59.59,0,0,1,.69.61,2.9,2.9,0,0,1-.61,1.6,5.22,5.22,0,0,1-1.5,1.53,2.49,2.49,0,0,1-1.58.47l-.68-.07c-.47-.05-.71-.27-.73-.66a2.52,2.52,0,0,1,.68-1.45,6.64,6.64,0,0,1,1.57-1.44,3,3,0,0,1,1.52-.59Zm-1.37,1a1.77,1.77,0,0,0-.91.28,2.88,2.88,0,0,0-.87.77,1.05,1.05,0,0,0-.32.78c.05.2.22.3.52.33l.68.05a1.65,1.65,0,0,0,.93-.23,2.37,2.37,0,0,0,.84-.8,1.14,1.14,0,0,0,.29-.85c0-.2-.21-.31-.5-.31Z"/><path class="cls-11" d="M105.73,124.11l1.4-.07c-.27.43-.41.64-.69,1.07-1.42,0-2.13,0-3.53.11l1.4-1.83a8.2,8.2,0,0,1,1.24-1.34,2.23,2.23,0,0,1,1.07-.59c.17,0,.27,0,.3.14a1,1,0,0,1-.12.57,3.87,3.87,0,0,1,.74-.7,1.58,1.58,0,0,1,.64-.27l.24,0a1.73,1.73,0,0,0,.33-.1,1.41,1.41,0,0,0,.36-.24h0l-.7,1.12a1,1,0,0,1-.37.22,2,2,0,0,1-.36.07l-.24,0a1.09,1.09,0,0,0-.54.25,3,3,0,0,0-.55.61C106.14,123.52,106,123.71,105.73,124.11Zm-.54,0,.62-.88a1.88,1.88,0,0,0,.33-.63c0-.13,0-.19-.21-.17a1.19,1.19,0,0,0-.51.25,3,3,0,0,0-.59.63l-.64.87Z"/><path class="cls-11" d="M109.6,120.11c-1.32.2-2,.32-3.26.57l1.25-1.7a10.79,10.79,0,0,1,1.45-1.62,4,4,0,0,1,1.34-.9l.5-.16c.37-.11.55,0,.52.37a3.89,3.89,0,0,1-.64,1.56C110.3,119,110.07,119.36,109.6,120.11Zm-2-.53c.88-.2,1.32-.29,2.22-.47l.45-.71a1.77,1.77,0,0,0,.34-.86c0-.18-.14-.24-.38-.17l-.52.14a2.25,2.25,0,0,0-.8.48,5,5,0,0,0-.83.92Z"/><path class="cls-11" d="M106.6,133.88v0c-1.53-.61-2.3-.89-3.86-1.43-.22-.45-.06-.68.24-1.14a49.73,49.73,0,0,0,4.94,2.19l.45,1.19c-1.14.2-1.7.3-2.82.46l0,0c1.5.72,2.24,1.09,3.7,1.89.18.47.27.7.46,1.17-1.69,0-2.52.06-4.16,0-.23-.44-.34-.66-.56-1.11,1.17,0,1.76,0,2.93,0v0c-1.52-.8-2.29-1.18-3.87-1.9l-.41-.85C104.82,134.2,105.41,134.1,106.6,133.88Z"/><path class="cls-11" d="M108.85,125.93a.8.8,0,0,1,.84.8,3.56,3.56,0,0,1-.54,2,5.16,5.16,0,0,1-1.56,1.88,2.36,2.36,0,0,1-1.74.54l-.79-.12a.91.91,0,0,1-.88-.86,2.92,2.92,0,0,1,.64-1.82,6.41,6.41,0,0,1,1.64-1.78,2.75,2.75,0,0,1,1.66-.68Zm-1.46,1.22a1.67,1.67,0,0,0-1,.32,3,3,0,0,0-.91.94,1.3,1.3,0,0,0-.28,1,.62.62,0,0,0,.61.43l.78.09a1.58,1.58,0,0,0,1-.26,2.49,2.49,0,0,0,.88-1,1.46,1.46,0,0,0,.24-1.06.58.58,0,0,0-.6-.42Z"/><path class="cls-11" d="M110.16,123.65l1.59,0-.68,1.33c-1.62,0-2.43,0-4,0l1.41-2.27a8.87,8.87,0,0,1,1.29-1.66,2.16,2.16,0,0,1,1.16-.7c.19,0,.31,0,.35.2a1.32,1.32,0,0,1-.08.72,4.16,4.16,0,0,1,.78-.85,1.46,1.46,0,0,1,.7-.32l.28,0a1.29,1.29,0,0,0,.37-.1,1.17,1.17,0,0,0,.38-.29h.06l-.69,1.39a1,1,0,0,1-.41.26,1.66,1.66,0,0,1-.4.08l-.27,0a1,1,0,0,0-.59.3,2.71,2.71,0,0,0-.56.75Zm-.6,0c.24-.44.37-.66.61-1.09a2,2,0,0,0,.32-.79c0-.17-.08-.25-.26-.23a1.07,1.07,0,0,0-.56.3,3,3,0,0,0-.61.77l-.65,1.08Z"/><path class="cls-11" d="M114.2,118.74c-1.49.2-2.23.31-3.68.56.51-.84.76-1.27,1.26-2.12a11.39,11.39,0,0,1,1.5-2,3.82,3.82,0,0,1,1.44-1.07l.57-.17q.61-.2.63.51a4.68,4.68,0,0,1-.59,2Zm-2.39-.79c1-.2,1.49-.3,2.49-.47.18-.35.27-.53.44-.89a1.93,1.93,0,0,0,.31-1.07q0-.34-.45-.24c-.24,0-.35.09-.58.15a2.08,2.08,0,0,0-.87.56,4.87,4.87,0,0,0-.86,1.13Z"/><path class="cls-11" d="M112.77,136v0c-1.63-.8-2.45-1.18-4.13-1.88-.2-.57-.3-.85-.51-1.42a64.4,64.4,0,0,1,6.11,2.88c.16.6.24.89.41,1.48-1.26.21-1.88.3-3.11.46v0c1.6.92,2.38,1.41,3.92,2.44.17.58.25.87.42,1.46-1.83,0-2.74,0-4.53-.12-.22-.55-.32-.82-.53-1.38,1.27.06,1.9.09,3.19.12v0c-1.6-1-2.42-1.53-4.09-2.46-.15-.42-.23-.63-.39-1.05C110.81,136.29,111.46,136.19,112.77,136Z"/><path class="cls-11" d="M113.74,126.1c.57,0,.91.38,1,1a4.73,4.73,0,0,1-.45,2.52,5.55,5.55,0,0,1-1.61,2.31c-.66.54-.77.73-1.45.62l-1-.18a1.55,1.55,0,0,1-1.42-1.11,3.79,3.79,0,0,1,.56-2.28,7,7,0,0,1,1.7-2.19,2.7,2.7,0,0,1,1.83-.79Zm-1.55,1.48a1.68,1.68,0,0,0-1.12.36,3.1,3.1,0,0,0-.95,1.16,1.72,1.72,0,0,0-.23,1.23.83.83,0,0,0,.73.57l.89.14a1.5,1.5,0,0,0,1.15-.28,2.69,2.69,0,0,0,.91-1.21,2,2,0,0,0,.2-1.33.78.78,0,0,0-.73-.55Z"/><path class="cls-11" d="M115,123.28l1.8,0-.66,1.65c-1.84-.12-2.75-.16-4.55-.2L113,122a9.2,9.2,0,0,1,1.31-2,2.16,2.16,0,0,1,1.26-.83.36.36,0,0,1,.42.27,1.87,1.87,0,0,1,0,.91,4.17,4.17,0,0,1,.81-1,1.36,1.36,0,0,1,.77-.36l.31,0a.9.9,0,0,0,.41-.12,1.11,1.11,0,0,0,.42-.34h.06l-.67,1.72a.87.87,0,0,1-.44.3,2,2,0,0,1-.45.09h-.3a1,1,0,0,0-.65.35,3.16,3.16,0,0,0-.57.92C115.43,122.37,115.29,122.67,115,123.28Zm-.69,0,.61-1.35a2.41,2.41,0,0,0,.28-1q0-.32-.3-.3a1,1,0,0,0-.62.35,3.55,3.55,0,0,0-.62,1c-.26.54-.39.8-.64,1.34Z"/><path class="cls-11" d="M119.19,117.26c-1.68.17-2.51.28-4.14.52.5-1,.75-1.57,1.24-2.62a11.34,11.34,0,0,1,1.53-2.45,3.67,3.67,0,0,1,1.55-1.28l.63-.18c.47-.13.73.09.78.68a6,6,0,0,1-.5,2.45C119.85,115.54,119.63,116.11,119.19,117.26Zm-2.8-1.12c1.11-.21,1.67-.3,2.8-.47.18-.44.26-.66.43-1.1a2.57,2.57,0,0,0,.26-1.34.38.38,0,0,0-.54-.33l-.65.15a2.06,2.06,0,0,0-1,.67,5.62,5.62,0,0,0-.88,1.39C116.68,115.52,116.58,115.72,116.39,116.14Z"/><path class="cls-11" d="M119.58,138.81v0c-1.72-1-2.59-1.53-4.37-2.46-.18-.7-.27-1.05-.46-1.76a62.18,62.18,0,0,1,6.46,3.77c.14.73.2,1.1.34,1.83-1.38.21-2.06.3-3.41.45v0c1.67,1.19,2.49,1.82,4.09,3.15.15.73.22,1.09.36,1.81-2-.08-3-.14-4.92-.32-.2-.68-.3-1-.49-1.72,1.38.13,2.07.18,3.47.27v0c-1.67-1.35-2.53-2-4.28-3.19-.14-.52-.21-.78-.36-1.31C117.43,139.14,118.14,139,119.58,138.81Z"/><path class="cls-11" d="M119.49,126.52c.65.07,1.07.52,1.25,1.36a6.34,6.34,0,0,1-.28,3.16,28.76,28.76,0,0,1-.67,2.84,1.31,1.31,0,0,1-1.63.71l-1.09-.25a4,4,0,0,1-2.12-1.45,2.61,2.61,0,0,1-.15-2.86,7.59,7.59,0,0,1,1.74-2.69,2.59,2.59,0,0,1,2-.92Zm-1.63,1.81a1.59,1.59,0,0,0-1.23.41,3.28,3.28,0,0,0-1,1.43,2.31,2.31,0,0,0-.16,1.55,1.5,1.5,0,0,0,1.16.74l1.12.21a1,1,0,0,0,1.09-.32,5,5,0,0,0,.74-1.48,2.66,2.66,0,0,0,.1-1.67,1,1,0,0,0-.86-.73Z"/><path class="cls-11" d="M120.71,123l2.05.13c-.25.82-.37,1.23-.61,2-2.1-.22-3.14-.31-5.19-.44.54-1.39.81-2.09,1.35-3.5a10.37,10.37,0,0,1,1.31-2.53,2.07,2.07,0,0,1,1.36-1,.46.46,0,0,1,.51.36,2.87,2.87,0,0,1,.05,1.15,4.22,4.22,0,0,1,.83-1.28,1.26,1.26,0,0,1,.84-.42l.36,0a1.11,1.11,0,0,0,.45-.13,1.07,1.07,0,0,0,.44-.41h.07c-.24.86-.36,1.29-.61,2.14a.85.85,0,0,1-.47.37,1.92,1.92,0,0,1-.5.08h-.35a.94.94,0,0,0-.7.42,3.36,3.36,0,0,0-.57,1.14Zm-.78,0,.57-1.68a3.57,3.57,0,0,0,.24-1.23c0-.27-.15-.4-.38-.39a.92.92,0,0,0-.67.41,3.61,3.61,0,0,0-.62,1.17c-.25.66-.37,1-.61,1.66Z"/><path class="cls-11" d="M124.92,115.62c-1.9.14-2.83.22-4.68.45.48-1.3.71-1.95,1.18-3.26a12.82,12.82,0,0,1,1.53-3,3.59,3.59,0,0,1,1.67-1.52l.7-.19c.53-.14.84.16,1,.91a7.74,7.74,0,0,1-.36,3.06C125.52,113.48,125.32,114.2,124.92,115.62Zm-3.29-1.57c1.25-.19,1.88-.28,3.16-.43.16-.55.23-.82.39-1.37a3.61,3.61,0,0,0,.18-1.68c-.1-.38-.31-.53-.66-.46l-.73.17a1.94,1.94,0,0,0-1,.79,6,6,0,0,0-.88,1.7C121.9,113.29,121.81,113.54,121.63,114.05Z"/><path class="cls-11" d="M126.54,142.57v0c-1.79-1.34-2.71-2-4.58-3.19-.16-.87-.23-1.3-.39-2.17a62.63,62.63,0,0,1,6.78,4.86l.25,2.28c-1.52.19-2.27.28-3.74.41v0c1.75,1.53,2.59,2.34,4.25,4,.1.89.15,1.34.26,2.24-2.16-.19-3.23-.31-5.33-.61-.16-.85-.25-1.27-.41-2.12,1.49.21,2.24.3,3.75.47v0c-1.73-1.72-2.62-2.54-4.45-4.09l-.3-1.61C124.17,142.89,125,142.79,126.54,142.57Z"/><path class="cls-11" d="M125.75,127.36c.74.11,1.24.69,1.52,1.74a31.67,31.67,0,0,1,.26,3.93,6.27,6.27,0,0,1-.43,3.49,1.41,1.41,0,0,1-1.82.81L124.1,137a4.26,4.26,0,0,1-2.21-1.86c-.67-1-1.6-2.17-1.18-3.56a8.5,8.5,0,0,1,1.75-3.31,2.56,2.56,0,0,1,2.21-1.07Zm-1.71,2.2a1.54,1.54,0,0,0-1.36.46,3.55,3.55,0,0,0-1,1.76,2.17,2.17,0,0,0,.69,1.92,2.53,2.53,0,0,0,1.39,1l1.21.3a1,1,0,0,0,1.21-.36,2.58,2.58,0,0,0,.29-1.81,9.17,9.17,0,0,0-.28-2.08,1.37,1.37,0,0,0-1-.94Z"/><path class="cls-11" d="M126.85,123l2.33.24c-.21,1-.31,1.52-.53,2.53-2.4-.35-3.58-.5-5.91-.75.5-1.72.74-2.59,1.24-4.33a12,12,0,0,1,1.28-3.1c.49-.76,1-1.16,1.47-1.18a.61.61,0,0,1,.6.48,3.58,3.58,0,0,1,.15,1.44,5,5,0,0,1,.84-1.56,1.3,1.3,0,0,1,.93-.49h.41a1.05,1.05,0,0,0,.5-.15,1.07,1.07,0,0,0,.47-.49h.08c-.21,1.06-.31,1.59-.52,2.65a.9.9,0,0,1-.51.44,1.94,1.94,0,0,1-.56.08l-.4,0a1,1,0,0,0-.77.49,4.12,4.12,0,0,0-.55,1.4ZM126,123c.2-.83.3-1.25.51-2.08a4.26,4.26,0,0,0,.17-1.53c0-.33-.2-.5-.46-.51a.94.94,0,0,0-.73.49,4.3,4.3,0,0,0-.61,1.43c-.22.83-.33,1.24-.56,2.07C125,122.86,125.28,122.89,126,123Z"/><path class="cls-11" d="M131,114c-2.15.08-3.21.14-5.29.33.43-1.6.65-2.41,1.08-4a14.72,14.72,0,0,1,1.49-3.71c.61-1,1.2-1.66,1.78-1.82l.79-.2c.59-.15,1,.24,1.15,1.19a10.35,10.35,0,0,1-.15,3.81C131.55,111.32,131.38,112.21,131,114Zm-3.87-2.12c1.41-.19,2.12-.26,3.56-.39.14-.68.2-1,.34-1.69a4.73,4.73,0,0,0,.06-2.1c-.14-.48-.39-.68-.78-.6l-.82.16a2,2,0,0,0-1.1.94,6.64,6.64,0,0,0-.86,2.09Z"/><path class="cls-11" d="M134,147.27v-.07c-1.86-1.72-2.81-2.54-4.77-4.09-.11-1.08-.16-1.62-.27-2.7a65.58,65.58,0,0,1,7.05,6.24c0,1.13.06,1.69.11,2.82-1.67.19-2.49.26-4.11.37v.06c1.79,2,2.66,3,4.34,5.14,0,1.11.07,1.67.13,2.78-2.35-.31-3.5-.51-5.76-1l-.3-2.63c1.6.32,2.41.46,4,.73v-.06c-1.76-2.18-2.67-3.22-4.56-5.2-.08-.8-.13-1.2-.21-2C131.35,147.57,132.21,147.48,134,147.27Z"/><path class="cls-11" d="M133.07,128.39c.85.17,1.47.91,1.86,2.23a18.64,18.64,0,0,1,.79,4.89,8.91,8.91,0,0,1-.72,4.3c-.52,1-1.19,1.26-2.05.94l-1.26-.46a4.65,4.65,0,0,1-2.28-2.37,11.61,11.61,0,0,1-1.25-4.44,5.71,5.71,0,0,1,1.27-4.07c.78-1,1.57-1.43,2.41-1.27Zm-1.75,2.69a1.54,1.54,0,0,0-1.51.53,2.67,2.67,0,0,0-.48,2.16,5.15,5.15,0,0,0,.72,2.4,2.69,2.69,0,0,0,1.45,1.23l1.3.41a1.08,1.08,0,0,0,1.34-.4,3.54,3.54,0,0,0,.45-2.23,5.5,5.5,0,0,0-.63-2.59,2.25,2.25,0,0,0-1.36-1.21Z"/><path class="cls-11" d="M134,123c1.06.14,1.59.22,2.66.38l-.4,3.14c-2.74-.53-4.09-.76-6.76-1.15.43-2.14.64-3.21,1.06-5.37a14,14,0,0,1,1.21-3.83c.49-.93,1-1.4,1.57-1.4.32,0,.56.2.72.61a5.52,5.52,0,0,1,.29,1.81,5.32,5.32,0,0,1,.83-1.91,1.26,1.26,0,0,1,1-.58l.46,0a1.17,1.17,0,0,0,.56-.16,1.25,1.25,0,0,0,.5-.61h.09c-.16,1.31-.23,2-.39,3.27a.9.9,0,0,1-.54.53,1.82,1.82,0,0,1-.63.08l-.45,0c-.32,0-.6.17-.83.57a5,5,0,0,0-.53,1.73C134.24,121.31,134.16,121.88,134,123Zm-1-.14c.17-1,.25-1.54.42-2.58a5.77,5.77,0,0,0,.07-1.9c-.08-.42-.27-.64-.56-.65s-.55.18-.79.58a5.22,5.22,0,0,0-.58,1.76c-.18,1-.28,1.54-.47,2.56Z"/><path class="cls-11" d="M138,111.9c-2.43,0-3.63,0-6,.19l.9-5a17.06,17.06,0,0,1,1.4-4.58c.61-1.28,1.22-2,1.88-2.18l.88-.21c.66-.16,1.12.34,1.41,1.53a14.12,14.12,0,0,1,.12,4.75C138.39,108.62,138.27,109.71,138,111.9Zm-4.57-2.82c1.59-.16,2.39-.23,4-.33l.25-2.09a6.49,6.49,0,0,0-.09-2.62c-.2-.6-.51-.86-.94-.78l-.92.16c-.43.08-.82.46-1.18,1.12a8.26,8.26,0,0,0-.81,2.58C133.65,107.91,133.58,108.3,133.45,109.08Z"/><path class="cls-11" d="M141.74,153.48v-.08c-1.89-2.18-2.86-3.22-4.86-5.2,0-1.32-.06-2-.09-3.3a71.53,71.53,0,0,1,7.15,7.9c0,1.38,0,2.07-.09,3.45-1.81.17-2.7.23-4.45.3v.07c1.79,2.47,2.65,3.76,4.3,6.46,0,1.37,0,2-.06,3.41-2.5-.47-3.73-.75-6.13-1.39-.06-1.29-.09-1.94-.14-3.24,1.71.45,2.57.66,4.31,1v-.07c-1.75-2.74-2.65-4.05-4.54-6.54,0-1-.06-1.47-.09-2.46C138.91,153.75,139.84,153.68,141.74,153.48Z"/><path class="cls-11" d="M141.46,130.3c1,.24,1.7,1.17,2.29,2.82a16.18,16.18,0,0,1,.74,6,12.26,12.26,0,0,1-1.08,5.25c-.63,1.16-1.38,1.49-2.28,1.07l-1.32-.61a5.21,5.21,0,0,1-2.29-3,15.33,15.33,0,0,1-1-5.48,8.64,8.64,0,0,1,1-5c.79-1.19,1.65-1.71,2.6-1.47Zm-1.62,3.25a1.32,1.32,0,0,0-1.54.6,4.56,4.56,0,0,0-.58,2.63,7,7,0,0,0,.61,3,3,3,0,0,0,1.47,1.55l1.38.56a1.14,1.14,0,0,0,1.48-.44,5.12,5.12,0,0,0,.65-2.72,7.37,7.37,0,0,0-.51-3.19,2.52,2.52,0,0,0-1.51-1.54Z"/><path class="cls-11" d="M142.07,123.74c1.2.22,1.8.33,3,.58-.08,1.54-.12,2.31-.21,3.84-3.12-.75-4.65-1.09-7.67-1.68.31-2.62.47-3.94.77-6.58a17,17,0,0,1,1.06-4.68c.48-1.12,1-1.69,1.67-1.66.35,0,.64.28.85.79a7.42,7.42,0,0,1,.46,2.24,6.53,6.53,0,0,1,.79-2.32,1.24,1.24,0,0,1,1.1-.66l.52,0a1,1,0,0,0,.62-.17,1.27,1.27,0,0,0,.51-.72h.1c-.07,1.61-.11,2.41-.18,4a.93.93,0,0,1-.57.63,1.77,1.77,0,0,1-.71.07l-.51-.06c-.36,0-.65.18-.89.67a6,6,0,0,0-.45,2.11C142.23,121.62,142.18,122.32,142.07,123.74Zm-1.16-.21c.11-1.26.16-1.9.27-3.16a7.68,7.68,0,0,0-.06-2.34q-.19-.8-.69-.84c-.32,0-.6.2-.84.68a6.56,6.56,0,0,0-.51,2.16c-.13,1.26-.2,1.88-.33,3.13Z"/><path class="cls-11" d="M145.77,110.2c-2.75-.11-4.09-.12-6.74-.06.25-2.44.38-3.67.62-6.13a21.69,21.69,0,0,1,1.23-5.58c.59-1.54,1.24-2.42,2-2.58l1-.2c.74-.15,1.3.49,1.72,2a19.87,19.87,0,0,1,.5,5.86C145.94,106.18,145.88,107.52,145.77,110.2Zm-5.38-3.71c1.79-.11,2.69-.15,4.52-.19.05-1,.07-1.54.12-2.57a9,9,0,0,0-.3-3.23c-.27-.75-.64-1.09-1.13-1l-1,.15c-.48.08-.89.52-1.25,1.31a9.71,9.71,0,0,0-.72,3.15C140.52,105.05,140.48,105.53,140.39,106.49Z"/></g></g></svg>