<svg xmlns="http://www.w3.org/2000/svg" viewBox="0 0 180 246.49"><defs><style>.cls-1{fill:#ddd;}.cls-2{font-size:18px;letter-spacing:0.05em;}.cls-10,.cls-11,.cls-12,.cls-13,.cls-14,.cls-15,.cls-16,.cls-17,.cls-18,.cls-2,.cls-20,.cls-3,.cls-4,.cls-5,.cls-6,.cls-7,.cls-8,.cls-9{fill:#ee761c;font-family:Roboto-Bold, Roboto;font-weight:700;}.cls-3{font-size:11px;letter-spacing:0.05em;}.cls-4{font-size:5.66px;letter-spacing:0.05em;}.cls-5{font-size:3.75px;letter-spacing:0.05em;}.cls-6{font-size:2.75px;letter-spacing:0.05em;}.cls-7{font-size:2.12px;letter-spacing:0.05em;}.cls-8{font-size:1.97px;letter-spacing:0.05em;}.cls-9{font-size:1.5px;letter-spacing:0.05em;}.cls-10{font-size:1.16px;letter-spacing:0.05em;}.cls-11{font-size:0.93px;letter-spacing:0.05em;}.cls-12{font-size:0.79px;letter-spacing:0.05em;}.cls-13{font-size:0.7px;letter-spacing:0.05em;}.cls-14{font-size:0.61px;letter-spacing:0.05em;}.cls-15{font-size:0.53px;letter-spacing:0.05em;}.cls-16{font-size:0.49px;letter-spacing:0.05em;}.cls-17{font-size:0.45px;letter-spacing:0.05em;}.cls-18{font-size:0.38px;letter-spacing:0.05em;}.cls-19{fill:#3697d4;}.cls-20{font-size:48px;letter-spacing:0.03em;}.cls-21{letter-spacing:0em;}</style></defs><title>back_3</title><g id="圖層_2" data-name="圖層 2"><g id="圖層_1-2" data-name="圖層 1"><rect class="cls-1" y="0.08" width="180" height="244.69"/><text class="cls-2" transform="translate(130.45 94.27) rotate(90)">WORD</text><text class="cls-3" transform="translate(120.9 106.01) rotate(90)">WORD</text><text class="cls-4" transform="translate(115.23 113.56) rotate(90)">WORD</text><text class="cls-5" transform="translate(111.01 116.52) rotate(90)">WORD</text><text class="cls-6" transform="translate(107.89 118.07) rotate(90)">WORD</text><text class="cls-7" transform="translate(105.73 119.08) rotate(90)">WORD</text><text class="cls-8" transform="translate(103.9 119.24) rotate(90)">WORD</text><text class="cls-9" transform="translate(102.37 120.1) rotate(90)">WORD</text><text class="cls-10" transform="translate(101.02 120.6) rotate(90)">WORD</text><text class="cls-11" transform="translate(99.8 120.91) rotate(90)">WORD</text><text class="cls-12" transform="translate(98.88 121.15) rotate(90)">WORD</text><text class="cls-13" transform="translate(98.12 121.33) rotate(90)">WORD</text><text class="cls-14" transform="translate(97.5 121.42) rotate(90)">WORD</text><text class="cls-15" transform="translate(96.97 121.54) rotate(90)">WORD</text><text class="cls-16" transform="translate(96.49 121.6) rotate(90)">WORD</text><text class="cls-17" transform="translate(95.98 121.68) rotate(90)">WORD</text><text class="cls-18" transform="translate(95.54 121.75) rotate(90)">WORD</text><text class="cls-18" transform="translate(95.13 121.75) rotate(90)">WORD</text><text class="cls-18" transform="translate(94.78 121.75) rotate(90)">WORD</text><text class="cls-18" transform="translate(94.41 121.75) rotate(90)">WORD</text><text class="cls-18" transform="translate(94.05 121.75) rotate(90)">WORD</text><text class="cls-18" transform="translate(93.69 121.75) rotate(90)">WORD</text><text class="cls-18" transform="translate(93.38 121.75) rotate(90)">WORD</text><text class="cls-18" transform="translate(93.03 121.75) rotate(90)">WORD</text><text class="cls-18" transform="translate(92.67 121.75) rotate(90)">WORD</text><text class="cls-18" transform="translate(92.36 121.75) rotate(90)">WORD</text><text class="cls-18" transform="translate(92.02 121.75) rotate(90)">WORD</text><text class="cls-18" transform="translate(91.66 121.75) rotate(90)">WORD</text><text class="cls-18" transform="translate(91.34 121.75) rotate(90)">WORD</text><circle class="cls-19" cx="87.62" cy="61.17" r="61.17"/><circle class="cls-19" cx="87.62" cy="183.51" r="61.17"/><text class="cls-20" transform="translate(16.18 233.48)">HEL<tspan class="cls-21" x="91.12" y="0">L</tspan><tspan x="116.9" y="0">O</tspan></text></g></g></svg>