<svg xmlns="http://www.w3.org/2000/svg" xmlns:xlink="http://www.w3.org/1999/xlink" viewBox="0 0 129.8 124.42"><defs><style>.cls-1{fill:none;}.cls-2{isolation:isolate;}.cls-3{clip-path:url(#clip-path);}.cls-4{fill:#ee761c;}.cls-5{clip-path:url(#clip-path-2);}</style><clipPath id="clip-path" transform="translate(-2.61 -3.93)"><path class="cls-1" d="M4.24,89.89a68.25,68.25,0,0,1-3-10.53C1,77.79.56,75.71.44,74.12S.11,70.46.05,68.89,0,65.2.08,63.62s.19-3.68.44-5.23a100.13,100.13,0,0,1,2.05-10c.43-1.51,1.09-3.5,1.63-5s1.37-3.28,2-4.69S7.82,35.39,8.56,34a44.23,44.23,0,0,1,3-4.78c1.73-2.4,4.19-5.48,6.11-7.72a69,69,0,0,1,7.85-7.27c1.24-.94,2.93-2.23,5-3.53a66.1,66.1,0,0,1,6.62-3.77A63.83,63.83,0,0,1,43.9,4c.54-.2,1.54-.55,2.56-.88,1.64-.52,2.7-.8,4.14-1.17,24.29-6,51.29,11.73,62.93,42.89,12.82,34.29,2.19,71.81-23.74,83.82,25.93-12,36.56-49.53,23.74-83.82C101.89,13.69,74.89-4.08,50.6,2A68.91,68.91,0,0,1,60.86.25,67.71,67.71,0,0,1,69.54.07c1.51.08,3.52.23,5,.41S78,1,79.43,1.26A64.5,64.5,0,0,1,89.27,4a66.06,66.06,0,0,1,9.34,4.22,66.86,66.86,0,0,1,16.31,12.55c1.08,1.15,2.47,2.73,3.46,4s2.21,2.94,3.13,4.21a68.93,68.93,0,0,1,5.32,9.31A56.77,56.77,0,0,1,129.9,46a83.43,83.43,0,0,1,2.5,10.44A66.6,66.6,0,0,1,133.18,67a68.06,68.06,0,0,1-1.92,15.47c-.43,1.47-.93,3.45-1.41,4.91s-1.22,3.45-1.83,4.9a65,65,0,0,1-4.74,9.25c-.79,1.28-1.9,3-2.79,4.18s-2.42,3.11-3.49,4.41a56.69,56.69,0,0,1-5.16,5.35,64,64,0,0,1-6.8,5.51A70.7,70.7,0,0,1,96,126.33a68.25,68.25,0,0,1-6.66,2.83h0l-1.45.51-1.72.56a65.71,65.71,0,0,1-8.26,2,63.6,63.6,0,0,1-9,.94,70.84,70.84,0,0,1-8.74-.28,51,51,0,0,1-5.49-.77c-1.51-.33-3.55-.73-5-1.13a47.8,47.8,0,0,1-4.82-1.47c-1.44-.56-3.39-1.27-4.82-1.89s-3.23-1.49-4.57-2.2a67,67,0,0,1-8.69-5.5,68,68,0,0,1-7.78-6.82,66,66,0,0,1-6.7-8.06,46.05,46.05,0,0,1-3.39-5.32C7.32,96.82,5.44,92.91,4.24,89.89Z"/></clipPath><clipPath id="clip-path-2" transform="translate(-2.61 -3.93)"><path class="cls-1" d="M82.59,131.21c-2.91.7-3.9.85-6.56,1.28-1.4.22-3.28.38-4.69.51a68.77,68.77,0,0,1-9.19,0,49.7,49.7,0,0,1-6.88-.83A65.66,65.66,0,0,1,45,129.57c-1.49-.56-3.48-1.29-4.94-1.92s-3.23-1.49-4.58-2.2a64.54,64.54,0,0,1-8.73-5.51,66.56,66.56,0,0,1-14.53-14.88c-.92-1.31-2.09-3.11-2.91-4.49s-1.79-3.3-2.54-4.72a44.75,44.75,0,0,1-2.56-6,94.36,94.36,0,0,1-3-10.42A65.69,65.69,0,0,1,.05,68.89,85.16,85.16,0,0,1,.5,58.54,67,67,0,0,1,6.1,38.83a66.77,66.77,0,0,1,5-8.93,66.08,66.08,0,0,1,6.58-8.42c.92-1,2.12-2.28,3.12-3.17s2.29-2.09,3.31-2.95,2.1-1.71,3.05-2.38c1.6-1.13,3.12-2.2,5.1-3.38a69.47,69.47,0,0,1,6.37-3.4C40.34,5.37,42.64,4.45,43.9,4c1.51-.54,1.67-.59,2.55-.87C47,3,48.5,2.48,50.6,2A40.91,40.91,0,0,0,43.4,4.5,40.91,40.91,0,0,1,50.6,2c1.32-.3,3.08-.7,4.41-.93S58.35.52,59.79.36a65.74,65.74,0,0,1,8-.35c1.87.1,4.37.21,6.24.41,1.47.15,3.42.46,4.88.73A65.24,65.24,0,0,1,89,3.91c1.48.57,3.46,1.33,4.91,2s3.21,1.54,4.54,2.26a66.11,66.11,0,0,1,8.66,5.64,63.25,63.25,0,0,1,7.72,6.94,60.18,60.18,0,0,1,6.61,8.16,64,64,0,0,1,5.33,9.31,67.09,67.09,0,0,1,3.84,10.27,55.83,55.83,0,0,1,1.75,8c.43,3.12.69,7.32.78,10.46a68,68,0,0,1-1.9,15.43c-.42,1.48-.93,3.46-1.4,4.91s-1.21,3.42-1.8,4.86a65.2,65.2,0,0,1-4.64,9.13c-.83,1.36-2,3.17-3,4.44-1.79,2.3-4.28,5.29-6.26,7.43a47.51,47.51,0,0,1-3.56,3.39c-1.52,1.31-3.61,3-5.22,4.16A68.86,68.86,0,0,1,94.61,127c-2.76,1.28-4.91,2.05-5.31,2.19h0l-1.45.51q-.55.2-1.11.36C84.47,130.76,82.67,131.19,82.59,131.21Z"/></clipPath></defs><title>logo</title><g id="圖層_2" data-name="圖層 2"><g id="圖層_1-2" data-name="圖層 1"><g class="cls-2"><g class="cls-2"><g class="cls-3"><path class="cls-4" d="M109.75,15.92A64.13,64.13,0,0,0,103.24,11c-1-.64-2.33-1.47-3.35-2.07L103,10.83c5.49,3.89,5.59,4,8.19,6.29,2.17,2.11,5,5,7,7.29l-.4-.49a69.94,69.94,0,0,0-8-8" transform="translate(-2.61 -3.93)"/></g></g><g class="cls-2"><g class="cls-5"><path class="cls-4" d="M22.67,72.65c-2.23.62-4.35,1.19-6.35,1.69a84.15,84.15,0,0,1-1.53-19l-.5.12c-3.44.86-6.22,1.43-8.34,1.74a71.88,71.88,0,0,0,.5,19.18,25.58,25.58,0,0,1-3.08.29,68.8,68.8,0,0,1,8.19-44.18,16.54,16.54,0,0,0,1.95-.18,68,68,0,0,0-6.46,18c2-.29,4.58-.82,7.8-1.62l.47-.12A69.74,69.74,0,0,1,19.74,31c1.26-.32,2.6-.68,4-1.08-3.88,12.31-4.41,27.36-1.07,42.69" transform="translate(-2.61 -3.93)"/><path class="cls-4" d="M57.69,61.17c-9.48,3.44-18.83,6.6-27.19,9.17-3.75-15.21-4.26-29.95-1.81-41.83C34,26.89,39.85,24.9,45.83,22.73c.39,1.57.82,3.23,1.28,5-4.77,1.73-9.48,3.36-13.94,4.81-.07,3.09,0,6.35.29,9.74,4.44-1.45,9.11-3,13.84-4.74q.78,2.94,1.66,6c-5.07,1.82-10.07,3.53-14.83,5.08.53,4,1.27,8.15,2.22,12.37,6.08-2,12.52-4.2,19-6.57q1.13,3.32,2.31,6.74" transform="translate(-2.61 -3.93)"/><path class="cls-4" d="M90.34,48.34c-8.18,3.49-17.1,7-26.07,10.4C58.78,44.14,53.77,30.94,50,21.18l5.26-2A297.17,297.17,0,0,1,69.85,49c5.93-2.31,11.74-4.67,17.21-7q1.69,3.09,3.28,6.35" transform="translate(-2.61 -3.93)"/><path class="cls-4" d="M114.84,36.72q-5,2.79-13.07,6.55-2.82,1.3-5.84,2.64C88.81,32,79.58,20.48,70,13.08c1.27-.56,2.5-1.12,3.68-1.66l.72-.34c9.18,5.76,17.86,14.56,24.84,25.48,4.74-2.22,8.6-4.18,11.58-5.85q2.13,2.9,4,6" transform="translate(-2.61 -3.93)"/><path class="cls-4" d="M110.15,16.6c5.17,4.57,8.51,8.93,7.76,10.15-1.2.73-4.06-1.6-10.45-7.46a70.34,70.34,0,0,0-6.4-5.21c-7.86-5.65-10.24-7.36-8.37-7.5,0,0,3.13,0,10.85,5a66.73,66.73,0,0,1,6.61,5M103,10.83,99.87,8.92l-1.56-.87c-7.52-3.9-12.13-4.8-12.78-3.66,0,.87,0,1.39,13,11.37a71.16,71.16,0,0,1,6.13,5.3c17.2,16.53,17.77,11.38,17.78,10.74,0-1.41-1.42-5.18-11.22-14.68-4.93-4.1-5.56-4.62-8.19-6.29" transform="translate(-2.61 -3.93)"/><path class="cls-4" d="M57.82,114.36q-2.58.83-5,1.58A114.4,114.4,0,0,1,34.1,98.07l-.12,0c1.7,5.48,4,13,9.65,20.48l-3,.76-1.09.27C27,110.44,20,102.55,13.05,89.46c1.28-.25,2.7-.55,4.26-.92A86.83,86.83,0,0,0,34,110.91h.12c-2.65-5.34-5.66-11.39-7.89-24.69,1.43-.4,2.9-.82,4.41-1.27a121.69,121.69,0,0,0,17.78,21.84l.13,0a121,121,0,0,1-7.09-25.16q3.3-1.07,6.71-2.22c2.39,14.64,4.54,24.06,9.62,35" transform="translate(-2.61 -3.93)"/><path class="cls-4" d="M82.81,91.23c1.13,3.87,1.33,9-4.14,11.29-5.61,1.8-8.87-2.17-10.61-5.81q-1.31-3-2.62-6.13c-4.23-11.1,4.88-14.8,9.91-12.32,3.45,1.7,4.82,5.3,5.34,6.66.74,2.16,1.45,4.27,2.12,6.31m6.72-2.66c-.58-2.06-1.21-4.18-1.88-6.34-2.71-7.56-10.15-14.59-22.21-9.51-7.77,4.17-10.35,11.77-6.92,20.33q1.41,3.09,2.82,6c7.85,14.36,24.87,9.37,28.2-1.7a15.62,15.62,0,0,0,0-8.77" transform="translate(-2.61 -3.93)"/><path class="cls-4" d="M110.4,68.89c.81,4.64-2.64,6.3-3.94,6.92-1.75.78-3.56,1.56-5.4,2.34C100.21,74.6,99.18,71,98,67.23q2.91-1.24,5.69-2.47c4.91-2,6.34,1.75,6.76,4.13m8.28,21.57.06-.5c-.31-.42-.78-1.06-.72-4.89,0-.87,0-1.75,0-2.63-.25-6.78-3.46-6.72-5-6.68,6.6-8,1.38-18.87-6.51-18.33a15.14,15.14,0,0,0-5,1.35c-4,1.75-8.16,3.54-12.49,5.32,0,.1.07.21.11.31A159.68,159.68,0,0,1,98.3,99.53c1.91-.79,3.79-1.58,5.62-2.36a98.57,98.57,0,0,0-1.66-13.45q3-1.26,5.76-2.5c3-1.21,4.66,0,5,3.65.05.83.08,1.66.09,2.48.13,4.42.48,4.8,1,5.32q2.49-1.15,4.62-2.21" transform="translate(-2.61 -3.93)"/><path class="cls-4" d="M130.9,68.68c0,5.9-1.13,10.27-3.07,11.69-.57.35-1.2.72-1.88,1.1a70.35,70.35,0,0,0-2.49-26.38c.77-.43,1.48-.85,2.13-1.25,3.24-1.57,4.54,6,4.86,8.36a64.53,64.53,0,0,1,.45,6.48m1.5-1.25A64.36,64.36,0,0,0,132,61c-1.3-9.87-4.54-15.06-8.26-13.23q-2.5,1.55-6.21,3.47l.12.32a74.14,74.14,0,0,1,4.24,37.32c2-1.07,3.76-2,5.15-2.88,3.71-2.71,5.36-11.26,5.35-18.52" transform="translate(-2.61 -3.93)"/><path class="cls-4" d="M57.06,127.8l-2.14.55a53.49,53.49,0,0,1-5.71-3l.74-.18a52.11,52.11,0,0,0,4.74,2.57l1.52-.39.85.42" transform="translate(-2.61 -3.93)"/><path class="cls-4" d="M60,127l-2.45.69a51.35,51.35,0,0,1-5.35-3.06l2.76-.77.76.53-1.93.54c.43.28.87.56,1.31.82l1.61-.45.79.49L56,126.2l1.5.84,1.79-.5L60,127" transform="translate(-2.61 -3.93)"/><path class="cls-4" d="M59.69,125.44,58.31,124h0l2.37,1.14-1,.3m3.23.69.79-.24c-1.83-.83-4.25-2-6.05-2.84l-.89.26c1,1.11,2.41,2.58,3.53,3.59l.76-.22-.81-.7,1.39-.41,1.28.56" transform="translate(-2.61 -3.93)"/><path class="cls-4" d="M63.54,122.83c.45.43,0,.59-.21.66l-.75.23c-.42-.33-.85-.67-1.27-1l.79-.24a1.45,1.45,0,0,1,1.44.37m3.9,1.9,0,0a1.88,1.88,0,0,1-.85-.42l-.3-.24a2.39,2.39,0,0,0-1.7-.57c.64-.76-1-1.79-2.31-1.71a4.33,4.33,0,0,0-.78.15l-1.71.53a47.41,47.41,0,0,0,4.48,3.32l.79-.25c-.58-.4-1.17-.81-1.75-1.25l.81-.25a1.48,1.48,0,0,1,1.33.31l.3.22a2.08,2.08,0,0,0,.89.48l.85-.27" transform="translate(-2.61 -3.93)"/><path class="cls-4" d="M71.55,123.39l-.86.28c-1.3-.53-3-1.22-4.33-1.77h0c.88.83,1.76,1.61,2.63,2.32l-.84.28a51.39,51.39,0,0,1-4-3.48l1-.31c1.32.57,3.08,1.34,4.41,1.89h0c-.83-.79-1.65-1.63-2.47-2.53l1-.32q1.75,2,3.51,3.63" transform="translate(-2.61 -3.93)"/><path class="cls-4" d="M77.74,121.27l-.89.31c-.38-.49-.76-1-1.15-1.53l-1.9.66c.42.52.84,1,1.25,1.49l-.88.3q-1.56-1.69-3.15-3.74l1-.34c.44.59.88,1.16,1.32,1.7l1.93-.67c-.4-.56-.8-1.14-1.21-1.74l1-.35q1.36,2.13,2.69,3.91" transform="translate(-2.61 -3.93)"/><path class="cls-4" d="M80.55,118.36c.35.68.21,1.16-.41,1.41a1.35,1.35,0,0,1-1.64-.67l-.45-.73c-.75-1.33.59-1.67,1.15-1.54a1.52,1.52,0,0,1,1,.78l.4.75m1-.35-.37-.74a2.41,2.41,0,0,0-3.27-1,1.58,1.58,0,0,0-.77,2.42c.16.24.31.48.47.71,1.34,1.85,3.88,1.1,4.13-.35A1.7,1.7,0,0,0,81.5,118" transform="translate(-2.61 -3.93)"/><path class="cls-4" d="M87.25,117.8l-.84.32c-.56-.74-1.31-1.72-1.89-2.45h0c.07.92.16,2.14.24,3.06l-.84.31c-.91-1.13-2.14-2.64-3.06-3.76l1-.37c.6.81,1.4,1.88,2,2.69h0c-.09-1-.22-2.33-.3-3.32l.75-.28c.61.8,1.42,1.87,2,2.68h0c-.09-1-.23-2.32-.32-3.31l1-.38c.07,1.44.16,3.37.24,4.81" transform="translate(-2.61 -3.93)"/><path class="cls-4" d="M93.31,111.35l-1.4.55c.24,1.36.44,2.66.6,3.88l-.89.35c-.2-1.21-.43-2.49-.7-3.84l-1.4.54-.18-.74c1.29-.49,2.58-1,3.86-1.5,0,.25.07.51.11.76" transform="translate(-2.61 -3.93)"/><path class="cls-4" d="M97,112.08a1.73,1.73,0,0,1-1,1.67c-.61.22-1-.07-1-.86,0-.28,0-.57-.07-.87-.1-1.59,1.24-2.07,1.73-1.66a1.19,1.19,0,0,1,.32.84l0,.88m.91-.37v-.89c-.06-1.07-.71-1.95-2.36-1.21a2.81,2.81,0,0,0-1.58,2.8l.09.85c.3,2.09,2.3,1.42,3.19.29a3,3,0,0,0,.66-1.84" transform="translate(-2.61 -3.93)"/><path class="cls-4" d="M103.57,110.18c-.37,1.57-2.58,2.59-3.15,1.75a1.09,1.09,0,0,1-.12-.74l.85-.36c-.07,1.19,1.23.22,1.24.21.22-.2.76-1.07-.06-1.12a5.55,5.55,0,0,1-1.22,0,.67.67,0,0,1-.54-.49,2.08,2.08,0,0,1,.9-2.09,3.87,3.87,0,0,1,.86-.52c1.7-.65,1.63.75,1.56.93l-.87.37c.06-1-1-.37-1.15-.24s-.84,1.09,0,1.15c.3,0,.61,0,.91,0a1.3,1.3,0,0,1,.56.16c.33.24.24.8.18,1" transform="translate(-2.61 -3.93)"/><path class="cls-4" d="M105.5,108.68l.89-2.34h0l.14,1.89-1,.46m1,1.28.79-.35c0-1.44-.12-3.35-.29-4.78l-.92.41c-.68,1.78-1.6,4.16-2.34,5.92l.82-.35.51-1.23,1.45-.63,0,1" transform="translate(-2.61 -3.93)"/><path class="cls-4" d="M110.14,106.71c-.19.65-.39,1.28-.6,1.91l-.75.34c.2-.64.4-1.29.58-1.95-.18-.88-.38-2.06-.62-2.93l1-.42.33,2.19h0l1.53-3,.67-.31.24-.11c-.7,1.3-1.78,3-2.35,4.33" transform="translate(-2.61 -3.93)"/><path class="cls-4" d="M115.18,105.93l-.6.3c.35-.78.68-1.58,1-2.39l-1.37.66c-.29.8-.59,1.59-.92,2.36l-.66.32a51.17,51.17,0,0,0,1.92-5.76l.76-.37c-.25.87-.51,1.72-.79,2.55l1.4-.68c.3-.85.59-1.71.86-2.58l.68-.34a51.92,51.92,0,0,1-2.27,5.93" transform="translate(-2.61 -3.93)"/><path class="cls-4" d="M117.68,104.65l-1.84.95a54.85,54.85,0,0,0,2.35-6l2.08-1.09c-.11.33-.23.65-.35,1l-1.43.74c-.18.52-.37,1-.57,1.54l1.2-.62c-.13.32-.27.63-.4,1l-1.17.61c-.24.57-.48,1.13-.73,1.68l1.31-.68-.45.92" transform="translate(-2.61 -3.93)"/><path class="cls-4" d="M119.56,103.61c-.46.27-1,.54-1.48.82a54.14,54.14,0,0,0,2.64-6.13l.55-.29c-.67,1.79-1.42,3.54-2.25,5.23q.54-.28,1-.57l-.48.94" transform="translate(-2.61 -3.93)"/><path class="cls-4" d="M121.09,102.69c-.37.24-.78.48-1.22.74a56.43,56.43,0,0,0,2.88-6.26l.46-.27a58.72,58.72,0,0,1-2.43,5.35l.83-.51c-.17.32-.34.64-.52,1" transform="translate(-2.61 -3.93)"/><path class="cls-4" d="M123.6,99.36a8.93,8.93,0,0,1-1.22,1.94h-.06c0-.06-.06-.15.6-1.49.2-.38.38-.77.57-1.16,1-2.06,1.19-2,1.24-2s.07.21-.55,1.52c-.19.39-.38.78-.58,1.17m.28-.2c.2-.39.4-.78.59-1.17,1-2,.87-2.45.68-2.38a.78.78,0,0,0-.15.1,12.86,12.86,0,0,0-1.87,3.19c-.18.38-.37.76-.55,1.15-.78,1.58-1,2.33-.8,2.25a10,10,0,0,0,2.1-3.14" transform="translate(-2.61 -3.93)"/></g></g></g></g></g></svg>