<svg xmlns="http://www.w3.org/2000/svg" viewBox="0 0 247.63 247.63"><defs><style>.cls-1{fill:#ee761c;}.cls-2{fill:#fff;}</style></defs><title>settings</title><g id="圖層_2" data-name="圖層 2"><g id="圖層_1-2" data-name="圖層 1"><circle class="cls-1" cx="123.82" cy="123.82" r="123.82"/><path class="cls-2" d="M44.31,64.36c1.43-4.13,4.41-5.52,8.67-5.5,27.58.09,55.17,0,82.75.09a2.54,2.54,0,0,0,2.88-1.9,23.5,23.5,0,0,1,29-14.16,22.79,22.79,0,0,1,15,13.86c.64,1.61,1.33,2.27,3.17,2.21,5.34-.15,10.69-.1,16,0a6.72,6.72,0,0,1,6.57,5.33,6.54,6.54,0,0,1-3.26,7.35,10.59,10.59,0,0,1-4.31,1c-5.13.12-10.26.1-15.39,0a2.33,2.33,0,0,0-2.65,1.79,23.59,23.59,0,0,1-44.07.34,2.71,2.71,0,0,0-3-2.13c-27.47.06-54.95,0-82.43.09-4.27,0-7.36-1.27-8.91-5.42Zm106.14,1.17a10.24,10.24,0,1,0,20.48.28,10.24,10.24,0,0,0-20.48-.28Z"/><path class="cls-2" d="M44.31,173.76a22.54,22.54,0,0,1,2.09-3.33c1.57-1.77,3.76-2.05,6-2.05,27.69,0,55.38,0,83.07.05,1.75,0,2.56-.42,3.21-2.13,5.82-15.21,25.45-19.88,37.58-9a23,23,0,0,1,6.62,9.67,1.91,1.91,0,0,0,2.2,1.48c5.29-.07,10.58,0,15.88,0,3.57,0,6,1.58,7.12,4.42a6.8,6.8,0,0,1-6.46,9.26c-5.34.08-10.69.09-16,0a2.51,2.51,0,0,0-2.88,1.91,23.52,23.52,0,0,1-29,14.15,22.86,22.86,0,0,1-15.06-14,2.76,2.76,0,0,0-3.1-2.05c-27.53.06-55.06,0-82.59.09-4.26,0-7.24-1.37-8.67-5.5Zm106.14,1.48A10.24,10.24,0,1,0,160.61,165,10.29,10.29,0,0,0,150.45,175.24Z"/><path class="cls-2" d="M44.31,119.22c1.35-4.18,4.3-5.73,8.58-5.58,4.81.18,9.63,0,14.43.09a2.52,2.52,0,0,0,2.85-2,23.54,23.54,0,0,1,29.18-14,23,23,0,0,1,14.89,14,2.68,2.68,0,0,0,3,2q41.54-.11,83.06,0a12.63,12.63,0,0,1,3.48.35,6.68,6.68,0,0,1,4.77,7.26,6.78,6.78,0,0,1-6.33,6c-.74,0-1.49,0-2.24,0q-41.37,0-82.74,0a2.67,2.67,0,0,0-3,2.05,23.52,23.52,0,0,1-29.22,14A23.16,23.16,0,0,1,70,129a2.13,2.13,0,0,0-2.39-1.67c-4.92.09-9.84-.1-14.76.08-4.28.15-7.23-1.39-8.58-5.58Zm58.13,1.32a10.24,10.24,0,1,0-10.17,10.22A10.26,10.26,0,0,0,102.44,120.54Z"/></g></g></svg>